<?xml version="1.0" encoding="UTF-8" standalone="no"?>
<!-- Created with Inkscape (http://www.inkscape.org/) -->

<svg
   width="64mm"
   height="63.999996mm"
   viewBox="0 0 64 63.999996"
   version="1.1"
   id="svg1"
   sodipodi:docname="lofty_1_pressed.svg"
   inkscape:version="1.3.2 (091e20e, 2023-11-25, custom)"
   inkscape:export-filename="lofty_1_pressed.png"
   inkscape:export-xdpi="96"
   inkscape:export-ydpi="96"
   xmlns:inkscape="http://www.inkscape.org/namespaces/inkscape"
   xmlns:sodipodi="http://sodipodi.sourceforge.net/DTD/sodipodi-0.dtd"
   xmlns="http://www.w3.org/2000/svg"
   xmlns:svg="http://www.w3.org/2000/svg">
  <sodipodi:namedview
     id="namedview1"
     pagecolor="#505050"
     bordercolor="#ffffff"
     borderopacity="1"
     inkscape:showpageshadow="0"
     inkscape:pageopacity="0"
     inkscape:pagecheckerboard="1"
     inkscape:deskcolor="#505050"
     inkscape:document-units="mm"
     inkscape:zoom="4.6350453"
     inkscape:cx="90.29038"
     inkscape:cy="93.958089"
     inkscape:window-width="2560"
     inkscape:window-height="1369"
     inkscape:window-x="1912"
     inkscape:window-y="-8"
     inkscape:window-maximized="1"
     inkscape:current-layer="layer1" />
  <defs
     id="defs1" />
  <g
     inkscape:label="Layer 1"
     inkscape:groupmode="layer"
     id="layer1"
     transform="translate(-72.907289,-116.43125)">
    <circle
       style="fill:#e6b45f;fill-opacity:1;stroke:#e6b45f;stroke-width:2.20537;stroke-linecap:round;stroke-linejoin:round;stroke-opacity:1"
       id="path1"
       cx="104.90729"
       cy="148.43124"
       r="30.897314" />
    <g
       id="g1"
       inkscape:label="lofty">
      <path
         id="Path 0"
         fill-rule="evenodd"
         class="s0"
         d="m 652,917 v -1 h 2 v 1 z m 5,1 h 1 v 1 h -1 z m 2,1 h 1 v 1 h -1 z m -13,4 1,-1 h 1 v 2 h -2 z m -2,5 4,-2 1,1 v 1 l 4,1 -5,8 -1,3 -1,-3 -4,2 -3,6 v 5 h 4 l -3,4 v 5 l -5,2 -1,8 4,-2 3,4 -1,7 h 4 l -1,4 -5,13 6,2 4,-1 -2,-4 3,1 4,4 -8,2 -1,7 6,-2 v 3 l -3,1 -1,14 -3,2 -2,12 2,-3 3,-2 v 8 l 4,-6 h 1 l 2,3 3,3 v -4 l 5,-5 8,-1 -3,4 3,7 -6,4 -2,10 4,-5 6,-7 1,-1 3,4 -2,5 -2,2 v 3 h 1 l 2,-2 3,-1 -1,8 3,-4 h 1 l 3,2 v 2 l -1,4 v 2 l 2,1 v 1 l 1,4 2,-4 v -1 l 1,-1 h 1 v 2 h 1 l 1,-1 h 1 l 3,5 v 2 h 1 l 1,1 v 1 l -2,1 -2,3 -3,2 -1,2 h 3 l 1,-4 2,-1 1,-1 h 1 l 1,4 -4,-1 2,3 -3,3 v 2 l -1,1 v 2 l -1,2 h -2 l -1,-1 h -1 l -1,-1 h -1 l -1,-1 h -1 l -2,-2 h -2 v -1 h -1 l -1,-1 h -2 l -1,-1 h -1 l -1,-1 h -1 l -1,-1 h -1 l -1,-1 h -1 l -1,-1 h -1 l -1,-1 h -1 l -2,-2 h -1 l -1,-1 h -1 l -1,-1 h -1 l -1,-1 h -1 l -3,-3 h -3 l -1,-1 h -1 l -2,-1 -1,-1 h -2 l -2,-1 h -1 l -1,-1 h -2 v -1 h -2 l -1,-1 h -2 l -2,-2 h -1 l -2,-1 -3,-1 h -1 l -1,-1 h -1 l -1,-1 h -4 l -1,-1 h -1 l -2,-1 h -1 l -1,-1 h -1 l -2,-1 h -1 l -1,-1 h -2 l -1,-1 h -1 l -2,-1 h -1 l -1,-1 h -1 l -1,-1 v -1 l -1,-3 v -5 l 1,-2 v -1 l 1,-2 v -2 l 1,-2 v -1 l 2,-2 v -1 l 2,-2 v -1 l 2,-2 v -1 l 2,-2 v -1 l 1,-1 1,-2 v -1 l 1,-1 v -1 h 1 l 1,4 1,-5 8,-3 2,4 -6,-1 -1,3 3,1 1,7 3,-5 3,3 -4,6 6,2 -2,-7 5,-8 -4,-4 5,-4 -2,-3 h 3 l -2,-3 2,-1 2,-8 -3,-3 -2,3 v 3 l -6,-3 v 4 l -5,1 v -2 l 1,-1 v -2 l 1,-1 v -1 l 1,-1 v -1 l 1,-1 v -2 l 1,-1 v -1 l 1,-1 v -1 l 1,-1 v -1 l 1,-2 v -1 l 1,-1 v -1 l 1,-1 v -1 l 1,-2 v -1 l 1,-1 v -1 l 1,-1 v -1 l 1,-2 v -1 l 1,-1 v -1 l 1,-1 v -1 l 1,-1 v -2 l 1,-1 v -1 l 1,-1 v -1 l 1,-2 v -1 l 1,-1 v -1 l 1,-1 v -1 l 1,-2 v -1 l 1,-1 v -1 l 1,-1 v -1 h 1 v -3 l 1,-1 v -1 l 1,-1 v -2 z m 61,12 h 1 v 1 h -1 z m 2,1 h 1 v 1 h -1 z m 1,2 v -1 h 2 v 1 z m 2,1 v -1 h 3 v 1 z m 4,0 h 1 v 1 h -1 z m 3,2 -2,-1 h 3 v 1 z m 9,3 h 1 v 1 h -1 z m 2,1 h 1 v 1 h -1 z m 2,2 v -1 h 2 v 1 z m 3,0 h 1 v 1 h -1 z m 2,1 h 1 v 1 h -1 z m 5,2 h 1 v 1 h -1 z m 22,10 h 1 v 1 h -1 z m 0,8 v -2 h 1 v 2 z m 0,2 h 1 v 2 h -1 z m -2,5 1,-3 h 1 v 1 l -1,2 z m -2,2 h 1 v 1 h -1 z m -49,12 h -2 l 2,-1 z m -95,3 h 1 l -1,2 z m -1,2 h 1 l -1,2 z m -1,2 h 1 l -1,3 z m -1,4 v -1 h 1 l 1,3 -3,1 v -2 z m 96,3 v -2 h 1 v 1 z m -99,2 h 1 v 1 h -1 z m 95,2 3,-1 1,1 v 1 l -2,2 -2,1 z m -96,0 h 1 l -1,2 z m 130,5 h 1 v 1 h -1 z m -37,3 1,-1 h 1 l 1,1 -1,2 h -2 z m 34,1 h 1 v 1 h -1 z m -2,2 1,-1 h 1 l -1,1 z m -38,33 1,2 h -1 z m -4,2 2,-1 2,1 h 1 l 2,1 v 1 l -5,1 z m 4,6 2,-1 -1,1 z m -2,2 h 1 v 1 h -1 z m 21,14 h 1 v 1 h -1 z m -12,2 h 1 v 1 h -1 z m -1,1 h 1 v 1 h -1 z m -3,8 1,-1 h 1 l 2,3 -1,1 v 1 l -1,1 h -5 l -1,-1 h -1 v -1 l 2,-1 1,-1 z m 3,6 h 1 v 1 h -1 z"
         style="opacity:1;fill:#7b6125"
         transform="matrix(0.26458333,0,0,0.26458333,-74.347922,-118.00417)" />
      <path
         id="Path 1"
         fill-rule="evenodd"
         class="s1"
         d="m 651,916 h 1 v 1 h -1 z m 5,2 -2,-1 h 2 z m 0,0 h 1 v 1 h -1 z m -9,1 h 1 v 1 h -1 z m -1,3 h 1 v 1 h -1 z m 19,0 h 1 v 1 h -1 z m 3,2 -2,-1 h 2 z m -23,1 1,-1 h 2 v 2 l -4,2 v -1 l 1,-1 z m 24,-1 h 1 v 1 h -1 z m -13,4 -2,12 5,-2 2,7 h 3 l -5,12 5,-3 2,-2 3,-5 2,1 -3,6 -3,5 h 1 l 2,6 -4,2 2,9 -4,7 2,7 -6,7 4,1 5,-10 h 3 l -1,-4 4,-2 v 4 l -5,4 2,9 1,-5 1,-1 h 1 l 1,4 h -1 l -1,6 4,-2 -4,10 3,2 v 8 l 1,1 v 2 l -2,7 -3,1 1,8 h -3 l -3,-7 3,-4 -8,1 -5,5 3,-7 -1,-9 -2,8 -4,1 4,2 -3,6 -2,-3 h -1 l -4,6 v -8 l -3,2 -2,3 2,-12 3,-2 1,-14 3,-1 v -3 l -6,2 1,-7 8,-2 -4,-4 -3,-1 2,4 -4,1 -6,-2 5,-13 1,-4 h -4 l 1,-7 -3,-4 -4,2 1,-8 5,-2 v -5 l 3,-4 h -4 v -5 l 3,-6 4,-2 1,3 1,-3 5,-8 -4,-1 5,-2 z m 32,5 h 1 v 1 h -1 z m 16,7 h 1 v 1 h -1 z m 16,7 -3,-1 h 3 z m 1,0 h 1 v 1 h -1 z m 3,1 h 1 v 1 h -1 z m 3,2 h 1 v 1 h -1 z m 2,1 h 1 v 1 h -1 z m 4,2 -2,-1 h 2 z m 5,1 h 1 v 1 h -1 z m -52,4 2,-1 -1,7 -5,6 v 1 l 1,2 5,-5 3,1 3,-8 h 3 v 4 l -8,8 v 9 h -1 v -5 l -2,-2 -2,2 -2,-3 -3,3 4,3 1,7 v 1 l -5,12 -5,-8 2,-6 v -5 l -3,1 v -2 l 1,-1 1,-6 3,-2 1,2 1,-4 1,-1 z m 59,-1 h 1 v 1 h -1 z m 3,2 -2,-1 h 2 z m 9,5 v -1 h 2 v 1 z m 5,2 h 1 v 1 h -1 z m 0,5 v -2 h 1 v 2 z m -89,6 -5,4 1,-4 4,-1 z m 18,10 2,-6 v 9 l 3,1 v 1 l -3,3 3,6 3,-3 v 4 l -1,2 -4,3 -4,-6 -2,4 -1,-1 v -1 l 2,-2 -3,2 -2,1 v -3 l -2,3 1,2 -2,2 2,1 -4,3 -3,-6 6,-5 2,-9 2,-3 1,4 z m 9,-1 v -1 h 2 l 1,1 -2,2 z m 5,8 2,-6 2,5 -2,1 h 2 l 1,2 2,-3 2,5 -1,2 -2,-3 -7,1 z m -79,-2 2,-3 3,3 -2,8 -2,1 2,3 h -3 l 2,3 -5,4 4,4 -5,8 2,7 -6,-2 4,-6 -3,-3 -3,5 -1,-7 -3,-1 1,-3 6,1 -2,-4 -8,3 -1,5 -1,-4 1,-2 v -1 l 1,-1 v -2 h 1 l 3,-1 -1,-3 1,-3 2,-4 5,-1 v -4 l 6,3 z m 47,0 h 1 v 1 h -1 z m 27,13 5,-2 1,7 v 1 l -3,1 -1,-4 -2,1 1,7 -5,5 -2,-3 4,-7 v -1 l 1,-3 1,-1 z m 7,3 1,-1 -1,2 z m 33,3 h 1 v 1 h -1 z m -38,8 1,-6 v 3 l 2,-1 v 2 h -1 v 3 h -1 z m 16,1 -6,2 4,-8 4,2 z m 12,-1 1,-1 1,2 h -1 z m 3,2 h 1 v 1 h -1 z m -56,3 v 2 l -1,-2 z m 32,2 v -2 h 2 z m 21,0 1,-2 v 5 l -1,-2 z m -47,3 3,-1 v 4 l -5,10 -1,1 v 1 l 1,2 v 1 l 0.4,-0.2 0.6,1.2 v 1 l -3,7 -3,4 1,-8 -3,1 v -3 h -1 l 2,-5 -3,-4 v -1 l 1,-3 1,-1 1,5 h 3 z m 13,12 2,-8 4,2 -1,3 2,-1 3,5 -5,4 v -4 z m -10,-1 -3,-1 4,-5 1,4 5,-2 -5,5 v 2 l -2,3 z m -30,-4 v 3 l -3,-3 z m 74,2 h 1 v 1 h -1 z m -65,11 -4,5 2,-10 6,-4 2,2 z m 18,-3 -1.6,0.8 -0.4,-0.8 v -2 h 1 l 1,1 z m 4,1 4,-2 -2,8 -1,-2 -2,2 h -1 l -1,1 v 2 l -1,1 v 1 l -3,-2 7,-8 z m 13,1 1,-2 -1,3 z m -5,2 2,-1 h 2 l 3,2 -1,6 -2,2 h -1 v 1 h -1 v -1 l -2,-1 -1,-2 3,-2 -2,-3 z m -22,3 h 1 v 1 h -1 z m 17,5 1,-3 1,2 z m 2,-1 2,-1 v 2 z m -3,2 1,-1 2,3 5,-1 v 2 l -1,1 -2,1 -1,2 h -1 l -1,-2 v -1 l -2,-3 z m -7,5 1,-4 v 1 z m -60,-1 v -1 l 3,1 z m 60,3 3,-4 v 4 l -1,1 z m -57,-2 v -1 l 2,1 z m 71,0 h 1 v 1 h -1 z m -8,1 h 1 v 1 h -1 z m -1,1 h 1 v 1 h -1 z m 2,0 h 1 v 1 h -1 z m 1,1 h 1 v 1 h -1 z m 5,5 -3,-5 h 1 l 1,2 1,-2 z m -8,-4 -2,4 -1,-4 z m 8,6 v -2 h 1 l 1,1 h 1 l 2,-1 v 3 l -2,7 -1,-4 v -3 l -1,-1 z m 0,3 2,-1 v 2 h -1 z m -2,3 2,-3 v 2 z m -3,2 3,-2 -1,4 v -1 z m 6,2 -2,-3 4,1 v 1 l -1,1 z m 5,-3 h 1 v 1 h -1 z m -12,3 1,-2 v 2 z m 12,-1 h 1 v 1 h -1 z m -8,4 3,-3 1,2 -2,2 h -1 z m 7,-3 h 1 v 1 h -1 z m -7,4 h 1 v 1 h -1 z m 8,5 -2,-3 h 3 v 3 z m -10,1 1,-2 2,1 -2,1 z m 9,1 h 1 v 1 h -1 z m -3,1 h 1 v 1 h -1 z"
         style="opacity:1;fill:#92793a"
         transform="matrix(0.26458333,0,0,0.26458333,-74.347922,-118.00417)" />
      <path
         id="Path 2"
         fill-rule="evenodd"
         class="s2"
         d="m 648,918 1,-1 h 5 l 2,1 1,1 h 2 l 1,1 h 2 v 1 l -2,1 3,1 v -2 h 1 l 2,2 2,1 h 1 v 1 h 4 v 1 h 2 v 6 l -4,4 1,5 -4,1 1,-5 -4,-9 -3,-3 2,12 -2,3 5,2 v 4 l 5,-5 3,5 -3,8 -1,-2 -3,2 3,-6 -2,-1 -3,5 v -2 l -4,4 h 2 l -5,3 5,-12 h -3 l -2,-7 -5,2 2,-12 -2,-2 -5,2 v -1 l -1,-1 v -4 l -1,-1 v -1 l 1,-1 z m 28,9 h 1 v 1 h -1 z m 2,1 h 1 v 1 h -1 z m 4,2 h 1 v 1 h -1 z m 4,2 h 1 v 1 h -1 z m 8,7 -8,5 v 9 l -7,-2 1,-12 4,2 1,5 2,-13 h 1 l 1,1 h 3 l 1,1 h 1 l 1,1 h 1 v 1 h -3 z m 0,0 2,-2 h 3 l 1,1 h 1 l 1,1 h 1 l 1,1 v 1 h 3 v 1 h 1 v 1 h -1 l -1,4 h 4 v -3 h 4 l 1,1 2,1 3,1 h 1 l 1,1 h 2 l 1,1 h 1 l 2,2 h 1 v 1 h 2 l 2,1 h 2 l 1,1 h 2 v 1 l 1,1 -6,11 4,-1 2,-8 h 7 l 2,1 -7,2 v 5 l 4,3 -6,-1 1,5 -3,-1 -2,6 -3,-8 -4,3 -2,24 -4,6 -1,17 h -3 l 2,-4 -4,-2 -2,-2 -3,2 1,3 4,-3 -4,8 6,-2 -1,3 -6,1 h -2 l 2,-5 -4,-7 -1,-1 v -1 l -1,-7 -5,2 2,-7 -3,3 v -3 l -3,3 -3,-6 3,-3 1,4 4,-8 2,-2 4,1 -3,-11 -3,9 h -1 l 1,-4 -5,10 -3,-1 v -9 l -2,6 -4,6 -1,-4 -2,3 -2,9 -6,5 3,6 4,-3 v 4 l 3,-1 2,-7 2,-4 4,6 4,-3 1,3 -1,3 h -2 l 2,1 -4,7 2,3 5,-5 -1,-7 2,-1 1,4 v 1 l -1,6 h -1 l -1,1 v 2 h 2 l 1,-2 h 1 l 1,3 3,-2 -1,7 -1,2 h -1 l -3,5 -4,-2 -2,8 5,1 v 4 l -1,2 -5,-4 -1,5 h -4 l 1,-4 1,-2 -3,-3 4,-4 -5,2 -1,-4 -4,5 3,1 v 6 l 1,2 -7,8 h -1 l 3,-7 0.5,-2 0.5,-1 -0.3,0.1 0.3,-1.1 -1,-1 -1,-2 5,-10 v -4 l -3,1 -5,12 h -3 l -1,-5 -1,1 -1,3 -1,-8 3,-1 2,-7 1,2 v -2 l 2,-2 -3,-5 -1,4 v -8 l -3,-2 4,-10 -4,2 1,-6 h 1 l -1,-4 1,-1 5,8 5,-12 v -1 l -1,-7 2,4 -1,-7 2,-2 2,2 v 5 h 1 v -9 l 8,-8 v -4 h -3 l -3,8 -3,-1 -5,5 -1,-2 v -1 l 5,-6 1,-7 -2,1 -4,8 -2,-3 2,-7 5,-1 3,-8 h 3 l -2,9 5,-6 z m 23,60 2,6 4,-5 2,-15 h -6 v 5 l -7,-1 3,3 -1,6 -2,-5 -2,3 -1,-2 v -1 l -2,-5 -2,6 -3,-3 1,5 2,-2 -1,4 7,-1 2,3 1,-2 v 6 l -3,1 -5,-5 2,6 h -1 v 3 l 1,-2 v -1 l 5,3 z m -8,-56 h 1 v 1 h -1 z m -45,11 v -2 h 2 z m 1,5 3,-5 8,3 1,13 3,-1 -1,4 -1,-2 -3,2 -1,6 -1,-3 -4,1 -1,4 5,-4 v 2 l -1,1 h 1 v 2 l -4,2 1,4 h -3 l -5,10 -4,-1 6,-7 -2,-7 4,-7 -2,-9 4,-2 -2,-6 2,-1 -1,-2 z m 74,-4 h 1 v 1 h -1 z m 5,2 -4,-1 h 4 z m 5,2 h 1 v 1 h -1 z m 8,5 -5,1 -1,-5 h 1 l 2,1 h 1 l 1,1 h 1 z m 4,1 -4,-1 h 4 z m 0,0 h 1 v 1 h -1 z m 1,10 v -2 h 1 v 2 z m -79,5 -4,-3 3,-3 2,3 z m -10,-1 h 1 v 1 h -1 z m 0,3 3,-1 v 5 l -2,6 h -1 l -2,-2 v 4 l -1,5 -2,-9 5,-4 z m 26,3 h 1 v 1 h -1 z m -17,19 2,-3 v 3 l 2,-1 v 3 h -3 z m 4,-1 3,-2 -2,2 z m -3,6 -2,-1 2,-2 2,3 z m 22,6 h 1 v 1 h -1 z m 26,3 -1,-3 h 3 l 3,4 v 1 l -1,1 h -2 l -1,-1 z m -27,-1 h 1 l -1,2 z m -51,19 3,-6 -4,-2 4,-1 2,-8 1,9 -3,7 v 1 z m 23,-12 v -2 l 1,2 z m 35,0 3,8 -1,2 h -1 l -6,-1 v -3 h 1 v -2 z m -8,13 -2,1 1,-3 6,6 -1,3 -5,6 6,2 2,-2 1,6 -7,6 -1,-8 -2,3 1,-6 -3,-2 h 1 l 1,-3 5,-4 z m 27,1 1,-2 v 2 z m -61,2 h 3 v 1 l -1,1 z m 17,6 2,-3 3,2 -4,2 z m -3.3,0.1 -0.2,0.9 -0.5,1 -0.6,-1.2 z M 680,1044 h 1 v 2 z m 1,2 0.4,0.8 -0.4,0.2 z m 5,7 2,-2 1,2 1,-4 3,3 2,-1 2,3 -3,2 -2,1 -1,-2 -1,3 -3,3 2,-1 2,3 -4,-1 -2,4 v -4 l -3,4 v -2 l 1,-3 v -3 l 3,1 z m -13,-3 h 1 v 1 h -1 z m 25,9 h 1 v 1 h -1 z m -81,1 h 1 v 1 h -1 z m 80,0 h 1 v 1 h -1 z m -1,3 1,-1 v 2 h -1 z m -6,3 1,-2 1,2 v 1 h -2 z m 3,0 1,-2 h 2 l 1,1 -2,2 -1,2 -1,-2 z m -9,1 1,-1 v 2 h -1 z m 5,0 h 1 v 1 h -1 z m 6,0 h 1 v 1 h -1 z m 0,5 v -1 l 5,1 -2,1 h -1 l -1,-1 z m 3,10 2,-7 2,5 -1,1 v 1 l -1,1 v 1 l -2,-1 z m -3,-4 h 1 v 1 h -1 z m 18,2 1,-2 v 2 z m -11,0 h 2 l -2,2 z m -12,3 v -1 l 2,1 z m 7,3 -1,-2 h 1 z m 3,-1 1,-1 h 1 v 2 l -1,2 h -1 z m -8,5 1,-1 h 1 l 1,3 -1,1 -2,-1 z m 9,3 h 1 v 1 h -1 z m -1,1 h 1 v 1 h -1 z m -1,2 h 1 v 1 h -1 z"
         style="opacity:1;fill:#aa9756"
         transform="matrix(0.26458333,0,0,0.26458333,-74.347922,-118.00417)" />
      <path
         id="Path 3"
         fill-rule="evenodd"
         class="s3"
         d="m 663,921 v 2 l -3,-1 2,-1 z m 9,20 -5,5 v -4 l -5,-2 2,-3 -2,-12 3,3 4,9 -1,5 z m 0,0 -1,-5 4,-4 v -5 h 1 l 1,1 h 1 l 1,1 h 2 l 2,2 h 2 l 2,2 -2,13 -1,-5 -4,-2 -1,12 7,2 v -9 l 8,-5 2,11 -5,6 2,-9 h -3 l -3,8 -5,1 -2,7 2,3 -1,2 -1,1 -3,1 -1,-13 -8,-3 3,-2 1,2 3,-8 z m 22,-2 -1,-2 h 3 z m 16,5 v 3 h -4 l 1,-4 h 2 z m -46,8 2,-2 v 2 z m 0,2 h -2 l 2,-2 z m 74,1 h 1 v 1 h -1 z m -73,4 2,-3 1,2 -2,1 z m 68,8 6,-11 h 1 l 4,1 h 1 v 1 h -6 l -2,8 z m -15,53 h 3 l 1,-17 4,-6 2,-24 4,-3 3,8 2,-6 3,1 -1,-5 6,1 -4,-3 v -5 l 7,-2 h 1 l 1,1 h 1 l 1,5 5,-1 4,1 2,2 v 1 l -1,1 v 7 l -1,1 -1,3 -2,2 v 1 l -1,1 v 1 l -2,2 v 1 l -3,3 v 2 l -3,3 v 1 l -1,1 -1,2 -2,2 v 1 l -2,2 -2,4 v 1 l -1,1 v 2 l -1,1 v 1 l -2,2 v 2 h -1 l -3,-4 h -3 l 1,3 -1,1 1,1 h 1 l 1,1 v 1 l -2,2 -1,2 v 1 l 1,2 v 7 l -1,2 v 3 l -1,1 -1,2 -1,1 v 1 l -1,1 v 1 l -2,2 v 1 l -1,1 v 2 l -1,1 -1,2 -1,1 v 1 l -2,5 -1,1 v 1 l -1,1 v 1 l -1,1 v 5 l -1,1 v 3 l -1,2 v 2 l -2,4 -1,1 v 1 l -1,1 -1,2 -2,2 v 1 h -1 v 1 l -1,1 -2,1 -1,-1 v -2 l 1,-1 v -3 h -4 l -1,1 -2,1 -1,-3 v -1 h 1 l 2,-2 v -2 l 1,-1 2,1 v 4 h 1 l 1,-2 v -4 l 2,-2 h -2 l -2,-5 v -3 l -5,-1 v -3 l 1,-1 v -1 l 1,-1 v -4 l 4,-4 2,-3 1,8 7,-6 -1,-6 -2,2 -6,-2 5,-6 1,-3 -6,-6 3,-5 h 1 v 3 l 6,1 h 1 l 1,-2 -3,-8 6,-1 z m -45,-44 1,3 h -1 z m 28,9 3,-9 3,11 -4,-1 -1,-1 z m -18,-5 1,-3 1,7 z m 16,5 2,-4 -1,4 z m 15,13 1,-6 -3,-3 7,1 v -5 h 6 l -2,15 -4,5 -2,-6 -4,10 -5,-3 -2,-6 5,5 3,-1 z m -18,-7 3,-6 1,1 1,2 -4,8 -1,-4 z m -25,3 v -4 l 2,2 z m 34,0 -2,2 -1,-5 z m -6,7 3,-3 -2,7 v 1 l -1,1 -1,-3 1,-2 z m -16,5 h 3 v -3 h 1 v 1 l 1,1 -2,7 -3,1 v -4 h 2 z m 15,5 -2,-1 h 2 z m 9,2 v -1 l 4,7 -2,5 v 2 l -2,2 1,-7 -3,2 -1,-3 v -1 l 1,-2 v -1 l 1,-1 v -1 z m 9,1 -4,3 -1,-3 3,-2 z m -41,7 1,-4 3,5 -2,2 -1,-2 z m 31,9 1,-2 v 2 z m -18,11 1,-1 3,3 -1,2 -3,-2 z m -8,2 1,-1 1,2 h -2 z m 10,6 h 4 l 1,-5 5,4 v 1 h -3 l -2,1 v 1 l -2,1 z m -3,-1 -1,-2 1,1 z m -16,4 1,-1 h 2 v 1 l -1,1 v 1 l -1,1 h -1 z m 13,2 1,-1 h 1 v 6 l -3,-1 v -1 l 1,-1 z m 5,6 -2,1 2,-2 z m -4,6 2,-4 4,1 v 1 l -1,2 -1,-1 h -1 l -1,1 v 2 h -2 z m -35,7 h 1 v 1 h -1 z m 40,11 v -1 h 2 v 1 z m 8,12 h 1 v 1 h -1 z m 2,0 h 1 v 1 h -1 z m -17,-51 -1,4 v -1 l 1,-2 z"
         style="opacity:1;fill:#bab379"
         transform="matrix(0.26458333,0,0,0.26458333,-74.347922,-118.00417)" />
      <path
         id="Path 4"
         fill-rule="evenodd"
         class="s4"
         d="m 649,917 v -1 h 2 v 1 z m 5,-1 h 1 v 1 h -1 z m -9,9 1,-2 v 1 z m -5,12 1,-2 v 2 z m 56,0 v -1 l 2,1 z m 8,3 -1,-1 2,1 z m 18,8 v -1 l 2,1 z m 7,3 v -1 l 2,1 z m 7,3 v -1 l 2,1 z m 27,11 h 1 v 12 h -1 z m -1,12 h 1 v 1 h -1 z m -2,3 h 1 v 1 h -1 z m -1,1 h 1 v 1 h -1 z m -1,2 h 1 v 1 h -1 z m -1,1 h 1 v 1 h -1 z m -2,3 h 1 v 1 h -1 z m -2,3 h 1 v 1 h -1 z m -1,1 h 1 v 1 h -1 z m -141,13 1,-2 v 2 z m 129,8 h 1 v 1 h -1 z m -1,2 h 1 v 1 h -1 z m -1,2 h 1 v 1 h -1 z m -1,2 h 1 v 1 h -1 z m -1,1 h 1 v 1 h -1 z m -4,4 h 1 v 1 h -1 z m -1,1 h 1 v 1 h -1 z m -1,15 h 1 v 1 h -1 z m -139,5 h 1 v 1 h -1 z m 133,6 h 1 v 1 h -1 z m -1,2 h 1 v 1 h -1 z m -3,6 h 1 v 1 h -1 z m -104,2 h 1 v 1 h -1 z m 4,2 -2,-1 h 2 z m 1,0 h 1 v 1 h -1 z m 4,2 -2,-1 h 2 z m 3,1 -2,-1 h 2 z m 5,2 -2,-1 h 1 z m 1,0 h 1 v 1 h -1 z m 81,6 v -4 h 1 z m -73,-3 h 1 v 1 h -1 z m 7,3 h 1 v 1 h -1 z m 65,2 h 1 l -1,4 z m -1,6 h 1 v 1 h -1 z m -37,6 h 1 v 1 h -1 z m 2,1 h 1 v 1 h -1 z m 2,1 h 1 v 1 h -1 z m 26,4 h 1 v 1 h -1 z m -14,2 -2,-1 h 2 z m 13,-1 h 1 v 1 h -1 z m -9,2 h 1 v 1 h -1 z m 2,2 v -1 h 2 v 1 z m 3,-1 h 1 v 1 h -1 z"
         style="opacity:0.3;fill:#5e4b26"
         transform="matrix(0.26458333,0,0,0.26458333,-74.347922,-118.00417)" />
      <path
         id="Path 5"
         fill-rule="evenodd"
         class="s0"
         d="m 648,936 h 1 v 1 h -1 z m 3,3 h 1 v 1 h -1 z m -3,3 4,2 -2,4 -3,-2 z m -7,4 h 1 v 1 h -1 z m 6,9 h 1 v 1 h -1 z m -2,1 h 1 v 1 h -1 z m 12,0 h 1 v 1 h -1 z m -1,5 -1,-3 h 3 l 1,4 z m -16,-1 h 1 v 1 h -1 z m 4,7 5,4 -4,2 z m 37,3 h 1 v 1 h -1 z m -37,7 h 1 v 1 h -1 z m 2,8 h 1 v 1 h -1 z m 91,3 1,-3 h 2 v 4 l -1,1 -2,1 v 1 h -2 v -1 l 1,-2 z m 19,-3 h 1 v 1 h -1 z m -111,1 h 1 v 1 h -1 z m 109,2 h 1 v 1 h -1 z m -132,10 h 1 v 1 h -1 z m -5,1 h 1 v 1 h -1 z m 74,0 h 1 v 1 h -1 z m -68,4 h 1 v 1 h -1 z m -1,3 2,2 -4,1 z m 27,2 h 1 v 1 h -1 z m 76,3 h 1 v 1 h -1 z m -74,1 h 1 v 1 h -1 z m 88,1 h 1 v 1 h -1 z m -86,5 2,-4 v 4 z m -34,1 -3,-1 3,-2 z m 84,-2 h 1 v 1 h -1 z m -48,3 -3,6 h -4 l -1,-4 h 4 l 2,-4 z m -13,12 h 1 v 1 h -1 z m 32,17 h 1 v 1 h -1 z m 50,0 h 1 v 1 h -1 z m -47,1 h 1 v 1 h -1 z m -31,4 h 1 v 1 h -1 z m 50,2 h 1 v 1 h -1 z m 1,2 h 1 v 1 h -1 z m 1,15 h 1 v 1 h -1 z m 8,19 h 1 v 1 h -1 z"
         style="opacity:1;fill:#7b6125"
         transform="matrix(0.26458333,0,0,0.26458333,-74.347922,-118.00417)" />
      <path
         id="Path 6"
         fill-rule="evenodd"
         class="s1"
         d="m 647,921 h 1 v 1 h -1 z m 1,5 h 1 v 1 h -1 z m 42,8 h 1 v 1 h -1 z m 8.5,12.7 -0.5,0.3 v -4 z m 4.5,-2.7 1,3 -2,-1 -3,5 -0.5,-4.3 z m 11,3 h 1 v 1 h -1 z m -75,6 h 1 v 1 h -1 z m 96,3 2,1 -4,2 z m -52,1 h 1 v 1 h -1 z m -15,1 h 1 v 1 h -1 z m 30,0 h 3 v 5 z m 22,2 h 1 v 1 h -1 z m -30,2 h 1 v 1 h -1 z m 63,0 h 1 v 1 h -1 z m -82,4 h 1 v 1 h -1 z m 48,0 h 1 v 1 h -1 z m -9,1 h 1 v 1 h -1 z m -39,1 h 1 v 1 h -1 z m 39,1 h 1 v 1 h -1 z m 6,18 3,-10 8,-7 z m -22,-16 h 1 v 1 h -1 z m 16,1 4,11 -1,3 -5,-3 -1,-6 z m -6,4 -2,4 v -5 z m 57,0 h 1 v 1 h -1 z m -69,1 h 1 v 1 h -1 z m -49,5 -5,1 v -3 z m -17,-1 1,4 -3,-1 z m 132,0 h 1 v 1 h -1 z m -23,6 1,-2 h 2 l -1,3 z m 20,-1 h 1 v 1 h -1 z m -123,2 h 2 l -1,3 z m 102,2 v -1 h 2 l -1,2 z m 19,-1 h 1 v 1 h -1 z m -20,1 h 1 v 1 h -1 z m 4,1 2,-1 v 1 z m -112,0 h 1 v 1 h -1 z m 107,0 h 1 v 1 h -1 z m -21,1 h 1 v 1 h -1 z m 24,0 h 1 v 1 h -1 z m -87,1 h 1 v 1 h -1 z m 101,2 h 1 v 1 h -1 z m -113,1 h 3 v 4 l -3,6 -6,-1 7,-4 z m -7,4 h 1 v 1 h -1 z m 5,0 h 1 v 1 h -1 z m 8,0 h 1 v 1 h -1 z m 0,2 h 1 v 1 h -1 z m 77,3 2,4 -4,2 z m -76,4 -3,10 h -4 l -4,-8 3,1 -1,-5 5,-1 1,4 z m -11,-2 h 1 v 1 h -1 z m 83,0 h 1 v 1 h -1 z m -72,1 h 1 v 1 h -1 z m 45,2 3,10 -2,-3 -3,1 z m 37,1 v -1 h 2 v 1 z m 1,1 -2,-1 h 1 z m -20,1 h 1 v 1 h -1 z m -1,1 h 1 v 1 h -1 z m 33,1 h 1 v 1 h -1 z m -95,2 h 1 v 1 h -1 z m 12,3 -2,-2 h 2 z m -47,8 -3,-5 6,-4 -2,6 3,4 z m 92,-9 h 1 v 1 h -1 z m 35,1 h 1 v 1 h -1 z m -103,1 h 1 v 1 h -1 z m 61,1 4,4 -5,2 z m 8,0 h 1 v 1 h -1 z m 30,1 h 1 v 1 h -1 z m -44,2 h 1 v 1 h -1 z m 18,5 h -3 l 1,-3 z m -97,-2 1,4 h -4 v -4 z m 74,0 h 1 v 1 h -1 z m 5,4 h 1 v 1 h -1 z m -37,1 h 1 v 1 h -1 z m 62,0 h 1 v 1 h -1 z m -75,1 h 1 v 1 h -1 z m 28,2 3,1 -4,3 z m -13,2 h 1 v 1 h -1 z m -7,1 h 1 v 1 h -1 z m -2,7 2,-5 2,5 4,-4 3,5 -4,-1 -1,3 1.9,0.4 -1.9,4.6 -1,-2 -1,2 h -1 l -1,-1 -1,-2 h 1 v -1 h -1 l -2,-2 -1,3 1,-4 z m 7.9,3.4 0.1,-0.4 3,1 z M 671,1041 h 1 v 1 h -1 z m -36,2 h 1 v 1 h -1 z m 4,0 h 1 v 1 h -1 z m -2,2 h 1 v 1 h -1 z m -26,1 h 1 v 1 h -1 z m 25,0 h 1 v 1 h -1 z m 75,1 h 1 v 1 h -1 z m -39,3 h 1 v 1 h -1 z m 21,2 h 1 v 1 h -1 z m 10,0 h 1 v 1 h -1 z m 5,3 -4,1 v -3 l 4,1 z m 0,-2 h 1 v 1 h -1 z m -62,4 -1,-3 h 1 l 1,1 v 1 z m 24,-3 h 1 v 1 h -1 z m 2,0 h 1 v 1 h -1 z m -19,1 1,4 h -4 z m 15,0 h 1 v 1 h -1 z m 19,0 2,2 -2,1 z m -42,2 h 1 v 1 h -1 z m 59,0 h 1 v 1 h -1 z m -10,1 h 1 v 1 h -1 z m -76,2 h 1 v 1 h -1 z m 2,1 h 1 v 1 h -1 z m 94,1 1,-1 h 1 l -1,2 z m -19,1 h 1 v 1 h -1 z m -67,1 h 1 v 1 h -1 z m 3,1 h 1 v 1 h -1 z m 36,0 h 1 v 1 h -1 z m -33,1 h 1 v 1 h -1 z m 61,0 h 1 v 1 h -1 z m 20,2 h 1 v 1 h -1 z m -59,2 h 1 v 1 h -1 z m -6,2 h 1 v 1 h -1 z m 1,1 h 1 v 1 h -1 z m 41,0 h 1 v 1 h -1 z m -10,1 2,1 -3,1 z m 9,0 h 1 v 1 h -1 z m -5,5 h 1 v 1 h -1 z m 14,3 h 1 v 1 h -1 z m -12,2 h 1 v 1 h -1 z m 2,0 h 1 v 1 h -1 z m -4,1 h 1 v 1 h -1 z m 11,5 h 1 v 1 h -1 z m 0,4 1,-2 v 2 z m 3,-1 h 1 v 1 h -1 z"
         style="opacity:1;fill:#92793a"
         transform="matrix(0.26458333,0,0,0.26458333,-74.347922,-118.00417)" />
      <path
         id="Path 7"
         fill-rule="evenodd"
         class="s2"
         d="m 678,930 h 1 v 1 h -1 z m 2,5 v 3 h -4 l 1,-4 z m -24,8 h 1 v 1 h -1 z m 36,0 h 1 v 1 h -1 z m -37,1 h 1 v 1 h -1 z m -1,10 -1,2 -1,-1 z m -2,1 1,1 -1,2 z m 27,1 h 1 v 1 h -1 z m -17,8 h 1 v 1 h -1 z m -2,2 2,2 -3,1 z m 20,2 h 1 v 1 h -1 z m 82,0 h 1 v 1 h -1 z m -106,3 h 1 v 1 h -1 z m -2,4 h 1 v 1 h -1 z m 5,3 2,4 -6,2 z m 100,2 h 1 v 1 h -1 z m -81,1 h 1 v 1 h -1 z m 79,2 h 1 v 1 h -1 z m -77,1 h 1 v 1 h -1 z m 22,1 h 1 v 1 h -1 z m -49,2 3,7 -3,1 z m 81,2 1,-2 2,1 -1,1 z m -54,0 h 1 v 1 h -1 z m 53,0 h 1 v 1 h -1 z m -54,1 h 1 v 1 h -1 z m 53,0 h 1 v 1 h -1 z m 7,0 h 1 v 1 h -1 z m 13,0 h 1 v 1 h -1 z m -20,2 1,-1 h 2 v 2 l -4,2 z m 5,-1 h 1 v 1 h -1 z m -65,1 h 1 v 1 h -1 z m 64,0 h 1 v 1 h -1 z m -65,1 h 1 v 1 h -1 z m 18,2 3,1 -3,2 z m -17,1 h 1 v 1 h -1 z m -2,3 h 1 v 1 h -1 z m 74,0 h 1 v 1 h -1 z m -79,1 h 1 v 1 h -1 z m 19,0 h 1 v 1 h -1 z m -19,2 3,3 h -4 z m 16,2 h 1 v 1 h -1 z m 6,0 h 1 v 1 h -1 z m 12,2 h 1 v 1 h -1 z m -21,1 h 1 v 1 h -1 z m -10,2 h 1 v 1 h -1 z m 55,0 h 1 v 1 h -1 z m 1,1 h 1 v 1 h -1 z m 3,0 h 1 v 1 h -1 z m 13,0 h 1 v 1 h -1 z m -14,1 h 1 v 1 h -1 z m -57,3 -2,7 -3,-1 z m 68,2 h 1 v 1 h -1 z m -7,3 h 1 v 1 h -1 z m 1,1 h 1 v 1 h -1 z m -56,1 h 1 v 1 h -1 z m 45,2 h 1 v 1 h -1 z m 9,3 h 1 v 1 h -1 z m -15,5 h 1 v 1 h -1 z m -64,1 h 1 v 1 h -1 z m 18,1 h 1 v 1 h -1 z m 44,1 h 1 v 1 h -1 z m -24,6 h 1 v 1 h -1 z m 37,0 h 1 v 1 h -1 z m -1,1 h 1 v 1 h -1 z m -44,1 h 1 v 1 h -1 z m 31,1 h 1 v 1 h -1 z m -36,2 h 1 v 1 h -1 z m 36,3 h -3 l 1,-3 2,2 z m 7,-3 h 1 v 1 h -1 z m -76,1 h 1 v 1 h -1 z m 32,1 h 1 v 1 h -1 z m 23,1 h 1 v 1 h -1 z m -53,2 h 1 v 1 h -1 z m 27,1 h 1 v 1 h -1 z m 52,0 h 1 v 1 h -1 z m -76,3 1,-2 1,2 -2,2 z m 26,-2 h 1 v 1 h -1 z m 11,1 h 1 v 1 h -1 z m -1,3 h 1 v 1 h -1 z m 17,1 h 1 v 1 h -1 z m 20,0 h 1 v 1 h -1 z m -21,1 h 1 v 1 h -1 z m 16,2 h 1 v 1 h -1 z m 0,3 -5,5 -1,-3 5,-3 z m -14,0 h 1 v 1 h -1 z m -34,1 h 1 v 1 h -1 z m 21,0 h 1 v 1 h -1 z m -1,1 h 1 v 1 h -1 z m 2,0 h 1 v 1 h -1 z m -46,5 h 1 v 1 h -1 z m 57,3 h 1 v 1 h -1 z m -5,1 h 1 v 1 h -1 z m 19,0 h 1 v 1 h -1 z m -50,1 h 1 v 1 h -1 z m 23,3 1,-1 h 1 l -1,2 z m 0,1 h 1 v 1 h -1 z m 6,8 h 1 v 1 h -1 z m 6,1 h 1 v 1 h -1 z m 7,0 h 1 v 1 h -1 z m -2,3 h 1 v 1 h -1 z m 0,2 h 1 v 1 h -1 z m -7,1 h 1 v 1 h -1 z m 4,2 h 1 v 1 h -1 z m 35,-111 h 3 -1 -1 z m -39,91 v -1 3 z"
         style="opacity:1;fill:#aa9756"
         transform="matrix(0.26458333,0,0,0.26458333,-74.347922,-118.00417)" />
      <path
         id="Path 8"
         fill-rule="evenodd"
         class="s3"
         d="m 650,917 h 1 v 1 h -1 z m 6,11 3,-4 2,3 -3,3 z m 12,-3 h 1 v 1 h -1 z m 4,1 h 1 v 1 h -1 z m -17,6 h 1 v 1 h -1 z m 13,0 h 1 v 1 h -1 z m 36,9 h 1 v 1 h -1 z m 2,1 h 1 v 1 h -1 z m 6,2 h 1 v 1 h -1 z m -47,2 h 1 v 1 h -1 z m 38,2 v 4 l -2,-1 z m 0,21 -3,3 v 8 l -4,1 -2,-7 h 3 l 7.6,-16 h 0.4 v -0.8 l 2,-4.2 5,2 1,-4 -3,16 -3,2 -1,-5 z m -8,-17 3,5 -1,3 -3,-1 z m 34,0 2,9 -1,-3 -5,3 z m -11,4 v 5 h -3 z m -14,1 h 1 v 0.2 l -0.4,0.8 H 704 Z m -34,1 h 1 v 1 h -1 z m 52,0 h 1 v 1 h -1 z m -53,7 h 1 v 1 h -1 z m 43,1 h 1 v 1 h -1 z m 3,1 3,4 -4,1 z m 17,0 h 1 v 1 h -1 z m -1,1 h 1 v 1 h -1 z m -63,1 h 1 v 1 h -1 z m 37,3 h 1 v 1 h -1 z m 11,4 h 1 v 1 h -1 z m -49,1 h 1 v 1 h -1 z m 50,0 h 1 v 1 h -1 z m -45,2 h 1 v 1 h -1 z m -1,1 h 1 v 1 h -1 z m 18,2 h 1 v 1 h -1 z m -5,5 h 1 v 1 h -1 z m -12,1 h 1 v 1 h -1 z m 32,1 h 1 v 1 h -1 z m -21,2 h 1 v 1 h -1 z m -20,1 h 1 v 1 h -1 z m 28,16 h 1 v 1 h -1 z m 15,1 h 1 v 1 h -1 z m -25,10 h 1 v 1 h -1 z m 6,9 h 4 v 3 z m -8,4 h 1 v 1 h -1 z m 18,0 h 1 v 1 h -1 z m -1,1 h 1 v 1 h -1 z m -23,3 h 1 v 1 h -1 z m 17,17 h 1 v 1 h -1 z m 18,2 h 1 v 1 h -1 z m -25,5 h 1 v 1 h -1 z m -22,4 h 1 v 1 h -1 z m 35,8 h 1 v 1 h -1 z m -1,5 h 1 v 1 h -1 z m 6,3 h 1 v 1 h -1 z m -24,7 h 1 v 1 h -1 z m 2,0 h 1 v 1 h -1 z m 2,2 h 1 v 1 h -1 z m 18,6 h 1 v 1 h -1 z"
         style="opacity:1;fill:#bab379"
         transform="matrix(0.26458333,0,0,0.26458333,-74.347922,-118.00417)" />
      <path
         id="Path 9"
         class="s4"
         d="m 656,917 h 1 v 1 h -1 z m -9,1 h 1 v 1 h -1 z m 11,0 h 1 v 1 h -1 z m 2,1 h 1 v 1 h -1 z m 2,1 h 1 v 1 h -1 z m -16,1 h 1 v 1 h -1 z m 18,0 h 1 v 1 h -1 z m 2,1 h 1 v 1 h -1 z m 2,1 h 1 v 1 h -1 z m 2,1 h 1 v 1 h -1 z m 3,1 h 1 v 1 h -1 z m -29,1 h 1 v 1 h -1 z m 31,0 h 1 v 1 h -1 z m 2,1 h 1 v 1 h -1 z m -34,1 h 1 v 1 h -1 z m 36,0 h 1 v 1 h -1 z m 2,1 h 1 v 1 h -1 z m 2,1 h 1 v 1 h -1 z m -41,1 h 1 v 1 h -1 z m 43,0 h 1 v 1 h -1 z m 2,1 h 1 v 1 h -1 z m -46,1 h 1 v 1 h -1 z m 48,0 h 1 v 1 h -1 z m 3,1 h 1 v 1 h -1 z m 2,1 h 1 v 1 h -1 z m 5,2 h 1 v 1 h -1 z m -60,1 h 1 v 1 h -1 z m 62,0 h 1 v 1 h -1 z m -63,2 h 1 v 1 h -1 z m 68,0 h 1 v 1 h -1 z m 2,1 h 1 v 1 h -1 z m 2,1 h 1 v 1 h -1 z m 3,1 h 1 v 1 h -1 z m 2,1 h 1 v 1 h -1 z m -79,1 h 1 v 1 h -1 z m 82,0 h 1 v 1 h -1 z m 2,1 h 1 v 1 h -1 z m -85,1 h 1 v 1 h -1 z m 90,1 h 1 v 1 h -1 z m 2,1 h 1 v 1 h -1 z m 5,2 h 1 v 1 h -1 z m -99,1 h 1 v 1 h -1 z m 101,0 h 1 v 1 h -1 z m -102,2 h 1 v 1 h -1 z m 107,0 h 1 v 1 h -1 z m 2,1 h 1 v 1 h -1 z m 3,1 h 1 v 1 h -1 z m -113,1 h 1 v 1 h -1 z m 115,0 h 1 v 1 h -1 z m 2,1 h 1 v 1 h -1 z m -118,1 h 1 v 1 h -1 z m 120,0 h 1 v 1 h -1 z m -121,2 h 1 v 1 h -1 z m 126,0 h 1 v 1 h -1 z m 2,1 h 1 v 1 h -1 z m 2,1 h 1 v 1 h -1 z m 2,1 h 1 v 1 h -1 z m -134,2 h 1 v 1 h -1 z m -1,2 h 1 v 1 h -1 z m -2,5 h 1 v 1 h -1 z m -1,2 h 1 v 1 h -1 z m -2,5 h 1 v 1 h -1 z m -1,2 h 1 v 1 h -1 z m -1,2 h 1 v 1 h -1 z m -1,3 h 1 v 1 h -1 z m -1,2 h 1 v 1 h -1 z m -1,2 h 1 v 1 h -1 z m 135,2 h 1 v 1 h -1 z m -136,1 h 1 v 1 h -1 z m 135,0 h 1 v 1 h -1 z m -136,2 h 1 v 1 h -1 z m 134,1 h 1 v 1 h -1 z m -135,1 h 1 v 1 h -1 z m -1,2 h 1 v 1 h -1 z m 134,0 h 1 v 1 h -1 z m -1,1 h 1 v 1 h -1 z m -1,2 h 1 v 1 h -1 z m -1,1 h 1 v 1 h -1 z m -133,1 h 1 v 1 h -1 z m -1,2 h 1 v 1 h -1 z m -1,2 h 1 v 1 h -1 z m -1,2 h 1 v 1 h -1 z m -1,2 h 1 v 1 h -1 z m -1,2 h 1 v 1 h -1 z m -2,4 h 1 v 1 h -1 z m -1,2 h 1 v 1 h -1 z m -1,1 h 1 v 1 h -1 z m -1,2 h 1 v 1 h -1 z m -1,1 h 1 v 1 h -1 z m -1,2 h 1 v 1 h -1 z m -1,1 h 1 v 1 h -1 z m 134,8 v -7 8 z m -135,-6 h 1 v 1 h -1 z m -1,1 h 1 v 1 h -1 z m 134,10 h 1 v 1 h -1 z m -2,3 h 1 v 1 h -1 z m -1,2 h 1 v 1 h -1 z m -1,2 h 1 v 1 h -1 z m -132,3 h 1 v 1 h -1 z m 2,1 h 1 v 1 h -1 z m 5,2 h 1 v 1 h -1 z m 122,0 h 1 v 1 h -1 z m -119,1 h 1 v 1 h -1 z m 5,2 h 1 v 1 h -1 z m 5,2 h 1 v 1 h -1 z m 104,5 h 1 v 1 h -1 z m -88,1 h 1 v 1 h -1 z m 87,1 h 1 v 1 h -1 z m -79,2 h 1 v 1 h -1 z m 10,4 h 1 v 1 h -1 z m 5,2 h 1 v 1 h -1 z m 1,1 h 1 v 1 h -1 z m 2,1 h 1 v 1 h -1 z m 2,1 h 1 v 1 h -1 z m 2,1 h 1 v 1 h -1 z m 2,1 h 1 v 1 h -1 z m 1,1 h 1 v 1 h -1 z m 2,1 h 1 v 1 h -1 z m 2,1 h 1 v 1 h -1 z m 2,1 h 1 v 1 h -1 z m 2,1 h 1 v 1 h -1 z m 2,1 h 1 v 1 h -1 z m 2,1 h 1 v 1 h -1 z m 36,0 h 1 v 1 h -1 z m -1,2 h 1 v 1 h -1 z m -27,2 h 1 v 1 h -1 z m 2,1 h 1 v 1 h -1 z m 23,0 h 1 v 1 h -1 z m -21,1 h 1 v 1 h -1 z m 2,1 h 1 v 1 h -1 z m 5,2 h 1 v 1 h -1 z m 11,0 h 1 v 1 h -1 z"
         style="opacity:0.3;fill:#5e4b26"
         transform="matrix(0.26458333,0,0,0.26458333,-74.347922,-118.00417)" />
      <path
         id="Path 10"
         class="s0"
         d="m 736,985 h 1 v 1 h -1 z m -2,5 h 1 v 1 h -1 z m -96,20 h 1 v 1 h -1 z m 10,39 h 1 v 1 h -1 z"
         style="opacity:1;fill:#7b6125"
         transform="matrix(0.26458333,0,0,0.26458333,-74.347922,-118.00417)" />
      <path
         id="Path 11"
         class="s1"
         d="m 739,989 h 1 v 1 h -1 z m -89,34 h 1 v 1 h -1 z"
         style="opacity:1;fill:#92793a"
         transform="matrix(0.26458333,0,0,0.26458333,-74.347922,-118.00417)" />
      <path
         id="Path 12"
         class="s2"
         d="m 645,1053 h 1 v 1 h -1 z"
         style="opacity:1;fill:#aa9756"
         transform="matrix(0.26458333,0,0,0.26458333,-74.347922,-118.00417)" />
      <path
         id="Path 13"
         class="s3"
         d="m 652,955 h 1 v 1 h -1 z m 35,123 h 1 v 1 h -1 z"
         style="opacity:1;fill:#bab379"
         transform="matrix(0.26458333,0,0,0.26458333,-74.347922,-118.00417)" />
    </g>
  </g>
</svg>
