<?xml version="1.0" encoding="UTF-8" standalone="no"?>
<svg
   version="1.2"
   viewBox="0 0 242.00003 241.99995"
   width="242.00003"
   height="241.99995"
   id="svg1"
   sodipodi:docname="lofty_2.svg"
   inkscape:export-filename="lofty_2_pressed.svg"
   inkscape:export-xdpi="96"
   inkscape:export-ydpi="96"
   xmlns:inkscape="http://www.inkscape.org/namespaces/inkscape"
   xmlns:sodipodi="http://sodipodi.sourceforge.net/DTD/sodipodi-0.dtd"
   xmlns="http://www.w3.org/2000/svg"
   xmlns:svg="http://www.w3.org/2000/svg">
  <defs
     id="defs1" />
  <sodipodi:namedview
     id="namedview1"
     pagecolor="#505050"
     bordercolor="#ffffff"
     borderopacity="1"
     inkscape:showpageshadow="0"
     inkscape:pageopacity="0"
     inkscape:pagecheckerboard="1"
     inkscape:deskcolor="#505050" />
  <title
     id="title1">1884790_BildD_001_ErgaenzungsfutterVitakraftLoftysLoftys100G</title>
  <style
     id="style1">
		.s0 { opacity: 1;fill: #8e7a3c } 
		.s1 { opacity: 1;fill: #a89653 } 
		.s2 { opacity: 1;fill: #b6ae76 } 
		.s3 { opacity: 1;fill: #7e6527 } 
		.s4 { opacity: 1;fill: #604818 } 
	</style>
  <g
     id="Layer 3"
     transform="matrix(3.7812507,0,0,3.7812492,-2389.7505,-1262.9372)">
    <ellipse
       style="fill:#9a6436;fill-opacity:1;stroke:#9a6436;stroke-width:2.20537;stroke-linecap:round;stroke-linejoin:round;stroke-opacity:1"
       id="path1"
       cx="664"
       cy="366"
       rx="30.897312"
       ry="30.897316" />
    <g
       id="g1"
       inkscape:label="loftys"
       transform="matrix(0.15843082,0,0,0.15843082,544.78081,293.99319)">
      <path
         id="Path 0"
         fill-rule="evenodd"
         class="s0"
         d="m 672,324 h 1 v 1 h -1 z m 6,1 h 1 v 1 h -1 z m 3,0 h 1 v 1 h -1 z m 2,1 h 1 v 1 h -1 z m 7,3 v -1 h 2 v 1 z m -20,1 v -1 l 5,9 3,-2 -1,4 4,-3 v 6 l 5,-5 v 8 l -5,2 v 3 l 2,-1 1,4 3,-4 6,-4 v 5 l -4,4 7,-3 1,11 -6,8 3,-1 v 4 l 2,-4 7,3 -2,18 4,-8 2,5 3,-2 1,2 v 1 l -1,1 h -1 v 2 l -1,1 -1,2 v 2 l -1,3 -4,-1 1,-2 h -3 l -1,4 3,-2 4,3 1,-1 h 4 l -2,9 3,-2 h 2 l 1,2 h 2 v 1 l 3,-2 3,2 v -4 h 1 l 1,2 1,1 v 3 l -1,3 2,-1 h 2 v 11 l 1,-2 2,-7 v -2 l 1,-1 2,3 v 1 l -2,4 v 1 l -4,7 -1,1 v 1 l 2,1 1,-3 2,2 -1,3 -6,-2 2,-16 -6,4 -1,-2 -2,4 1,2 v 2 l -3,1 -1,1 -2,3 v 2 l -1,1 v -7 l -2,3 h -3 v -1 h 2 l -2,-1 v -1 h 1 l 2,-2 -3,-2 1,-3 v -2 l -4,-6 -1,5 3,2 v 1 l -1,7 v 2 l -1,2 3,-1 -1,5 v 4 l 1,1 -2,7 -5,2 -2,-1 4,-3 v -8 h -3 l 1,5 h -5 l 2,-6 -5,2 v 3 l -2,-2 -1,3 1,2 h 1 l 1,-3 3,1 1,4 -7,3 -1,5 -2,-2 v -1 l 2,-6 h -4 l 1,-4 1,3 v -4 l -3,-9 -4,4 -4,-6 v -2 l -1,2 -5,5 2,5 h -3 l -1,-2 -2,3 v -3 l 1,-6 3,2 v -6 l 7,-10 5,4 h 2 l 5,-9 -2,-2 -2,3 1,-5 h 3 v -3 l -3,3 h -3 l 1,-6 h -3 v -3 l -2,1 2,-8 h -4 l 1,4 -4,2 v 4 l 4,5 1,-7 2,2 -2,12 -3,3 -3,-2 -2,-5 2,3 2,-5 h -5 v -3 h 4 l -3,-2 1,-8 -3,2 2,-6 2,-2 -4,-1 1,-6 2,-1 -2,-1 2,-6 -6,4 2,-3 -4,-1 v -3 l 4,-2 -4,-3 -3,4 1,-4 5,-2 -1,-11 4,2 -2,6 2,3 5,2 -2,-4 1,-7 4,-3 -1,-4 -2,4 -4,-4 -5,3 4,-9 -1,-8 v -3 l 2,1 z m 35,104 -4,-5 1,-1 h -1 v -10 l 1,-1 -1,-8 v -1 l 1,-1 -1,-2 v -2 h -2 l -2,-2 v -2 h -4 v 3 h 4 l 2,1 v 1 l 1,3 1,2 -3,2 v 3 l -3,4 h -1 l -1,1 h 2 l 3,2 2,6 -5,5 4,-1 1,4 z m -3,-102 h 1 v 1 h -1 z m 11,3 h 1 v 1 h -1 z m 8,2 v -1 h 3 v 1 z m 10,2 h 1 v 1 h -1 z m 12,4 h 1 v 1 h -1 z m 4,1 h 1 v 1 h -1 z m 2,0 h 1 v 1 h -1 z m -49,3 -2,4 v -4 z m 78,12 4,1 -1,2 -3,-2 z m -6,1 v -1 h 1 z m 6,7 2,-2 h 1 z m 6,1 4,-1 -1,2 -2,2 h -1 z m -8,3 2,-2 h 2 l 1,6 -1,-4 -4,2 z m 7,7 1,-6 v 6 z m -1,1 h 1 v 1 h -1 z m -3,8 2,-2 v 2 z m -65,3 2,-2 1,4 -2,5 -2,-4 z m 64,1 v -3 h 1 v 3 z m -7,3 h 5 v -3 h 2 l 1,2 v 2 h -1 v 2 h -1 l -3,-1 v 3 l -3,-1 z m 8,-2 h 1 v 1 h -1 z m -70,6 v -3 h 1 z m 11,1 5,-3 1,4 9,1 -3,1 h -2 v 1 l -1,1 h -1 l -5,-2 -4,-2 z m 17,-3 h 1 v 1 h -1 z m -2,5 4,-2 2,3 -6,4 -2,1 -2,-1 -1,4 v -5 l 2,-2 z m 39,-2 h 1 v 1 h -1 z m -61,4 v -1 l 1,3 z m 55,1 2,-1 -1,5 h -1 l -1,5 -3,-1 1,-3 v -4 h 2 z m -53,0 h 1 v 1 h -1 z m 54,4 4,-4 v 5 l -1,3 v 1 l -1,3 v 1 l -2,2 v 1 l -1,1 v 1 l -2,3 -1,1 h -1 l -1,-1 -2,-5 h 1 l 4,2 -1,-5 2,-4 z m -52,-2 v -1 h 1 l -1,4 -3,-1 v -1 h 2 z m -3,-1 h 1 v 1 h -1 z m 19,3 2,-2 2,5 -4,-2 v 5 h -2 z m -6,-1 h 1 v 1 h -1 z m -1,2 h 1 v 1 h -1 z m 3,6 v -2 l 1,2 z m 31,-1 h 1 v 1 h -1 z m 29,8 7,-4 1,3 -18,10 9,1 -4,5 -4,1 4,2 -3,1 -4,-7 -6,4 h 7 l -2,3 v 1 l -2,1 h -1 l -3,-1 v 3 l 3,2 -5,7 4,1 -2,3 h 7 l -1,4 -1,3 -1,-2 -4,2 5,7 -8,4 -3,-2 1,4 h 5 l -9,8 9,-1 -4,4 5,1 v 2 l -1,3 -4,3 h -1 l -8,-2 -1,4 5,-1 1,3 2,-2 v 1 l 2,1 h 1 l 2,2 h 1 l 11,-1 -2,5 4,-1 -3,4 -2,3 -2,1 -4,4 v 4 l -1,1 -3,-6 h -1 l -4,3 h 4 l -1,2 v 5 l -1,1 v 1 l 2,2 v 2 h -2 l -3,-3 v 2 l -1,-2 h -3 l 6,-5 v -3 h -3 l -11,9 1,-5 -3,2 -2,-3 9,-7 v -3 l -2,1 -1,-2 -11,4 3,-7 -5,5 -4,-1 3,-7 -5,-3 -15,4 v -8 l -9,7 3,-9 -11,10 -2,-5 3,-1 1,-8 -6,1 -1,-4 v -1 l 1,-1 v -1 l 1,-1 v -1 l 7,-7 h 1 l 1,-1 h 1 l 1,1 2,-2 h 1 l 1,-2 2,-2 h 1 l 2,-1 h 1 l 1,-1 4,-1 1,-1 2,-1 1,-1 4,-1 v -4 l 4,-4 h 7 l 1,-4 3,7 5,-5 4,2 -1,-4 5,-1 h -5 l -1,-3 -2,2 v -3 l 2,-3 6,-4 2,-2 h 1 l 1,-1 h 1 l 1,-1 v -1 h 1 l 3,-3 v -1 l 1,-1 4,-3 1,-1 2,-1 1,-1 h 1 l 2,-1 3,-3 h 1 l 1,-1 h 1 z m 10,-1 2,-2 3,3 -2,1 h 2 l 6,6 1,2 -2,2 -10,-6 z m -2,2 v -2 h 2 z m -53,0 v -1 h 4 l 2,7 h -3 z m 11,4 -1,-3 7,1 v 2 l 1,2 -1,2 -2,3 -4,1 z m -21,1 1,-3 1,1 3,6 -4,2 h 4 v 1 l -2,2 2,1 h -3 l -3,-6 z m -27,0 1,-1 v 1 z m 55,0 1,-1 h 1 l -2,2 z m -18,4 5,-1 v 1 l -1,1 v 2 l -1,1 v 2 l -1,1 -4,1 1,-2 -3,-1 v -1 l 1,-1 v -1 l 3,-1 z m -32,5 -4,1 3,-6 1,3 h 1 v 1 h -1 z m 4,-3 1,-2 h 2 v 2 l -1,1 z m 46,-2 1,2 -1,1 -2,-1 z m 55,6 -5,1 3,-4 2,2 z m -66,3 2,-4 1,3 -1,2 -1,1 -1,-1 z m 33,-1 v -3 l 2,3 z m -43,0 -2,-2 h 1 z m 78,2 v -2 l 1,1 v 1 z m 0.3,9.5 8.7,2.5 1,5 -3,3 1,-4 -3,-1 h -1 l -5,2 4,-3 z m 0,0 -5.3,-1.5 0.1,-0.2 4.9,1.2 z m -8.3,-2.5 1,-8 3,1 h 4 l -4.9,7.7 z m -65,-7 h 1 v 1 h -1 z m 5,2 h -2 l 2,-2 z m 71,-1 -2,-1 h 1 z m -77,0 h 1 v 1 h -1 z m -74,4 v -1 l 2,1 z m 153,0 v -1 l 1,1 z m -147,4 4,-3 1,3 -2,2 h -1 z m 148,-2 1,-1 1,1 v 1 z m 4,2 -2,-1 h 1 z m -147,2 v -2 h 1 v 2 z m 68,1 -2,1 1,-2 z m -58,2 1,-2 1,2 z m -13,-1 1,3 h -1 z m 153,2 h 1 v 1 h -1 z m -141,3 h 1 v 1 h -1 z m 140,2 1,-2 h 4 v 2 h 0.5 l 0.5,1 1,0.5 v 0.5 h 2 v 3 l 2,1 v 1 l -10,-1 3,-3 -6,-1 z m -55,0 3,-1 -1,4 z m 60.5,0 -0.5,-1 h 1 v 1 z m 0.5,0 h 1 v 1 h -1 z m 2,2 -1,-0.5 V 463 h 1 z m -11,2 h -3 l 3,-2 z m 15,5 -1,-2 h 1 z m 5,2 -3,-1 h 3 z m -1,3 2,-2 h 1 v 2 l 3,3 h 1 l 1,1 -1,1 -2,1 -5,-5 z m 7,7 v -2 h 1 z m -2,1 v -1 h 2 z m -42,8 2,-1 -1,3 -2,1 1,-2 z m -116,6 v -1 h 3 v 2 l 4,-1 -1,5 -3,1 -1,-4 -4,5 v -4 l 1,-1 v -1 z m 183,7 -1,-2 1,1 z m 0,0 h 1 v 1 h -1 z m -69,10 2,-1 h 1 v 1 z m 49,0 h 1 v 1 h -1 z m -49,2 v -1 l 2,1 z m 6,2 -1,-2 h 1 z m 42,-1 v -1 l 3,1 z m -1,3 1,-3 v 2 z m -2,1 -1,-1 2,1 z m -4,2 1,-2 v 2 z m -61,0 h 3 l -2,2 z m -12,3 h 1 v 7 l -1,2 h -1 v 1 h -2 v -1 l -1,-1 2,-2 v -1 h 1 z m -9,3 v -2 h 1 v 2 z m 4,0 1,-2 h 2 l -2,4 -2,1 h -2 v -1 l 1,-1 h 1 z m -2,-1 h 1 v 1 h -1 z m 73,0 h 1 v 1 h -1 z m -8,4 2,-2 -1,2 z m 5,-2 h 1 v 1 h -1 z m -75,6 1,-2 h 1 l 1,4 v 1 h -1 z m 7,-2 h 1 v 1 h -1 z m -9,4 -1,-2 h 3 l -1,2 z m -43,0 v -1 l 4,1 -2,2 z m 46,3 -3,-2 h 1 l 2,1 z m -6,10 5,-2 1,-8 h 1 l 1,1 v 1 l 1,1 1,4 4,-2 -1,2 -3,3 h -1 v -1 l -1,-4 -2,3 2,1 v 1 l -3,4 -1,1 -4,3 -1,2 h -1 l -4,2 2,4 h -1 l -2,4 h -1 l -1,-1 h -1 l 2,-4 -2,-2 4,-8 7,-1 z m 62,-10 h 1 v 1 h -1 z m -53,1 h 1 v 2 h -1 z m 51,0 h 1 v 1 h -1 z m -2,2 v -1 h 2 z m -92,1 v -1 h 2 v 1 l -1,1 z m 28,11 -5,-3 4,-1 3,-8 1,3 z m 45,-10 2,-2 1,1 v 1 h -1 l -1,1 h -1 z m -31,5 h 1 v 1 h -1 z m 37,0 h 1 v 1 h -1 z m 2,0 h 1 v 1 h -1 z m -38,5 h -2 l 2,-3 z m 1,-2 v -1 l 2,2 h -1 z m 33,0 v -1 h 1 l 1,1 z m -2,1 1,-1 h 1 v 1 l -1,1 h -1 z m -31,7 v -5 h 1 l 2,1 -1,1 -1,2 1,1 v 1 l -1,2 h -2 z m -6,-2 v -2 h 1 l 1,2 z m 32,-2 h 1 v 2 h -1 z m -8,1 1,2 h -1 z m 6,0 h 1 v 1 h -1 z m -2,3 2,-2 v 2 z m -8,-1 h 1 v 1 h -1 z m -5,1 h 1 v 1 h -1 z m 11,1 h 1 v 1 h -1 z m -47,1 h 1 v 1 h -1 z m 24,0 h 1 v 1 h -1 z m 4,1 h 1 v 1 h -1 z m 9,2 v -1 h 1 l 1,1 v 1 l -1,1 h -3 v -1 h 1 z m -18,1 h 1 v 1 h -1 z m 4,3 v -2 h 1 l 1,1 -1,1 z m -3,-1 h 1 v 1 h -1 z m 9,0 h 1 v 1 h -1 z m 1,1 1,-1 h 1 l 1,2 h -3 z m -8,2 v -2 h 1 v 2 z m -14,0 1,-1 h 2 v 2 h -2 z m 12,0 h 1 v 1 h -1 z m 13,2 h 1 v 1 h -1 z m -21,1 h 1 v 1 h -1 z m 2,1 h 1 v 2 l -1,1 z" />
      <path
         id="Path 1"
         fill-rule="evenodd"
         class="s1"
         d="m 673,324 h 1 v 1 h -1 z m 4,1 h 1 v 1 h -1 z m 2,1 v -1 h 2 v 1 z m -9,3 1,-3 h 1 l 3,4 4,-3 3,2 -1,7 7,-4 -1,16 5,-5 h 4 l -1,4 h 3 v 4 l 2,-4 h 1 l 2,5 1,-15 5,-1 -4,7 -1,18 5,-2 -2,-3 3,-7 2,2 -3,4 7,2 1,8 -3,1 1,7 -3,5 9,-8 v -11 l 5,3 -2,4 4,-3 -1,-5 5,-2 -3,13 8,4 2,5 -3,1 v 9 l 3,-3 2,4 -2,4 -3,-4 -1,2 1,1 -2,4 h 3 l 1,1 1,2 -4,2 -9,-1 -1,-4 -5,3 -1,-2 -1,3 -3,4 v 1 h -1 l -1,-3 v 1 l 1,2 v 3 h -2 l -3,2 2,-9 h -4 l -1,1 -4,-3 4,1 1,-3 2,-2 v 3 l 1,-3 h 1 l 2,-2 2,4 2,-5 -1,-4 -2,2 v -3 l -3,1 -1,-2 -3,2 -2,-5 -4,8 2,-18 -7,-3 -2,4 v -4 l -3,1 6,-8 -1,-11 -7,3 4,-4 v -5 l -6,4 -3,4 -1,-4 -2,1 v -3 l 5,-2 v -8 l -5,5 v -6 l -4,3 1,-4 -3,2 z m 12,-3 h 1 v 1 h -1 z m 7,2 h 1 v 1 h -1 z m 9,2 h 1 v 1 h -1 z m 5,3 v -1 h 2 v 1 z m 4,0 h 1 v 1 h -1 z m 13,3 h 1 v 1 h -1 z m 20,6 -2,-1 h 2 z m 2,1 h 1 v 1 h -1 z m 4,1 h 1 v 1 h -1 z m 2,0 h 1 v 1 h -1 z m 7,1 -4,-1 h 4 z m -55,1 2,-1 -1,2 z m -2,1 2,-1 v 1 z m 74,12 2,-8 3,1 v 4 l -3,3 1,8 3,-7 3,2 1,-2 -4,-1 2,-7 3,2 4,-2 v 1 l 1,-1 4,2 -1,1 -3,9 -3,-3 3,-2 -5,-1 2,3 -1,3 4,1 v 2 l -4,1 v 4 l -1,6 v 1 h -1 v 2 l -1,1 v 3 l -2,2 v 1 h -1 l -3,-1 v -8 h 1 l 2,-1 -2,-5 4,-2 1,4 -1,-6 -2,-1 v 1 l -2,2 -4,1 -2,-5 2,-3 v -4 l 1,-1 z m 9,6 v -2 l -1,2 -2,2 z m -42,-4 3,-3 v 5 l 6,5 -2,7 3,-8 3,2 -1,4 4,-3 1,3 -6,3 -4,11 -2,14 3,-1 3,-5 v 6 h 3 l -5,3 v 6 l 5,1 -4,4 1,8 3,-3 -1,-6 3,6 3,-3 -3,-4 5,-5 -4,-5 1,-6 2,4 6,4 v 4 l -1,3 -2,1 -1,1 h -1 v 3 l 1,3 2,5 h -2 l -7,-1 1,3 v 1 l -2,2 v 1 h -4 l -5,1 -1,-2 -2,2 3,1 -3,1 -2,-2 -3,-6 6,-1 3,3 -1,-5 3,6 h 3 l -2,-7 h -4 l 1,-6 -3,-2 v 9 l -4,2 -1,-2 v -1 l 2,-4 -4,-1 -2,-3 v -5 l 4,2 -2,-5 6,-4 -2,-3 7,-17 -8,-7 z m 32,33 -2,-5 7,2 v 3 z m 5,-3 2,-3 v 3 z m -67,1 v -2 h 1 z m 70,1 -1,-2 h 1 z m -11,11 3,-6 3,1 v 2 l -1,1 v 2 l -4,4 1,-5 z m -72,-2 h -3 v -3 h 3 z m -17,-1 2,-1 v 3 z m 39,1 v -2 h 1 l 4,2 -4,1 z m -21,0 v -1 l 2,2 z m 35,0 3,-1 -3,2 z m -8,4 -1,-4 5,2 v 3 h -1 v 2 h -1 v 1 h -1 v -1 l -1,-2 z m -25,-2 v -1 h 2 v 1 z m 1,3 -1,-3 1,2 z m 18,-2 1,-1 1.9,5.6 -0.9,-0.6 -3,2 v -2 z m 2.9,4.6 0.3,0.2 -0.2,0.2 z M 723,407 v 4 l -1.8,-1.2 z m 7,-3 h 1 v 1 h -1 z m -30,2 1,-1 1,2 h -1 z m 30,4 1,-4 2,1 v 1 l -2,6 -1,1 -1,-2 v -1 z m -43,-2 1,-1 v 2 h -1 z m 14,1 -1,-2 h 1 z m 66,4 1,-5 h 1 z m -69,-2 3,-2 1,8 -2,-2 1,4 v 9 l -2,2 v 1 l -4,1 5,-5 -2,-6 -3,-2 v -1 l 3,-4 z m 9,9 -3,-2 1,-5 4,6 z m 18,-4 1,-3 1,2 z m 7,-2 h 1 v 1 h -1 z m -3,1 h 1 v 1 h -1 z m 0,3 3,-2 v 1 l -2,7 -1,-1 z m 6,0 v 2 h -1 z m 62,3 -1,-3 h 4 l 1,1 -2,2 z m -64,1 1,-2 h 1 l 2,2 v 1 l -2,1 z m -27,6 1,-7 h 2 l -1,3 3,2 -2,2 -1,-1 -1,1 z m 78,9 4,-5 -9,-1 18,-10 v 2 l 2,-2 v 6 l 10,6 h 1 l 1,1 v 3 l -1,2 2,2 -1,8 8,2 3,5 -4,3 5,-2 h 1 l 3,1 -1,4 3,-3 h 1 l 2,1 -1,2 -2,2 h -1 l -3,2 h 4 l 2,2 h 1 l 10,1 1,2 2,1 3,1 h 1 v 1 l -2,2 v 1 l 5,5 v 2 l 2,-1 1,-2 h 1 v 1 l 2,9 -6,2 2,6 -6,-3 -3,4 2,4 -3,2 -4,-6 -2,1 -1,-3 6,1 2,-4 5,-1 -4,-5 1,-5 -9,-3 v -1 l -1,1 2,8 h 4 l -2,6 h -3 v -5 l -6,-1 1,-7 -5,3 v -4 l 11,-6 -5,-1 -1,-4 -5,2 1,3 -5,-2 3,7 -6,1 2,-4 -6,4 h -3 l -1,-4 -5,2 -3,8 10,3 -2,9 -6,1 2,-5 2,-1 1,-3 -3,-1 1,2 v 1 l -1,2 -6,4 1,4 -3,-1 2,6 7,6 -2,1 v 2 l -2,-2 -4,5 -3,-1 2,-6 -2,-1 -5,3 -2,9 h -4 v -7 l 5,-1 2,-4 -3,-2 -3,5 -4,-1 -1,6 -6,-2 5,-1 v -3 h -5 l 2,-3 3,-4 -4,1 2,-5 -11,1 v -2 l -1,2 -2,-2 1,-3 -2,-1 4,-3 1,-3 h 2 v -1 l 5,-4 -7,3 -5,-1 4,-4 -9,1 9,-8 h -5 l -1,-4 3,2 8,-4 -5,-7 4,-2 1,2 1,-3 2,3 1,-4 -3,1 1,-4 h -7 l 2,-3 -4,-1 5,-7 -3,-2 v -3 l 3,1 h 1 l 2,-1 v -1 l 2,-3 h -7 l 6,-4 4,7 3,-1 h 2 z m -55,-7 4,-7 2,1 v 1 l -1,3 -1,4 -2,-2 -1,3 z m 1,-6 -1,2 v -2 z m 33,3 v -2 l 1,1 v 1 z m -1,2 -1,-2 1,1 z m -55,-1 h 1 v 3 l -3,1 z m 4,3 2,-3 v 7 h -1 l -1,-3 z m 48,3 2,-3 v 1 l -1,2 z m -20,0 h -4 l 4,-2 z m 22,-2 h 1 v 1 h -1 z m -22,6 -2,-1 2,-2 1,1 v 2 z m -49,5 1,-3 2,2 -1,3 h -1 z m -3,-1 v 3 l -1,-3 z m 137,5 h 1 v 1 h -1 z m 1,1 h 1 v 1 h -1 z m -145,5 2,-2 v 3 h -1 z m 157,10 -1,-2 1,1 z m 2,1 -2,-1 h 1 z m 3,4 -2,-1 h 2 z m 8,8 h 1 v 1 h -1 z m 1,1 h 1 v 1 h -1 z m 1,1 h 1 v 1 h -1 z m -143,2 h 1 v 1 h -1 z m 150,5 h 1 v 1 h -1 z m 4,3 -1,5 -5,2 3,-9 z m -107,12 1,-4 8,2 v 1 l -3,3 -1,-3 z m 10,2 -2,-1 h 2 z m 72,4 -8,9 -2,-3 3,-2 -4,1 11,-10 z m -27,9 v -1 l 2,1 z m 3,4 -6,1 v -3 h 5 z m 0,0 v -2 h 1 z m 42,1 v -2 h 1 v 2 z m -87,0 2,4 -3,3 v 1 h -2 v -4 h 3 z m 62,14 v -7 l 4,-5 -3,8 4,1 -3,3 z m -50,-2 7,-8 1,2 v 6 l -3,-2 z m -11,-5 3,1 h -1 l -2,1 z m 7,0 3,-1 1,6 -4,2 z m -3,1 2,-1 -1,5 h -3 z m -7,4 -2,-2 h 3 v 1 z m 3,-2 h 1 v 1 h -1 z m 68,2 1,-1 v 1 z m -70,-1 h 1 v 1 h -1 z m -1,3 v -2 h 1 v 1 z m 3,-1 2,-1 2,1 -2,2 h -1 z m -5,1 h 1 v 1 h -1 z m 62,4 -1,-4 3,2 z m -52,-2 h 1 v 1 h -1 z m -13,3 h 1 v 1 h -1 z m 4,1 h 1 v 1 h -1 z m -1,1 h 1 v 1 h -1 z m 4,2 5,-2 v 2 l -5,1 z m 53,-1 2,-1 -1,1 z m -55,1 h 1 v 1 h -1 z m 49,1 h 1 v 1 h -1 z m -43,3 -4,2 -1,-4 h 4 z m 27,0 h 1 v 1 h -1 z m 2,6 -1,-5 4,2 v 1 h -1 l -1,1 v 1 z m 4,-3 1,1 h -1 z m -39,1 h 1 v 1 h -1 z m 38,0 h 1 v 2 h -1 z m 2,0 h 1 v 1 h -1 z m -43,5 3,-4 1,1 v 1 l -2,3 h 2 l 1,1 v 5 h -1 l -3,-2 -1,-2 z m 39,-2 v -1 h 2 v 1 l -1,1 z m -35,0 h 1 v 1 h -1 z m 34,1 h 1 v 1 h -1 z m -34,2 v -1 h 3 l 1,3 z m -9,3 4,-3 v 4 l -5,1 1,-2 1,1 v -1 z m 11,2 1,-2 v 2 z m 5,-1 v 0.2 l -1,-0.2 z m 4,1 v 1 h -2 l -1,1 h -2 l -1,1 -2,1 h -1 l 1,-2 v -2 l 3,-1 1,1 v -0.8 z m 9,3 -3,-4 h 1 l 1,1 h 1 l 1,2 z m -33,3 -2,-4 4,-2 h 1 l 1,7 z m 28,-5 h 1 v 1 h -1 z m -20,4 3,-2 1,1 h 3 v 1 l -2,1 h -2 v 2 h -2 l -1,1 h -1 v -2 l 1,-1 z m 25,-2 h 1 v 1 h -1 z m -7,1 h 1 v 1 h -1 z m -1,1 h 1 v 1 h -1 z m -27,3 1,-2 h 1 z m -1,2 1,-2 1,3 4,-2 2,2 v 1 h -4 l 4,1 -3,5 v -2 l -1,-1 h -2 v -2 h -1 v -2 z m 23,-1 1,-1 h 4 l 1,1 v 1 l -1,1 h -1 l -2,-1 1,2 -2,2 h -1 l -3,-3 h 3 l -1,-2 z m -9,1 1,-1 v 2 z m -15,0 h 1 v 1 h -1 z m 20,0 h 1 v 1 h -1 z m -21,1 h 1 v 1 h -1 z m 11,1 h 1 v 1 h -1 z m 2,1 v -1 h 2 z m -12,1 h 1 v 1 h -1 z m 2,2 1,-1 1,1 v 2 z" />
      <path
         id="Path 2"
         fill-rule="evenodd"
         class="s2"
         d="m 672,326 v -1 h 5 l 1,1 h 4 l 1,1 h 2 l 2,2 h 9 l 2,1 1,1 h 2 l 2,2 h 4 l 1,1 h 3 l 1,1 h 1 l 1,1 h 6 l 1,1 h 6 l 1,1 h 1 l 2,1 1,1 h 2 l 3,1 h 1 l 2,1 h 1 l 2,2 h 3 l 1,1 h 2 l 1,-1 h 1 l 4,1 h 1 l 5,1 h 2 l 2,1 h 4 l 18,4 v 1 l -4,2 -3,-2 -2,7 v 1 l -3,7 -1,-8 3,-3 v -4 l -3,-1 -2,8 v 5 l -2,3 2,5 4,-1 v 2 l 2,5 -2,1 h -1 v 8 l 3,1 -2,3 -7,-2 2,5 v 4 l -3,6 -1,1 h -2 l -6,-4 -2,-4 -1,6 4,5 -5,5 3,4 -3,3 -3,-6 1,6 -3,3 -1,-8 4,-4 -5,-1 v -6 l 5,-3 h -3 v -6 l -3,5 -3,1 2,-14 4,-11 6,-3 -1,-3 -4,3 1,-4 -3,-2 -3,8 2,-7 -6,-5 v -5 l -3,3 -1,14 8,7 -7,17 -1,-2 v -1 h -4 l 2,-4 -1,-1 1,-2 3,4 2,-4 -2,-4 -3,3 v -9 l 3,-1 -2,-5 -8,-4 3,-13 -5,2 1,5 -4,3 2,-4 -5,-3 v 11 l -9,8 3,-5 -1,-7 3,-1 -1,-8 -7,-2 3,-4 -2,-2 -3,7 2,3 -5,2 1,-18 4,-7 -5,1 -1,15 -2,-5 1,-2 -4,2 h -3 l 1,-4 h -4 l -5,5 1,-16 -7,4 1,-7 -3,-2 -4,3 z m 115,26 h 1 v 1 h -1 z m -2,9 -2,-3 5,1 z m 3,4 -4,-1 1,-3 3,3 z m -8,0 1,-2 v 2 z m -2,4 v -1 l 2,1 z m -67,19 3,-1 v 3 l -1,3 -2,2 h -2 l -2,2 v -2 l 1,-2 1,-1 1,-2 1,-1 z m 7,12 1,-3 1,2 -1,1 z m -22,2 v -3 h 1 v 3 z m 19,2 3,-4 v 2 l -2,2 z m 4,-1 4,-1 1,4 -1,1 -2,3 -2,-6 z m 11,-1 h 2 v 1 l -1,1 h -1 z m -30,4 -1,-2 h 2 v 1 z m 28,0 v -2 h 2 v 1 l -1,1 z m -40,1 1,-1 v 3 h -1 z m 13,0 h 1 v 1 h -1 z m 30,7 h 1 v 2 l -3,2 v -2 z m 6,9 1,2 4,-2 v -9 l 3,2 -1,6 v 1 l 1,5 -3,-3 -6,1 -1,-1 v -1 z m -36,-4 -1,-4 2,2 -1,1 z m 34,-2 4,1 -2,4 -2,-2 z m -28,3 2,-1 v 2 h -2 z m 26,3 v -1 l 2,2 z m 28,4 v -2 h 2 v 2 l -1,1 z m -55,1 h 1 l -1,2 z m 22,3 1,-1 1,3 -2,-1 z m 16,2 -3,-1 2,-2 1,2 z m -5,-1 2,2 v 1 l -1,1 -1,-1 z m 21,2 1,-2 v 1 z m -20,4 v -1 l 3,1 -1,2 h -1 z m 88,34 5,-2 1,4 5,1 -11,6 v 4 l 5,-3 -1,7 6,1 v 5 h 3 l 2,-6 h -4 l -2,-8 h 1 l 9,3 -1,5 4,5 -5,1 -2,4 -6,-1 1,3 -11,10 4,-1 -3,2 2,3 8,-9 v -5 l 2,-1 4,6 3,-2 -2,-4 3,-4 6,3 -2,-6 6,-2 -2,-9 h 1 l 2,2 v 1 l 1,1 -3,9 5,-2 1,-5 3,4 2,2 8,9 1,2 v 1 l -4,4 h -1 l -6,6 h -1 l -3,3 -2,-1 v -2 h -1 l -1,-1 h -1 l -2,2 h -1 l -1,1 v 1 l -3,3 -1,2 v 1 l -2,2 h -1 l -2,2 h -2 l -1,1 v 1 h -2 l -2,2 h -2 l 1,-2 -4,-1 3,-8 -4,5 v 7 l -2,2 -3,-2 1,4 -3,3 -2,1 h -1 l -1,1 h -1 l -1,1 h -2 v 1 l -4,4 -2,1 -1,1 h -2 l -1,-1 h -1 l -4,-2 v -2 l 1,-1 -1,-1 -3,3 v 1 h 3 l 1,5 -1,1 v 1 l -1,1 h -1 v 2 l -2,2 h -1 v -1 h -2 l -1,1 v 1 l -3,3 h -1 l -2,-4 -1,1 h -1 l -2,-1 -1,-1 -3,3 -5,-1 -3,1 v -2 l 1,-1 -1,-3 -2,-2 h -1 v -2 h 1 l 3,-3 1,-2 -1,-2 h -3 v -1 l 5,-1 v -2 l -5,2 h -2 l -1,-1 v -1 l 1,-1 v -1 l -1,-4 v -1 h 1 l 1,-1 h 2 l 1,2 h -1 v 1 h 3 v 1 h 2 l 1,-1 1,-2 4,-2 5,-2 3,2 v -6 l 2,-2 h 1 l 2,-9 5,-3 2,1 -2,6 3,1 4,-5 2,2 v 3 l 6,-1 1,-2 v -1 l -1,-1 h -1 l -2,-1 h -1 l -7,-6 -2,-6 3,1 -1,-4 6,-4 -2,5 6,-1 2,-9 -10,-3 3,-8 5,-2 1,4 h 3 l 6,-4 -2,4 6,-1 -3,-7 5,2 z m -120,8 h 1 v 1 h -1 z m 63,10 7,-3 -5,4 v 1 h -2 z m 39,2 -1,-2 3,1 z m -45,6 h 1 l 2,1 -1,3 h -1 v -1 l -1,-1 z m -1,2 h 1 v 1 h -1 z m 5,4 1,-2 v 2 z m 20,11 3,-5 3,2 -2,4 -5,1 v 7 l -7,8 -1,-6 -3,1 h -1 l -2,1 h -1 l -3,-1 -1,-1 3,-3 v -4 l 4,-4 2,-1 h 5 v 3 l -5,1 6,2 1,-6 z m 68,3 h 1 v 1 h -1 z m -91,5 1,-2 h 2 v 3 h -3 z m -1,6 1,-1 h 1 v 2 h -2 z m 5,0 2,-1 -1,2 h -1 z m -2,2 v -1 h 2 v 1 z m 6,2 -2,-1 h 2 z m -11,6 1,-2 2,3 v 1 h -1 l -2,-1 z m 43,12 h 1 v 1 h -1 z m -43,6 1,-1 v 3 h -1 z m 6,1 -1,-1 2,1 z m -10,2 h 1 v 1 h -1 z m -1,2 5,-1 h 2 l 3,2 -1,1 v 1 h -1 l -3,2 -2,2 v 1 h 1 v 2 l -1,1 h -1 l -2,-2 -4,2 -1,-3 2,-2 4,1 z m 26,-1 h 1 l 3,4 v 1 h -1 l -1,1 v 1 l -3,3 h -2 l -1,-1 1,-1 v -2 l 2,-2 v -1 l 1,-1 z m -35,12 v -2 h 1 v 3 z m 21,-2 h 1 v 1 l 4,4 -3,3 -1,-1 -2,2 -2,1 -1,1 -3,1 -2,1 v 1 h -3 l -2,-4 1,-1 3,-5 -4,-1 h 5 l 1,1 h 1 l 2,-1 v -2 h 1 l 1,1 h 1 z m 8,3 -1,-2 2,1 z m -26,2 1,-1 h 1 v 2 l -1,1 -1,-1 z m 3,1 h 1 v 2 h -1 z m 19,0 h 1 v 1 h -1 z m -19,3 h 1 v 1 h -1 z" />
      <path
         id="Path 3"
         fill-rule="evenodd"
         class="s3"
         d="m 679,325 v -1 l 2,1 z m -10,7 1,-2 1,3 z m -22,72 8,-11 3,-21 11,-37 1,8 -4,9 5,-3 4,4 2,-4 1,4 -4,3 -1,7 2,4 -5,-2 -2,-3 2,-6 -4,-2 1,11 -5,2 -1,4 3,-4 4,3 -4,2 v 3 l 4,1 -2,3 6,-4 -2,6 2,1 -2,1 -1,6 4,1 -2,2 -2,6 3,-2 -1,8 3,2 h -4 v 3 h 5 l -2,5 -2,-3 2,5 3,2 3,-3 2,-12 h 3 l -1,6 h 3 l -1,5 2,-3 2,2 -5,9 h -2 l -5,-4 -7,10 v 6 l -3,-2 -1,6 v 3 l 2,-3 1,2 -4,3 -5,-4 -2,7 -2,2 -3,-2 1,4 -5,5 -2,-4 h -5 l -2,7 -4,-4 -7,2 -2,-4 v -6 l 1,-1 v -1 h 1 v -1 l 1,-2 3,-3 v -1 l 2,-2 v -1 l 1,-1 10,-27 1,-1 z m 80,-67 h 1 v 1 h -1 z m 13,4 h 1 v 1 h -1 z m 1,1 h 1 v 1 h -1 z m 3,2 v -1 h 2 v 1 z m 41,27 2,-2 -1,2 z m -1,0 h 1 l -1,2 z m -3,11 h 1 v 4 h -1 z m -2,5 h 2 v 1 l -2,1 z m 0,4 h 1 v 1 h -1 z m -101,6 -1,-4 h 4 l -2,8 -1,7 -4,-5 v -4 z m 96,-1 3,1 -2,2 h -1 z m 4,-1 h 1 v 1 h -1 z m -76,4 -3,2 1,-4 h 3 z m 72,2 v -1 h 1 l -1,8 v 1 h -1 v -7 z m -57,2 h 2 v 1 l -1,1 h -1 z m -3,3 h 1 v 1 h -1 z m 14,1 v -1 h 2 v 4 l -1,2 v 3 h -2 l -1,-2 v -3 l 1,-1 v -1 z m 5,0 2,-1 -2,2 z m -18,3 -1,-2 3,1 v 1 z m 57,2 1,-3 v 3 z m -10,1 2,-1 3,1 -2,4 1,5 -4,-2 h -1 l -1,-3 v -2 l 1,-1 h 1 z m 9,3 1,-3 v 3 z m -49,5 6,-4 -2,16 6,2 1,-3 3,6 h 3 l 2,2 h 1 l 4,-1 -1,3 -2,2 h 2 l 2,-2 v -3 l 7,-4 -1,-4 v -1 l 2,-2 v 7 l 4,-1 h 1 l 2,1 -3,3 -4,-1 -1,3 -1,-3 -2,4 v 1 l -2,2 h 2 v 3 h -1 l -1,4 h -1 l 1,1 v 1 l -1,2 2,-1 h -1 v -1 h 1 l -1,-1 v -1 l 2,-1 v -3 l 9,-3 -6,4 -2,3 v 3 l 2,-2 1,3 h 5 l -5,1 1,4 -4,-2 -5,5 -3,-7 -1,4 h -7 l -4,4 1,-8 5,1 h 1 l 1,-6 -5,-1 -5,6 1,4 -7,4 5,-11 -6,-2 v 5 h -3 v -6 l -3,-2 h 7 l -2,-3 4,-1 v -4 l -3,-1 -6,9 -6,6 -3,-2 -10,7 -1,-3 3,-2 h -5 l -1,2 -1,-2 -1,2 -3,-1 1,-5 7,-3 -1,-4 h 5 l -1,-5 h 3 v 8 l -4,3 2,1 5,-2 2,-7 -1,-1 v -4 l 1,-5 h 3 v 1 l -3,6 4,-1 v -1 l 2,-2 h 2 l 2,1 h 3 l -2,-2 v -1 l 6,-6 -5,-1 -1,-2 2,-4 z m -28,-3 h 1 v 1 h -1 z m 110,5 h -2 l 2,-1 z m 0,0 h 1 v 1 h -1 z m -40,3 h 1 v 1 h -1 z m 18,0 h 1 v 1 h -1 z m -2,2 1,-1 h 1 z m -104,0 v 2 l 4,6 4,-4 3,9 -1,1 -1,4 h 4 l -2,6 h -4 v -1 h -1 l -1,-3 -4,3 1,-3 -4,2 -3,-3 h 2 l -2,-1 1,-4 -2,-2 h 2 l -2,-5 5,-5 z m 25,0 h 1 v 1 h -1 z m -2,2 1,-1 h 1 l 4,5 -5,1 -1,-4 z m 9,0 v -1 l 2,1 z m 6,2 2,-3 v 3 z m 95,1 2,-2 4,4 -3,4 5,-1 2,2 v 2 h -4 l -3,-1 -2,-2 1,-2 v -3 l -1,-1 z m -93,1 v -2 h 1 z m 53,2 h 1 v 1 h -1 z m -76,6 v -3 l 5,-2 -2,6 z m 74,-4 1,-1 h 1 l -2,2 z m 17,2 -4,-2 4,-1 z m -39,2 h 1 v 1 h -1 z m 6,2 v -2 l 1,1 z m 78,15 -1,-5 -14,-4 5,-8 h 1 l 2,1 2,3 v 1 l 1,1 v 1 l 4,2 4,5 v 1 h -1 l 1,1 v -1 h 1 v 1 h 1 l 1,1 v 1 h -4 l -2,-1 z m -150,-4 v -2 h 1 l 1,1 h 1 l -2,4 z m 3,-2 h 1 v 1 h -1 z m 7,3 -2,-3 2,2 z m -10,0 -3,-1 h 3 z m 13,0 h 2 v 4 l -2,1 z m 0,5 -3,1 2,-2 z m 144,-1 h 1 v 1 h -1 z m 1,1 h 1 v 1 h -1 z m -109,8 4,-5 v 4 z m 100,-3 v -2 h 1 l 6,1 -3,3 h -1 l -2,-2 z m 12,1 v -2 h 1 l 1,1 v 1 z m 2,0 h 1 v 2 h -1 z m 1,4 v -2 h 2 l 3,3 h -3 z m -134,9 2,-1 -1,1 z m 143,2 2,-1 v 2 h -2 z m -158,15 2,-4 1,4 z m 3,0 6,-1 -1,8 -3,1 2,5 11,-10 -3,9 9,-7 v 8 l 15,-4 5,3 -3,7 4,1 5,-5 -3,7 11,-4 1,2 2,-1 v 3 l -9,7 2,3 3,-2 -1,5 11,-9 h 3 v 3 l -6,5 h 3 l 1,2 v -2 l 3,3 v 1 l -1,2 h -3 l 1,2 v 1 l 3,2 -1,8 -5,2 1,4 -7,1 3,-9 -1,-3 -3,8 -4,1 5,3 -4,8 v 1 h -3 l 1,-4 -4,3 h -1 l -2,-2 -2,-3 3,-1 -5,-7 -8,-7 v -1 l 2,-2 -3,-5 h -3 v 4 l -1,1 h -1 l -1,-1 2,-2 -4,-1 -2,-2 6,-1 -11,-4 -1,-1 -1,-2 -6,-6 v -1 h -1 l -2,-2 -6,-7 -1,-1 v -1 l 5,5 4,-2 -4,-2 -6,-4 -1,-2 4,-5 1,4 3,-1 1,-5 -4,1 z m 175,13 h 1 v 1 h -1 z m -64,6 v -1 h 5 l 1,1 h 1 v 1 h -5 z m 48,1 v -1 h 4 v 2 h -1 z m 9,-1 h 1 v 1 h -1 z m -12,2 1,-1 h 2 v 1 l -1,3 -1,1 -2,-1 v -1 l 1,-1 z m -90,3 4,-3 h 1 l 1,2 -1,1 z m 95,-3 h 1 v 1 h -1 z m -1,1 h 1 v 1 h -1 z m -7,3 1,-1 h 1 l 1,1 -3,2 z m -1,2 h 1 v 1 h -1 z m -81,4 v -1 h 2 v 2 h -1 z m -59,0 h 1 v 1 h -1 z m 59,1 h 1 v 1 h -1 z m 73,1 h 1 v 1 h -1 z m -7,4 v -1 h 2 z m -64,1 h 1 v 1 h -1 z m -47,7 h 1 v 1 h -1 z m 2,1 3,1 -1,1 h -2 l -1,-1 h 1 z m 97,-1 h 1 v 1 h -1 z m -2,1 h 1 v 1 h -1 z m -53,1 h 1 v 1 h -1 z m -40,1 h 1 v 1 h -1 z m 73,0 h 1 v 1 h -1 z m -33,6 -2,-1 2,-3 1,4 z m -40,-3 h 1 v 1 h -1 z m 1,1 h 1 v 1 h -1 z m 76,2 h 1 v 1 h -1 z m -1,1 h 1 v 1 h -1 z m -1,1 h 1 v 1 h -1 z m -34,3 v -1 h 1 l 1,1 z m -32,2 -2,-2 h 1 z m 63,-2 h 1 v 1 h -1 z m -18,4 h 1 v 1 h 1 v 2 h -1 l 1,1 v 1 l -1,1 h -1 l -1,1 h -3 v 3 h -1 l -1,1 h -5 l -2,2 h -1 v -2 l -1,-1 v -2 h 2 l 2,-1 1,-1 2,-1 1,-1 h 3 v -1 h 1 v 1 h 1 v -2 z m 2,1 v -1 l 2,1 z m 11,-1 h 1 v 1 l -1,1 z m 2,0 h 1 v 1 h -1 z m -26,2 h 1 v 1 h -1 z m 23,0 h 1 v 1 h -1 z m -26,2 1,-1 h 1 l -1,3 h -1 z m 24,0 v -1 h 2 z m -1,0 h 1 v 1 h -1 z m -47,2 v -1 l 1,2 z m 46,-1 h 1 v 1 h -1 z m -38,2 -2,-1 h 1 z m 36,0 v -1 h 2 z m -1,0 h 1 v 1 h -1 z m -25,2 1,-1 h 1 l -1,1 z m 2,2 1,-1 h 1 v 2 h -2 z m 18,0 h 1 v 1 h -1 z m -21,3 v -1 h 1 l 1,1 z m 19,-1 h 1 v 1 h -1 z m -28,3 v -1 h 2 l -1,1 z m 4,3 h 1 v 1 h -1 z" />
      <path
         id="Path 4"
         fill-rule="evenodd"
         class="s4"
         d="m 679,324 v 1 h -4 l -1,-1 z m 5,3 v -1 l 7,2 h -2 l -1,1 h -1 l -2,-2 z m 8,2 v -1 l 3,1 z m 7,2 v -1 l 2,1 z m 3,1 -1,-1 3,1 z m 22,5 v -1 l 2,1 z m 7,2 -2,-1 3,1 z m 1,1 v -1 l 2,1 z m 10,3 v -1 l 4,1 z m 4,1 v -1 l 5,1 z m 38,29 1,-2 h 1 l -2,6 z m -1,5 h 1 l -1,2 z m -1,2 h 1 l -1,3 z m -1,6 h 1 v 1 h -1 z m -2,3 2,-1 -1,3 h -1 z m 0,4 h 1 v 1 h -1 z m -4,6 2,-2 h 1 l -4,11 1,-8 z m -60,6 1,-1 h 1 v 2 l -1,1 h -1 z m 58,6 v -2 h 1 z m -1,1 h 1 l -1,2 z m -1,4 h 1 v 1 h -1 z m 0,1 -7,21 2,1 v 1 l -1,1 h -1 l -1,1 h -1 l -2,2 -9,3 v -3 l 2,-2 1,-2 1,-3 4,1 4,-4 -1,-2 -1,-1 1,-2 4,-4 2,-3 v -1 l 1,-1 v -1 z m -51,8 5,1 -6,6 h -3 v -3 l 1,-1 3,-1 z m 29,7 v -1 h 4 l 1,4 -7,4 v -3 l 1,-1 v -2 z m -35,2 v -2 h 2 v 2 z m 5,-1 2,2 h -2 z m -70,22 5,-5 -1,-4 3,2 2,-2 2,-7 5,4 4,-3 h 1 l 2,2 -1,4 v 1 l 3,3 4,-2 -1,3 2,2 v 2 h -3 l 3,1 v 2 h 1 l 2,-4 1,-1 v -1 h 4 v 1 l 2,3 v -1 l 3,1 v 4 h -1 l -2,2 3,-1 2,-1 v 1 h 1 l -1,-1 v -4 l 1,-2 h 5 l -3,2 1,3 10,-7 3,2 6,-6 3,2 v 6 h 3 v -5 l 6,2 -5,11 7,-4 -1,-4 5,-6 5,1 -1,6 h -1 l -5,-1 -1,8 -4,5 -1,1 -2,1 -1,1 -4,1 -1,1 h -1 l -2,1 h -1 l -2,2 -1,2 h -1 l -2,1 h -2 l -78,-24 7,-2 4,4 2,-7 h 5 z m 68,-7 6,-9 3,1 v 4 l -4,1 2,3 z m 28,-6 1,-3 h 1 v 3 z m 0,2 h -2 l 2,-2 z m 4,7 1,-4 h 1 v 3 z m -1,0 h 1 v 1 h -1 z m 95,18 v -2 l 2,2 z m -149,41 -1,-3 6,4 4,2 -4,2 z m 119,5 h 1 v 1 h -1 z m 51,2 h 1 v 1 h -1 z m -5,1 h 1 l 2,1 -14,8 v -1 l 2,-2 3,-2 h 1 l 2,-2 h 1 z m 3,1 1,-1 h 1 z m -159,2 h 1 v 1 h -1 z m 143,7 v -1 h 2 z m -136,1 v -1 l 1,2 z m 134,0 1,-1 h 1 z m -1,0 h 1 v 1 h -1 z m -126,7 -5,-5 11,4 z m 123,-5 h 1 v 1 h -1 z m -2,1 h 1 v 1 h -1 z m -114,5 h 3 l 3,5 -2,2 -3,-1 v 1 h -1 l -1,-1 1,-1 z m -2,5 h 1 v 1 h -1 z m 6,3 8,7 5,7 -3,1 -2,-2 -1,-2 h -1 l -5,-6 v -1 l -1,-1 h -1 l -1,-1 z m 73,0 h 1 v 1 h -1 z m 15,0 h 1 v 1 h -1 z m -11,5 h 1 v 1 h -1 z m 0,3 h 1 v 1 h -1 z m -4,1 h 1 v 1 h -1 z m -2,3 h 1 v 1 h -1 z m -5,2 h 1 v 1 h -1 z m -12,1 h 1 v 1 h -1 z m 1,1 h 1 v 1 h -1 z m 3,0 h 1 v 1 h -1 z m 7,0 h 1 v 1 h -1 z m -50,4 4,-3 -1,4 h 3 l 2,1 -2,4 v 2 l -1,-1 -1,-2 -3,-3 z m 39,-2 h 1 v 1 h -1 z m -5,6 v -2 h 2 v 1 l -1,1 z m -5,2 h 1 v 1 h -1 z m -22,1 h 1 v 1 h -1 z m 11,1 1,-1 h 2 v 2 h -2 z m 9,6 h 1 v 1 h -1 z m 9,-15 h -2 1 z" />
      <path
         id="Path 5"
         fill-rule="evenodd"
         class="s0"
         d="m 674,324 h 1 v 1 h -1 z m -3,1 h 1 v 1 h -1 z m 17,3 h 1 v 1 h -1 z m -13,4 h 1 v 1 h -1 z m 30,0 h 1 v 1 h -1 z m 6,2 h 1 v 1 h -1 z m -11,12 h 1 v 1 h -1 z m 55,2 -2,-1 h 1 z m 36,6 h 1 v 1 h -1 z m -18,4 h 1 v 1 h -1 z m -72,4 h 1 v 1 h -1 z m 4,1 h 1 v 1 h -1 z m -6,1 h 1 v 1 h -1 z m 73,0 h 1 v 1 h -1 z m 10,0 h 1 v 1 h -1 z m -84,3 h 1 v 1 h -1 z m 31,2 1,6 h -3 z m 31,2 1,-2 h 1 l -1,2 z m -1,2 1,-2 v 1 1 z m -32,8 -1,-3 2,2 z m 48,-2 h 1 v 1 h -1 z m -48,2 1,-1 2,2 z m 54,0 h 1 v 1 h -1 z m -123,1 h 1 v 1 h -1 z m 51,0 h 1 v 1 h -1 z m -47,3 4,3 -3,3 -3,-3 z m -4,5 h 1 v 1 h -1 z m 72,0 h 1 v 1 h -1 z m -2,1 h 1 v 1 h -1 z m 3,0 h 1 v 1 h -1 z m 4,0 h 1 v 1 h -1 z m -5,5 h -3 v -3 l 3,2 z m 0,-3 h 1 v 1 h -1 z m -19,1 h 1 v 1 h -1 z m 6,0 h 1 v 1 h -1 z m -55,2 h 1 v 1 h -1 z m 16,1 h 1 v 1 h -1 z m 30,1 h 1 v 1 h -1 z m 7,0 h 1 v 1 h -1 z m -4,1 h 1 v 1 h -1 z m -44,2 h 1 v 1 h -1 z m 106,0 h 1 v 1 h -1 z m -55,1 h 1 v 1 h -1 z m 27,2 v -1 l 2,1 z m -98,0 h 1 v 1 h -1 z m -1,1 h 1 v 1 h -1 z m 78,1 h 1 v 1 h -1 z m -68,1 h 1 v 1 h -1 z m 90,0 h 1 v 1 h -1 z m -90,1 -2,6 -3,-3 z m 3,0 h 1 v 1 h -1 z m 1,1 3,2 -3,7 -5,-1 z m 22,0 h 1 v 1 h -1 z m 77,4 h 1 v 1 h -1 z m 2,0 h 1 v 1 h -1 z m -88,3 -2,8 -3,-1 -1,-6 z m 86,-1 h 1 v 1 h -1 z m -98,2 h 3 l -2,2 3,4 -2,3 -2,-3 -2,2 z m 37,0 h 1 v 1 h -1 z m 65,0 h 1 v 1 h -1 z m -120,12 -1,-7 3,-1 2,5 4,-7 4,8 z m 91,-9 h 1 v 1 h -1 z m 6,1 h 1 v 1 h -1 z m 13,0 h 1 v 1 h -1 z m -16,1 h 1 v 1 h -1 z m 67,0 h 1 v 1 h -1 z m -7,1 1,3 h -3 z m -143,9 1,-5 2,2 z m 136,-5 h 1 v 1 h -1 z m -90,1 h 1 v 1 h -1 z m -59,3 2,-2 2,2 -2,8 -4,-3 -2,4 -1,-5 h 4 l 1,-3 z m 58,-2 h 1 v 1 h -1 z m -36,1 h 1 v 1 h -1 z m 12,0 h 1 v 1 h -1 z m 74,0 h 1 v 1 h -1 z m 44,0 h 1 v 1 h -1 z m -106,1 h 1 v 1 h -1 z m 2,1 2,1 -2,2 z m -35,0 1,4 -3,-1 z m 21,0 h 1 v 1 h -1 z m 137,0 h 1 v 1 h -1 z m -2,1 h 1 v 1 h -1 z m -134,1 h 1 v 1 h -1 z m 49,0 h 1 v 1 h -1 z m 1,3 v -1 h 1 v 2 z m -48,5 -4,-1 v -3 l 4,2 v 1 z m -26,-3 h 1 v 1 h -1 z m 31,0 h 1 v 1 h -1 z m 33,1 2,2 -2,1 z m -36,6 3,-5 -1,5 z m 6,-5 h 1 v 1 h -1 z m -8,3 v -2 l 1,2 z m -49,-1 h 1 v 1 h -1 z m 19,0 h 1 v 1 h -1 z m 87,0 h 1 v 1 h -1 z m -63,1 h 1 v 1 h -1 z m 19,0 h 1 v 1 h -1 z m 9,0 h 1 v 1 h -1 z m 75,0 h 1 v 1 h -1 z m -31,1 h 1 v 1 h -1 z m -60,3 -2,1 v -3 l 2,1 z m 65,-2 h 1 v 1 h -1 z m -20,1 h 1 v 1 h -1 z m 19,0 h 1 v 1 h -1 z m 77,0 h 1 v 1 h -1 z m -161,3 v -2 l 2,4 h -3 v -2 z m 21,-2 h 1 v 1 h -1 z m 53,0 h 1 v 1 h -1 z m 13,2 h 1 v 1 h -1 z m -2,2 h 1 v 1 h -1 z m 28,0 10,3 -4,1 -3,-3 -3,2 z m -97,1 h 1 v 1 h -1 z m 70,0 h 1 v 1 h -1 z m -81,3 h 1 v 1 h -1 z m 162,0 h 1 v 1 h -1 z m -93,1 h 1 v 1 h -1 z m 48,1 h 1 v 1 h -1 z m 47,0 h 1 v 1 h -1 z m -139,3 h 1 v 1 h -1 z m 110,2 h 1 v 1 h -1 z m 12,3 3,-1 -1,2 z m 5,0 h 1 v 1 h -1 z m -7,2 2,-1 h 2 l -3,1 z m -38,0 4,3 -3,2 z m 35,1 1,-1 h 1 l 2,1 -3,2 z m 26,2 h 1 v 1 h -1 z m 1,1 h 1 v 1 h -1 z m 4,4 h 1 v 1 h -1 z m 4,0 h 1 v 1 h -1 z m 5,0 h 1 v 1 h -1 z m 1,1 h 1 v 1 h -1 z m -75,1 3,1 -5,3 z m 61,1 h 1 v 1 h -1 z m -37,1 5,1 -1,3 h -4 z m 36,0 h 1 v 1 h -1 z m 19,1 h 1 v 1 h -1 z m 1,1 h 1 v 1 h -1 z m 1,1 h 1 v 1 h -1 z m 1,1 h 1 v 1 h -1 z m -61,6 h 1 v 1 h -1 z m -25,1 h 1 v 1 h -1 z m 7,0 h 1 v 1 h -1 z m 17,0 h 1 v 1 h -1 z m -18,1 h 1 v 1 h -1 z m 87,0 h 1 v 1 h -1 z m -83,1 h 1 v 1 h -1 z m 19,3 h 1 v 1 h -1 z m -27,1 h 1 v 1 h -1 z m 27,0 -1,3 -2,-2 z m -16,1 h 1 v 1 h -1 z m -22,1 h 1 v 1 h -1 z m 1,1 h 1 v 1 h -1 z m 18,5 h 1 v 1 h -1 z m 8,2 h 1 v 1 h -1 z m 62,0 h 1 v 1 h -1 z m 1,1 h 1 v 1 h -1 z m 20,0 h 1 v 1 h -1 z m -22,1 h 1 v 1 h -1 z m -63,1 2,2 h -3 z m 61,1 1,-1 h 1 v 2 l -3,-1 z m 20,0 h 1 v 1 h -1 z m -162,2 2,2 -2,1 z m 13,2 h 1 v 1 h -1 z m 30,0 h 1 v 1 h -1 z m 52,0 h 1 v 1 h -1 z m 11,0 h 1 v 1 h -1 z m -101,1 3,4 h -3 z m 142,0 h 1 v 1 h -1 z m -126,1 h 2 l -1,5 z m 24,0 -2,3 -2,-2 z m 100,0 h 1 v 1 h -1 z m 10,0 h 1 v 1 h -1 z m -96,1 h 1 v 1 h -1 z m 22,0 h 1 v 1 h -1 z m -86,2 h 1 v 1 h -1 z m 36,0 h 1 v 1 h -1 z m 29,0 h 1 v 1 h -1 z m 83,0 h 1 v 1 h -1 z m -1,1 h 1 v 1 h -1 z m -19,1 h 1 v 1 h -1 z m -89,14 -4,11 -1,-2 -4,2 -1,-6 4,-11 -2,-4 4,1 6,-4 -5,7 z m 57,-12 4,1 -1,1 -3,2 h -1 v -3 z m 49,1 h 1 v 1 h -1 z m -80,1 h 1 v 1 h -1 z m 77,1 h 1 v 1 h -1 z m -99,2 h 1 v 1 h -1 z m 1,2 h 1 v 1 h -1 z m 10,0 h 1 v 1 h -1 z m 31,0 h 1 v 1 h -1 z m 49,1 h 1 v 1 h -1 z m -31,1 h 1 v 1 h -1 z m 27,0 h 1 v 1 h -1 z m -69,1 h 1 v 1 h -1 z m -22,2 3,3 -4,1 z m 10,0 h 1 v 1 h -1 z m 0,3 4,2 2,-3 -1,4 -8,3 -2,-6 4,1 z m 39,-1 h 1 v 1 h -1 z m -68,3 h 1 v 1 h -1 z m 2,2 h 1 v 1 h -1 z m 76,1 h 1 v 1 h -1 z m 6,1 1,-1 v 2 h -1 z m -63,0 h 1 v 1 h -1 z m 27,0 h 1 v 1 h -1 z m 44,0 h 1 v 1 h -1 z m -76,1 h 1 v 1 h -1 z m 5,1 6,1 -1,3 -3,-2 -2,2 z m -16,1 h 1 v 1 h -1 z m 75,3 h 1 v 1 h -1 z m -69,4 h 1 v 1 h -1 z m 26,5 h 1 v 1 h -1 z m 15,1 h 1 v 1 h -1 z m -2,3 h 1 v 1 h -1 z m 4,2 h 1 v 1 h -1 z m 3,0 h 1 v 1 h -1 z m -23,1 h 1 v 1 h -1 z m 5,0 h 1 v 1 h -1 z m 13,0 h 1 v 1 h -1 z m -12,3 h 1 v 1 h -1 z m 12,0 h 1 v 1 h -1 z" />
      <path
         id="Path 6"
         fill-rule="evenodd"
         class="s1"
         d="m 685,327 h 1 v 1 h -1 z m 1,1 h 1 v 1 h -1 z m 1,1 h 1 v 1 h -1 z m -16,8 h 1 v 1 h -1 z m 40,2 4,2 -4,1 z m 8,1 5,1 -7,8 z m -46,1 3,4 -3,4 -3,-3 2,-5 z m 6,0 h 1 v 1 h -1 z m 47,1 3,4 -3,1 z m 21,6 -3,-2 4,1 z m 0,0 1,-1 1,2 h -2 z m 2,1 4,-2 2,1 -1,3 z m 5,-2 h 1 v 1 h -1 z m -30,1 1,6 -4,2 z m 10,0 h 1 v 1 h -1 z m 1,1 h 1 v 1 h -1 z m 26,0 7,2 -4,4 z m -25,1 h 1 v 1 h -1 z m 22,1 h 1 v 1 h -1 z m 29,0 h 1 v 1 h -1 z m -29,3 h 1 v 1 h -1 z m -73,1 3,4 h -3 z m -4,2 h 1 v 1 h -1 z m -1,11 -4,-2 3,-7 1,3 h 3 l -2,6 v -1 z m 82,-9 2,3 -7,4 z m 0,8 2,-1 2,4 -5,2 v -1 l 1,-2 z m -30,0 h 1 v 1 h -1 z m -52,3 v -2 h 1 v 3 h -1 z m 81,-2 h 1 v 1 h -1 z m -1,4 h 1 v 1 h -1 z m -1,1 h 1 v 1 h -1 z m 11,11 -3,3 -4,-2 2,-11 1,9 1,-4 4,-1 v 5 z m 2,-9 h 1 v 1 h -1 z m -12,1 h 1 v 1 h -1 z m -88,2 h 1 v 1 h -1 z m 17,0 h 4 v 3 l -3,1 z m -4,1 h 1 v 1 h -1 z m 69,0 1,5 4,-1 1,4 -3,2 -2,-4 -2,6 -5,2 z m -72,4 h 1 v 1 h -1 z m 88,1 1,-1 2,2 z m 3,1 h 1 v 1 h -1 z m -95,3 h 1 v 1 h -1 z m 32,1 h 1 v 1 h -1 z m 22,2 h 1 v 1 h -1 z m -43,3 2,-1 h 1 z m 19,-2 h 1 v 1 h -1 z m -26,2 h 1 v 1 h -1 z m 24,1 h 1 v 1 h -1 z m 31,0 h 1 v 1 h -1 z m 33,0 h 1 v 1 h -1 z m -74,3 h 1 v 1 h -1 z m 23,1 h 1 v 1 h -1 z m 12,2 h 1 v 1 h -1 z m -14,1 h 1 v 1 h -1 z m -1,1 h 1 v 1 h -1 z m 13,0 h 1 v 1 h -1 z m 36,1 h 1 v 1 h -1 z m 2,0 h 1 v 1 h -1 z m -38,1 h 1 v 1 h -1 z m -21,1 h 1 v 1 h -1 z m 15,0 h 1 v 1 h -1 z m -18,1 h 1 v 1 h -1 z m 7,1 h 1 v 1 h -1 z m -24,1 h 1 v 1 h -1 z m 28,2 h 1 v 1 h -1 z m -15,6 h 1 v 1 h -1 z m -12,10 3,-9 1,10 z m 14,-8 h 1 v 1 h -1 z m 16,4 -2,-1 2,-3 z m -34,8 -2,-5 6,1 v 2 h -1 l -1,1 v 1 z m 123,-4 h 1 v 1 h -1 z m -138,1 h 1 v 1 h -1 z m 35,0 h 1 v 1 h -1 z m 104,0 h 1 v 1 h -1 z m -138,1 h 1 v 1 h -1 z m 86,1 h 1 v 1 h -1 z m -30,1 h 1 v 1 h -1 z m -41,2 1,-1 h 1 1 v 3 l 2,-2 h 1 l -1,4 -3,2 z m 25,2 h 1 v 1 h -1 z m -4,5 h 1 v 1 h -1 z m -20,1 h 1 v 1 h -1 z m 18,1 h 1 v 1 h -1 z m 25,2 h 1 v 1 h -1 z m 35,4 v 5 l -3,-2 z m -95,8 h 1 v 1 h -1 z m 98,2 h 1 v 1 h -1 z m -6,5 h 1 v 1 h -1 z m 6,0 2,1 -5,3 z m -15,3 h 1 v 1 h -1 z m -14,1 h 1 v 1 h -1 z m 10,0 h 1 v 1 h -1 z m -11,1 h 1 v 1 h -1 z m 6,4 -1,-2 6,-1 h 1 l -5,7 -1,-3 z m 25,-3 h 1 v 1 h -1 z m -6,2 h 1 v 1 h -1 z m -13,3 3,-1 -1,2 z m 3,-2 h 1 v 1 h -1 z m -32,2 h 1 v 1 h -1 z m 30,2 h 1 v 1 h -1 z m -3,1 h 1 v 1 h -1 z m 12,1 h 1 v 1 h -1 z m 4,0 h 1 v 1 h -1 z m -3,1 h 1 v 1 h -1 z m -42,1 h 1 v 1 h -1 z m 135,0 h 1 v 1 h -1 z m -139,1 h 1 v 1 h -1 z m 5,1 h 1 v 1 h -1 z m 106,0 h 1 v 1 h -1 z m -114,1 h 1 v 1 h -1 z m 97,0 h 3 v 3 h -3 z m -72,5 3,-4 -2,5 z m 26,-1 h 1 v 1 h -1 z m -51,1 h 1 v 1 h -1 z m 53,1 h 1 v 1 h -1 z m -47,1 h 1 v 1 h -1 z m 38,0 h 1 v 1 h -1 z m -1,1 h 1 v 1 h -1 z m 112,2 h 1 v 1 h -1 z m -130,3 h 1 v 1 h -1 z m 79,0 h 3 v 3 z m 14,3 2,-1 -1,2 z m -83,0 3,2 -4,1 z m 9,1 -1,2 -2,-2 z m 53,1 3,3 -4,1 z m -33,3 h 1 v 1 h -1 z m -49,1 h 1 v 1 h -1 z m 48,0 h 1 v 1 h -1 z m 38,0 h 1 v 1 h -1 z m 40,2 6,-1 -4,3 v -1 l -1,-1 z m 6,-2 h 1 v 1 h -1 z m -8,5 v -4 l 2,1 v 1 l -1,1 v 1 z m 25,-4 h 1 v 1 h -1 z m -156,1 h 1 v 1 h -1 z m 155,0 h 1 v 1 h -1 z m -97,1 h 1 v 1 h -1 z m -3,3 -3,2 2,-4 z m 64,-2 3,1 -4,1 z m 13,1 1,-1 h 1 1 l -3,3 z m -101,0 h 1 v 1 h -1 z m 101,2 -4,1 1,-2 z m -2,-2 h 1 v 1 h -1 z m 15,0 h 1 v 1 h -1 z m 6,0 h 1 v 1 h -1 z m -121,1 h 1 v 1 h -1 z m 117,3 h 1 v 1 h -1 z m -92,1 h 1 v 1 h -1 z m 81,0 h 1 v 1 h -1 z m 2,0 h 1 v 1 h -1 z m 8,0 h 1 v 1 h -1 z m -92,1 h 1 v 1 h -1 z m 4,2 -2,-1 3,-1 z m 37,-2 h 1 v 1 h -1 z m 45,0 h 1 v 1 h -1 z m 4,0 h 1 v 1 h -1 z m -97,1 h 1 v 1 h -1 z m 6,0 h 1 v 1 h -1 z m -1,1 h 1 v 1 h -1 z m 51,0 h 1 v 1 h -1 z m 8,0 h 1 v 1 h -1 z m -60,1 h 1 v 1 h -1 z m 69,0 h 1 v 1 h -1 z m 12,0 h 1 v 1 h -1 z m -93,1 h 1 v 1 h -1 z m 26,0 h 1 v 1 h -1 z m -25,2 -3,2 1,-3 h 1 z m 0,-1 h 1 v 1 h -1 z m 71,0 h 1 v 1 h -1 z m -32,3 6,-2 3,2 -5,1 z m 33,-1 -2,1 1,-2 z m -67,0 h 1 v 1 h -1 z m 6,0 h 1 v 1 h -1 z m 47,0 4,3 -4,2 -2,-2 z m -26,1 h 1 v 1 h -1 z m 6,0 h 1 v 1 h -1 z m -29,2 h 1 v 1 h -1 z m 68,0 h 1 v 1 h -1 z m -32,1 h 1 v 1 h -1 z m -40,1 h 1 v 1 h -1 z m 28,0 h 1 v 1 h -1 z m 48,1 h 1 v 1 h -1 z m -38,1 h 1 v 1 h -1 z m -1,1 h 1 v 1 h -1 z m 24,0 h 1 v 1 h -1 z m -32,1 h 1 v 1 h -1 z m 13,0 h 1 v 1 h -1 z m -38,1 h 1 v 1 h -1 z m 27,2 -1,-2 h 3 l -1,3 z m 12,-2 h 1 v 1 h -1 z m -2,1 h 1 v 1 h -1 z m -37,1 h 1 v 1 h -1 z m 3,0 h 1 v 1 h -1 z m 25,1 -2,1 1,-2 z m 16,0 h 2 l -1,3 z m -22,1 h 1 v 1 h -1 z m 0,2 1,-1 v 3 z m -40,0 h 1 v 1 h -1 z m 26,1 h 1 v 1 h -1 z m 31,0 h 1 v 1 h -1 z m 16,0 h 1 v 1 h -1 z m -4,2 h 1 v 1 h -1 z m -13,1 h 1 v 1 h -1 z m 8,0 h 1 v 1 h -1 z m 3,0 h 1 v 1 h -1 z m -18,1 h 1 v 1 h -1 z m -21,1 h 1 v 1 h -1 z m 28,1 h 1 v 1 h -1 z m -52,1 h 1 v 1 h -1 z m 42,0 h 1 v 1 h -1 z m 15,1 h 1 v 1 h -1 z m -41,1 h 1 v 1 h -1 z m -1,1 h 1 v 1 h -1 z m 26,0 h 1 v 1 h -1 z m 13,0 h 1 v 1 h -1 z m -40,1 h 1 v 1 h -1 z m 20,0 h 1 v 1 h -1 z m 8,0 h 1 v 1 h -1 z m -7,1 -2,3 -2,-3 h 3 z m 6,0 h 1 v 1 h -1 z m 5,1 h 1 v 1 h -1 z m -38,3 h 1 v 1 h -1 z m 38,0 h 1 v 1 h -1 z m -6,2 h 1 v 1 h -1 z m -24,1 h 1 v 1 h -1 z m 10,0 h 1 v 1 h -1 z m 12,0 h 1 v 1 h -1 z m -38,1 h 1 v 1 h -1 z m 31,0 h 1 v 1 h -1 z m -7,1 h 1 v 1 h -1 z m -12,2 h 1 v 1 h -1 z m 23,0 h 1 v 1 h -1 z m -29,1 h 1 v 1 h -1 z m 21,1 h 1 v 1 h -1 z m 4,1 h 1 v 1 h -1 z m -5,2 h 1 v 1 h -1 z m -1,1 h 1 v 1 h -1 z m -11,2 h 1 v 1 h -1 z m -1,1 h 1 v 1 h -1 z m 10,1 h 1 v 1 h -1 z m -4,3 h 1 v 1 h -1 z m -1,1 h 1 v 1 h -1 z m -3,1 h 1 v 1 h -1 z m -9,3 h 1 v 1 h -1 z m 5,0 h 1 v 1 h -1 z" />
      <path
         id="Path 7"
         fill-rule="evenodd"
         class="s2"
         d="m 682,337 2,1 -2,2 z m 1,12 h 1 v 1 h -1 z m 12,0 h 1 v 1 h -1 z m 91,4 h 1 v 1 h -1 z m -83,3 h 1 v 1 h -1 z m 85,3 h 1 v 1 h -1 z m -78,5 h 1 v 1 h -1 z m 67,3 h 1 v 1 h -1 z m 6,0 h 1 v 1 h -1 z m -76,3 h 3 l -2,8 -3,1 -1,-3 z m -4,8 h 1 v 1 h -1 z m -6,1 h 1 v 1 h -1 z m 12,1 h 1 v 1 h -1 z m 68,0 h 1 v 1 h -1 z m -47,7 3,-5 1,3 -3,5 h -1 z m 48,-3 h 1 v 1 h -1 z m -45,7 h 1 v 1 h -1 z m -1,1 h 1 v 1 h -1 z m -9,2 h 1 v 1 h -1 z m -12,2 h 1 v 1 h -1 z m 19,0 3,2 h -4 z m 12,4 h 1 v 1 h -1 z m 16,1 h 1 v 1 h -1 z m -46,1 h 1 v 1 h -1 z m 59,0 h 1 v 1 h -1 z m -31,5 h -3 l 1,-3 7,-1 v 1 l -1,5 z m -40,-1 h 1 v 1 h -1 z m 26,0 h 1 v 1 h -1 z m -14,1 h 1 v 1 h -1 z m 13,1 h 1 v 1 h -1 z m -27,3 h 1 v 1 h -1 z m 64,0 h 1 v 1 h -1 z m -64,3 h 1 v 1 h -1 z m 31,9 h 1 v 1 h -1 z m -21,4 h 1 v 1 h -1 z m 25,1 h 1 v 1 h -1 z m 18,2 h 1 v 1 h -1 z m -66,2 v -1 h 2 v 1 l -1,1 z m 114,1 h 1 v 1 h -1 z m 0,1 -5,2 -1,-2 z m -72,4 v -2 h 1 v 2 z m 52,4 h 1 v 1 h -1 z m -6,1 h 1 v 1 h -1 z m 30,2 h 1 v 1 h -1 z m 8,9 h 1 v 1 h -1 z m -9,3 h 1 v 1 h -1 z m -4,1 1,2 h -3 z m 11,0 h 3 v 3 z m -16,3 h 1 v 1 h -1 z m 8,1 2,2 h -4 z m -13,1 h 1 v 1 h -1 z m 3,0 h 1 v 1 h -1 z m 20,6 -6,5 -7,-3 -2,3 4,3 -8,5 v 3 l -4,-2 -10,2 7,-11 4,1 -1,-4 8,-2 3,-4 10,-1 3,4 z m -31,-5 h 1 v 1 h -1 z m -30,2 h 1 v 1 h -1 z m -1,2 h 1 v 1 h -1 z m 75,0 h 1 v 1 h -1 z m -3,2 v 2 l -5,-2 z m 16,2 h -2 l 2,-1 z m -22,0 3,2 -4,2 z m -64,4 -1,-2 2,1 v 1 z m 52,0 3,1 -4,2 z m -83,4 2,1 -1,1 h -1 z m 68,13 2,-6 8,-6 4,6 -11,5 -2,4 z m 62,-6 3,2 -3,1 z m -62,2 h 1 v 1 h -1 z m 0,4 h -2 l 2,-3 z m 12,0 1,-2 v 2 z m -24,-1 h 1 v 1 h -1 z m 23,1 h 1 v 1 h -1 z m -15,1 h 1 v 1 h -1 z m -14,1 h 1 v 1 h -1 z m 14,0 -4,5 1,-5 z m 8,1 6,2 -10,6 z m -16,4 v 2 h -4 z m 8,7 2,1 -2,2 z m 16,1 h 1 v 1 h -1 z m 2,0 h 1 v 1 h -1 z m -27,3 -1,-2 h 1 z m 5,0 h 1 v 1 h -1 z m -18,4 v -3 l 2,2 -1,1 z m -3,6 h 1 v 1 h -1 z m 8,10 h 1 v 1 h -1 z m 4,33 h 1 v 1 h -1 z m 17,0 h 1 v 1 h -1 z m -22,3 h 1 v 1 h -1 z m -14,5 h 1 v 1 h -1 z m 24,3 h 1 v 1 h -1 z" />
      <path
         id="Path 8"
         fill-rule="evenodd"
         class="s3"
         d="m 708,333 h 1 v 1 h -1 z m -37,6 h 1 v 1 h -1 z m 1,1 h 1 v 1 h -1 z m 8,4 2,1 -5,3 z m 75,0 h 1 v 1 h -1 z m -72,13 h 1 v 1 h -1 z m 6,5 -1,3 3,1 -5,5 -2,-3 v -4 l 5,-5 z m -17,13 -2,-5 4,-2 2,5 z m 8,-4 h -2 l 2,-1 z m 80,0 h 1 v 1 h -1 z m -85,5 1,6 4,-6 h 3 v 5 l -4,6 -4,-1 z m 16,17 v -7 l 3,-3 v 12 l -2,-2 z m -3,-6 h 1 v 1 h -1 z m 20,2 h 1 v 1 h -1 z m 23,2 v -1 l 2,1 z m -1,2 v -2 h 1 v 2 z m -44,-1 h 1 v 1 h -1 z m 8,3 3,-3 v 3 z m 33,-2 1,-1 h 1 l 1,1 v 2 z m -38,9 h 1 v 1 h -1 z m 12,0 h 1 v 1 h -1 z m -13,1 h 1 v 1 h -1 z m 18,1 2,1 -3,1 z m 10,2 h 1 v 1 h -1 z m -13,1 h 1 v 1 h -1 z m -17,1 h 1 v 1 h -1 z m 20,0 2,2 -3,2 z m 6,11 -1,-7 h 3 l -1,12 3,2 -4,1 z m 13,-3 -8,2 5,-5 z m 7,0 h 1 v 1 h -1 z m 37,2 h 1 v 1 h -1 z m -81,1 h 1 v 1 h -1 z m 5,0 h 1 v 1 h -1 z m 75,1 h 1 v 1 h -1 z m -91,2 1,3 h -3 z m 7,0 h 1 v 1 h -1 z m 104,0 h 1 v 1 h -1 z m -2,1 h 1 v 1 h -1 z m -2,1 h 1 v 1 h -1 z m 21,0 h 1 v 1 h -1 z m -111,1 h 1 v 1 h -1 z m 71,0 h 1 v 1 h -1 z m 18,0 h 1 v 1 h -1 z m -81,2 h 1 v 1 h -1 z m 46,0 h 1 v 1 h -1 z m -60,2 h 4 l 2,4 h -3 l -2,-1 h -1 v -1 h -1 v -1 h 1 z m 87,1 h 1 v 1 h -1 z m -14,1 h 1 v 1 h -1 z m -13,1 h 1 v 1 h -1 z m -30,2 h 1 v 1 h -1 z m 44,0 h 1 v 1 h -1 z m 8,0 h 1 v 1 h -1 z m -29,1 h 1 v 1 h -1 z m 6,0 h 1 v 1 h -1 z m 69,1 h 1 v 1 h -1 z m -125,1 h 1 v 1 h -1 z m 55,1 h 1 v 1 h -1 z m 19,2 h 1 v 1 h -1 z m -2,1 h 1 v 1 h -1 z m 57,0 h 1 v 1 h -1 z m -89,1 h 1 v 1 h -1 z m 30,0 h 1 v 1 h -1 z m 60,0 h 1 v 1 h -1 z m -61,1 h 1 v 1 h -1 z m -96,5 1,-4 4,1 -3,7 z m 27,-3 h 1 v 1 h -1 z m -28,5 1,-2 v 2 z m 6,-1 h 1 v 1 h -1 z m 158,0 h 1 v 1 h -1 z m -153,1 h 1 v 1 h -1 z m 154,0 h 1 v 1 h -1 z m -151,1 h 1 v 1 h -1 z m 39,1 2,6 -4,-1 z m -67,3 -1,2 h -3 v -3 z m 24,0 h 1 v 1 h -1 z m -2,1 h 1 v 1 h -1 z m 67,0 h 1 v 1 h -1 z m 84,0 h 1 v 1 h -1 z m -152,1 h 1 v 1 h -1 z m 8,0 h 1 v 1 h -1 z m 29,0 h 1 v 1 h -1 z m -19,1 h 1 v 1 h -1 z m 6,2 h 1 v 1 h -1 z m 137,2 h 1 v 1 h -1 z m 7,0 h 1 v 1 h -1 z m 1,1 h 1 v 1 h -1 z m -110,1 h 1 v 1 h -1 z m -16,1 h 1 v 1 h -1 z m 20,1 h 1 v 1 h -1 z m 83,1 v -1 l 2,1 z m -1,2 -2,-1 h 2 z m -88,0 h 1 v 1 h -1 z m 50,0 h 1 v 1 h -1 z m -53,2 h 1 v 1 h -1 z m 7,0 2,1 -3,3 z m 107,0 h 1 v 1 h -1 z m 10,1 h 1 v 1 h -1 z m -129,1 h 1 v 1 h -1 z m 130,0 h 1 v 1 h -1 z m -121,1 h 1 v 1 h -1 z m -14,1 h 1 v 1 h -1 z m 136,0 h 1 v 1 h -1 z m -137,1 h 1 v 1 h -1 z m 134,0 h 1 v 1 h -1 z m -133,3 3,-1 -2,2 z m 139,-1 h 1 v 1 h -1 z m 2,2 h 1 v 1 h -1 z m -143,1 h 1 v 1 h -1 z m -6,1 5,1 -5,7 z m -4,1 h 1 v 1 h -1 z m 29,1 3,-1 -2,2 z m -30,0 h 1 v 1 h -1 z m 2,1 h 1 v 1 h -1 z m 28,0 h 1 v 1 h -1 z m -34,4 h 1 v 1 h -1 z m -1,2 h 1 v 1 h -1 z m 21,1 h 1 v 1 h -1 z m 8,0 h 1 v 1 h -1 z m 85,1 h 1 v 1 h -1 z m -91,3 h -4 l 1,-2 1,1 z m 3,-1 v -1 l 2,2 z m 4,0 h 1 v 1 h -1 z m -5,3 -2,-2 h 3 z m 2,-1 h 1 v 1 h -1 z m -30,1 h 1 v 1 h -1 z m 3,1 h 1 v 1 h -1 z m -4,1 h 1 v 1 h -1 z m 36,1 3,2 -3,1 z m -24,1 h 1 v 1 h -1 z m 34,1 1,2 -5,1 z m 36,1 h 1 v 1 h -1 z m 103,0 h 1 v 1 h -1 z m -113,2 2,1 -2,2 z m 7,1 h 1 v 1 h -1 z m 2,0 h 1 v 1 h -1 z m 79,2 1,-1 h 1 v 1 z m -109,0 h 1 v 1 h -1 z m 17,0 h 1 v 1 h -1 z m 113,0 h 1 v 1 h -1 z m -115,3 h 1 v 1 h -1 z m 111,0 h 1 v 1 h -1 z m -1,1 h 1 v 1 h -1 z m -106,8 h 1 v 1 h -1 z m -10,3 h 1 v 1 h -1 z m 12,2 h 1 v 1 h -1 z m 83,0 h 1 v 1 h -1 z m -10,1 h 1 v 1 h -1 z m -76,3 h 1 v 1 h -1 z m 15,1 h 1 v 1 h -1 z m -1,1 h 1 v 1 h -1 z m 32,1 h 1 v 1 h -1 z m -33,2 h 1 v 1 h -1 z m 33,9 h 1 v 1 h -1 z m -82,2 h 1 v 1 h -1 z m 74,1 h 1 v 1 h -1 z m -3,4 h 1 v 1 h -1 z m -14,8 h 1 v 1 h -1 z m -26,2 h 1 v 1 h -1 z m 18,0 h 1 v 1 h -1 z m -22,1 h 1 v 1 h -1 z m 1,5 h 1 v 1 h -1 z m 25,1 h 1 v 1 h -1 z m 7,0 h 1 v 1 h -1 z m -1,1 h 1 v 1 h -1 z m -1,1 h 1 v 1 h -1 z m -33,1 h 1 v 1 h -1 z m 30,1 h 1 v 1 h -1 z m -24,5 h 1 v 1 h -1 z m 13,2 h 1 v 1 h -1 z M 753,431 h -3 1 1 z" />
      <path
         id="Path 9"
         fill-rule="evenodd"
         class="s4"
         d="m 682,325 h 1 v 1 h -1 z m 32,10 h 1 v 1 h -1 z m 14,2 h 1 v 1 h -1 z m -56,1 h 1 v 2 h -1 z m 69,3 h 1 v 1 h -1 z m -75,42 h 1 v 1 h -1 z m 63,9 v -1 h 1 v 2 z m -14,17 h 1 v 1 h -1 z m -33,4 h 1 v 1 h -1 z m 80,1 h 1 v 1 h -1 z m 2,2 h 1 v 1 h -1 z m -71,2 h 1 v 1 h -1 z m 32,2 h 1 v 1 h -1 z m 56,6 h 1 v 1 h -1 z m -3,2 h 1 v 1 h -1 z m -143,5 h 1 v 1 h -1 z m -1,2 h 1 v 1 h -1 z m 13,0 h 1 v 1 h -1 z m 71,0 h 1 v 1 h -1 z m 8,2 -4,-1 3,-1 1,1 z m 43,-2 h 1 v 1 h -1 z m -136,1 h 1 v 1 h -1 z m 135,0 h 1 v 1 h -1 z m -56,1 h 1 v 1 h -1 z m 55,0 h 1 v 1 h -1 z m -120,1 h 3 v 3 l -2,1 z m 119,0 h 1 v 1 h -1 z m -136,2 h 1 v 1 h -1 z m 89,0 h 1 v 1 h -1 z m 31,0 h 1 v 1 h -1 z m -78,1 h 1 v 1 h -1 z m 1,1 h 1 v 1 h -1 z m -45,1 h 1 v 1 h -1 z m -1,2 h 1 v 1 h -1 z m 52,1 h 1 v 1 h -1 z m 29,1 h 1 v 1 h -1 z m -58,1 h 1 v 1 h -1 z m 33,2 h 1 v 1 h -1 z m 17,3 h 1 v 1 h -1 z m 46,0 h 1 v 1 h -1 z m 87,3 h 1 v 1 h -1 z m 1,1 h 1 v 1 h -1 z m 1,1 h 1 v 1 h -1 z m 1,1 h 1 v 1 h -1 z m 1,1 h 1 v 1 h -1 z m 3,4 h 1 v 1 h -1 z m 1,1 h 1 v 1 h -1 z m 1,1 h 1 v 1 h -1 z m 3,3 h 1 v 1 h -1 z m 1,1 h 1 v 1 h -1 z m -140,10 h 1 v 1 h -1 z m -2,1 h 1 v 1 h -1 z m -1,1 h 1 v 1 h -1 z m 15,10 2,1 h 1 l 1,1 v 2 h -3 l -2,-1 -1,-1 z m -24,19 h 1 v 1 h -1 z m 7,8 h 1 v 1 h -1 z m 23,3 h 1 v 1 h -1 z m -19,1 h 1 v 1 h -1 z m 2,2 h 1 v 1 h -1 z m 1,1 h 1 v 1 h -1 z m 1,1 h 1 v 1 h -1 z m 59,1 h 1 v 1 h -1 z m -55,1 h 1 v 1 h -1 z m -2,1 h 1 v 1 h -1 z m 6,1 h 1 v 1 h -1 z m 2,8 h 1 v 1 h -1 z m 1,1 h 1 v 1 h -1 z m 7,4 h 1 v 1 h -1 z m 70,6 1,1 h -1 z m -57,13 h 1 v 1 h -1 z m 36,0 h 1 v 1 h -1 z m 3,0 h 1 v 1 h -1 z m -38,1 h 1 v 1 h -1 z m 8,1 h 1 v 1 h -1 z m 25,2 h 1 v 1 h -1 z m -3,3 h 1 v 1 h -1 z m 0,8 h 1 v 1 h -1 z" />
      <path
         id="Path 10"
         class="s0"
         d="m 747,347 h 1 v 1 h -1 z m -66,19 h 1 v 1 h -1 z m -1,1 h 1 v 1 h -1 z m 90,16 h 1 v 1 h -1 z m -83,46 h 1 v 1 h -1 z m 143,70 h 1 v 1 h -1 z m -34,36 h 1 v 1 h -1 z" />
      <path
         id="Path 11"
         fill-rule="evenodd"
         class="s1"
         d="m 733,384 h 1 v 1 h -1 z m -92,47 h 1 v 1 h -1 z m 44,1 h 1 v 1 h -1 z m -8,8 h 1 v 1 h -1 z m 6,7 h 1 v 1 h -1 z m -19,3 h 1 v 1 h -1 z m 147,18 h 1 v 1 h -1 z m -19,7 h 3 v 3 z m -7,3 2,2 -3,2 z m -64,3 h 1 v 1 h -1 z m 73,7 h 1 v 1 h -1 z m -2,1 h 1 v 1 h -1 z m -29,25 h 1 v 1 h -1 z m 39,11 h 1 v 1 h -1 z" />
      <path
         id="Path 12"
         class="s2"
         d="m 740,407 h 1 v 1 h -1 z m 4,65 h 1 v 1 h -1 z m -7,16 h 1 v 1 h -1 z m -21,6 h 1 v 1 h -1 z m 73,58 h 1 v 1 h -1 z" />
      <path
         id="Path 13"
         class="s3"
         d="m 762,368 v -1 2 z m -35,12 h 1 v 1 h -1 z m 76,101 h 1 v 1 h -1 z m -83,12 h 1 v 1 h -1 z m 134,14 h 1 v 1 h -1 z m -117,25 h 1 v 1 h -1 z m 0,6 h 1 v 1 h -1 z m -3,6 h 1 v 1 h -1 z" />
      <path
         id="Path 14"
         class="s4"
         d="m 721,415 h 1 v 1 h -1 z m -33,15 h 1 v 1 h -1 z m 26,49 h 1 v 1 h -1 z m 17,5 h 1 v 1 h -1 z" />
    </g>
  </g>
</svg>
