<?xml version="1.0" encoding="UTF-8" standalone="no"?>
<svg
   version="1.2"
   viewBox="0 0 242.00003 241.99995"
   width="242.00003"
   height="241.99995"
   id="svg1"
   sodipodi:docname="lofty_3_pressed.svg"
   inkscape:export-filename="lofty_3.svg"
   inkscape:export-xdpi="96"
   inkscape:export-ydpi="96"
   inkscape:version="1.3.2 (091e20e, 2023-11-25, custom)"
   xmlns:inkscape="http://www.inkscape.org/namespaces/inkscape"
   xmlns:sodipodi="http://sodipodi.sourceforge.net/DTD/sodipodi-0.dtd"
   xmlns="http://www.w3.org/2000/svg"
   xmlns:svg="http://www.w3.org/2000/svg">
  <defs
     id="defs1" />
  <sodipodi:namedview
     id="namedview1"
     pagecolor="#505050"
     bordercolor="#ffffff"
     borderopacity="1"
     inkscape:showpageshadow="0"
     inkscape:pageopacity="0"
     inkscape:pagecheckerboard="1"
     inkscape:deskcolor="#505050"
     inkscape:zoom="4.929753"
     inkscape:cx="121.1014"
     inkscape:cy="120.99998"
     inkscape:window-width="2560"
     inkscape:window-height="1369"
     inkscape:window-x="1912"
     inkscape:window-y="-8"
     inkscape:window-maximized="1"
     inkscape:current-layer="svg1" />
  <title
     id="title1">1884790_BildD_001_ErgaenzungsfutterVitakraftLoftysLoftys100G</title>
  <style
     id="style1">
		.s0 { opacity: 1;fill: #92783a } 
		.s1 { opacity: 1;fill: #a69152 } 
		.s2 { opacity: 1;fill: #b8aa71 } 
		.s3 { opacity: 1;fill: #806226 } 
		.s4 { opacity: 1;fill: #4c3315 } 
	</style>
  <g
     id="Layer 2"
     transform="translate(-163.70064,-625.28713)">
    <ellipse
       style="fill:#e6b45f;fill-opacity:1;stroke:#e6b45f;stroke-width:8.33906;stroke-linecap:round;stroke-linejoin:round;stroke-opacity:1"
       id="path1"
       cx="284.70065"
       cy="746.28711"
       rx="116.83048"
       ry="116.83045" />
    <g
       id="g1"
       inkscape:label="loftys"
       transform="matrix(-0.09634348,0.57352467,-0.57352467,-0.09634348,755.52087,650.85904)">
      <path
         id="Path 0"
         fill-rule="evenodd"
         class="s0"
         d="m 267,636 v -1 h 2 1 1 l 1,1 z m -15,5 15,-5 -5,6 6,6 -4,-1 -1,4 1,3 h 6 l -2,-4 5,-1 -1,6 10,7 4,-1 2,3 -3,1 4,3 -7,-1 3,9 v 3 l -5,-1 1,6 v 1 l 8,1 -4,1 v 5 l 4,2 v 4 l -6,-2 -3,2 -5,-4 6,1 -2,-10 -5,-1 1,3 2,5 h -3 l -2,-1 2,1 1,2 -7,-2 v -4 l -4,3 -2,-5 3,-1 -6,-5 h -6 l 5,4 -2,6 2,2 6,-1 2,3 -5,4 -6,-2 v 4 l 9,5 11,6 v 5 l 4,-1 -1,4 -2,-1 -6,-2 -2,5 3,-1 2,2 1,5 h -10 -1 l -2,2 -3,-2 -1,-1 v -1 h -2 l -7,-3 1,7 5,2 v 3 l 3,-1 1,2 -1,-2 -3,-2 -3,-5 4,-1 2,1 v 1 l -2,2 9,3 4,4 1,2 3,2 1,-3 -4,-6 -5,1 1,-3 6,-1 5,5 2,-2 1,4 3,-5 4,1 8,4 v 1 l -1,1 -4,1 v 1 l 5,3 -1,-5 1,-1 1,-1 h 2 l 5,8 -1,2 -6,-2 1,3 v 1 l 1,1 1,1 v 2 h -1 l -4,1 1,-5 -6,2 -2,-5 h 1 l 1,-1 v -1 l -1,-2 1,-2 -2,-2 -1,2 v 1 l -1,2 -2,-3 -3,-1 1,5 v 1 -1 h 4 l 1,2 -1,3 -3,-1 2,3 -9,-5 2,4 h -3 v 3 l 7,4 -2,1 h 2 v 3 l -4,1 h -1 l -3,-5 -3,3 -3,-3 -1,3 v 1 l -3,6 -7,-2 -4,-5 1,-2 -10,-2 1,-5 -5,-2 -3,2 -3,2 h -1 l -1,-1 -2,-4 -8,-18 5,4 -2,2 3,-1 6,3 -2,-7 h -6 l 1,-3 -7,-3 -3,1 5,4 -5,3 -1,-5 h -4 l -1,-15 -3,4 -1,2 -5,-3 1,-1 2,-3 3,1 -1,-2 v -1 l 1,-1 1,-1 7,5 -2,-6 v -1 l -1,-2 v -2 l 1,-2 2,-1 1,-4 h 1 l 1,-2 1,4 2,-4 8,3 -7,-5 5,-10 11,-3 -1,-4 -4,1 3,-8 10,-5 1,-9 7,-5 -2,-3 1,-1 z m 21,-5 h 1 v 1 h -1 z m 5,5 -4,-4 h 1 l 2,1 1,1 z m 5,0 v 2 l -1,-2 z m 4,3 h 1 v 1 h -1 z m 3,2 h 1 v 1 h -1 z m 3,4 h 1 v 1 h -1 z m 2,1 h 1 v 1 h -1 z m 1,4 v -3 h 1 v 1 z m 6,1 h 1 v 1 h -1 z m 1,1 h 1 v 1 h -1 z m 11,7 h -4 v -3 l 1,1 1,1 z m -22,14 -3,-10 4,1 1,4 -2,2 3,1 -1,2 z m -63,-4 v -2 h 1 z m 66,2 -1,-3 4,1 z m -66,-2 v 3 l -1,-3 z m 100,1 h 1 v 1 h -1 z m 1,2 v -1 h 1 l 1,1 z m -111,10 v -1 l 2,3 -2,1 v -1 z m 84,5 -1,-4 4,1 v 4 z m -37,2 6,2 -2,2 z m 1,6 3,-2 2,3 v 1 l -4,2 -1,-3 z m 51,7 2,-6 2,1 -2,6 z m -109,-4 2,-1 1,2 v 1 z m 91,9 4,-2 8,5 1,1 v 1 h -1 -1 1 l 1,2 v -2 h 2 v 3 l 1,1 v 1 l -1,1 -5,-2 -4,-5 v -1 h -1 -1 z m 86,-1 v -1 h 2 v 1 z m -90,1 h 4 l -3,3 6,6 3,5 -3,-1 1,8 -3,1 v -1 l 1,-1 v -1 l -7,-7 h 5 l -4,-7 z m 84,0 2,-1 v 1 l -1,1 h -1 z m 11,0 h 1 v 1 h -1 z m -110,3 2,-2 3,3 -2,1 z m 38,-1 v -1 h 1 l 1,2 z m 65,1 -1,-2 1,1 z m 8,-1 v -1 h 1 l 1,1 h -1 z m -87,1 h 1 v 1 h -1 z m 69,1 1,-1 h 1 2 l 4,2 2,6 v 2 l 1,2 -2,2 -2,-1 2,1 -4,4 -1,-1 1,1 -3,7 4,4 h -4 l 5,6 -4,2 -6,-2 1,11 h 3 l -1,7 v 3 h -3 l -3,-4 2,6 3,8 3,-7 5,1 6,11 2,-1 -2,-5 3,1 2,-7 8,5 -6,3 v 7 h -5 l -1,4 2,-2 10,-3 -1,5 5,1 2,7 3,2 -2,-5 2,-1 2,4 v 7 l 8,2 -5,5 h -1 l -2,-1 5,4 6,3 v 2 l -3,-2 v 3 l 4,1 1,4 2,1 1,1 v 1 l 1,1 2,4 8,3 -7,5 -2,1 -1,1 -1,1 -1,1 v 1 l -3,2 -1,-1 h -1 l -1,1 -1,1 v 1 l -1,1 -1,-1 -1,1 -1,1 -2,1 -5,1 6,-6 -6,-1 1,3 -4,-2 h -1 l -1,1 -2,1 1,1 h 1 2 v 1 1 l 1,2 v 1 h -1 l -1,-1 1,1 v 1 h -2 l -2,-4 -2,1 -4,-3 -1,-3 4,2 v -2 l -3,-7 h 1 v -1 l -1,-1 -1,1 -2,-3 -4,2 -8,-8 -2,7 5,4 v 1 l -1,3 -4,-5 -2,4 -3,-2 3,-3 -1,-4 v -5 h -1 l -2,-2 -1,3 -7,-12 -5,3 5,3 v 2 l -4,-2 v 3 l 5,2 v 6 l 7,6 v 6 l 4,1 1,5 -2,3 3,1 1,1 v 1 l -7,-4 v -1 l -2,-1 -2,-3 -1,3 2,3 -3,2 v 1 3 l 9,1 -3,2 v 4 l -2,2 -1,-3 -1,-4 v 4 h -1 l -1,-1 1,1 v 2 l -2,3 -2,-2 2,-3 -3,-1 v 3 l -2,-1 v -1 l -3,-1 v 3 l -4,-2 -1,3 8,6 h 1 v 1 l -1,1 h -2 -1 l -2,-1 -1,-1 h -1 v -1 2 1 l -1,1 h -1 v -1 l -1,-3 -1,-1 -1,-1 -1,-1 v -1 l 1,-2 -3,-5 1,4 h -1 l -1,-1 -2,-3 -1,-1 v -3 -1 -1 -1 -1 -2 h 3 -3 l -3,-1 h -1 l -2,-15 3,-2 -8,-5 3,-5 -4,-1 -1,-4 -2,-2 4,-4 -2,-4 -1,3 -1,-5 v -1 l -3,-4 2,-3 h -3 l 2,-4 4,3 v 1 h 1 1 l 1,-5 h -7 l -2,-6 h 1 -1 l -1,-2 9,-3 h 1 l 3,2 1,-2 1,-1 v -1 l -1,1 v 1 l -3,-3 2,-12 h 3 l 1,9 1,-6 4,-1 6,9 -2,-8 -6,-3 -4,-13 3,1 1,-5 4,2 v -7 h 3 l -2,4 3,6 3,-6 v -1 l -3,-8 h 5 l 1,-6 v -1 l 1,-2 1,-1 6,-3 2,8 2,-1 -3,-11 4,2 4,-7 4,-1 2,-8 v -3 z m -3,-1 h 1 v 1 h -1 z m 18,2 1,-2 h 1 2 v 3 h -3 z m -105,0 2,4 v -5 l 4,8 1,1 1,2 1,1 h 1 v 1 l -5,-1 -3,3 v -3 l -5,-2 -1,2 -4,-2 v -3 l 5,-1 -1,-4 z m 50,3 v -3 l 2,1 z m 36,-3 h 1 v 1 h -1 z m -93,4 -2,1 1,-3 z m 52,-1 v -1 h 3 v 2 h -2 z m 39,-1 h 1 v 1 h -1 z m -1,2 h 1 v 1 h -1 z m -52,2 1,-1 h 1 z m 18,-1 h 1 v 1 h -1 z m 2,0 h 1 v 1 h -1 z m 28,1 1,-1 h 1 v 2 h -2 z m -24,2 2,-1 h 1 v 1 l -1,1 h -1 z m -20,1 3,-1 1,2 h -1 -2 z m 22,0 1,-1 1,2 h -1 -1 z m 18,1 2,-1 1,1 v 1 h -1 l -1,1 z m -96,0 h 1 v 1 h -1 z m 60,1 v -1 h 3 v 2 h -2 z m 7,0 -3,-1 h 1 2 z m -22,0 h 1 v 1 h -1 z m 20,1 2,-1 1,4 h -1 l -1,-1 -1,-1 z m -21,1 1,-1 v 2 h -1 z m 30,-1 1,2 -2,-2 z m -147,2 h 3 l -1,3 h -1 -1 z m 157,2 7,-3 h 1 l 1,2 h -1 l -1,1 -1,1 -1,1 v 1 l -2,1 v 1 l -1,1 -1,1 -1,-1 v -1 -1 l -2,-1 z m 11,-3 h 1 v 1 h -1 z m -49,4 -1,-2 h 1 1 z m 30,0 1,-2 h 1 3 l -2,2 z m 18,-2 h 1 v 1 h -1 z m 46,0 h 1 v 1 h -1 z m -212,2 h 1 v 1 h -1 z m 116,6 v -2 h 2 2 v 1 l -3,1 z m 44,-2 h 1 v 1 h -1 z m -38,1 h 1 v 1 h -1 z m 31,1 v -1 h 1 1 v 1 z m 62,-1 h 1 v 1 h -1 z m -100,1 h 1 v 1 h -1 z m 2,4 v -4 l 7,4 3,-2 2,2 -2,5 -3,-3 -5,1 -1,-1 -1,-1 z m 8,-3 h 1 v 1 h -1 z m 27,0 h 1 v 1 h -1 z m 65,2 h 1 v 1 h -1 z m -66,2 2,1 h -2 z m -21,0 h 1 v 1 h -1 z m 89,3 v -2 l 1,2 z m -66,-1 h 1 v 1 h -1 z m -1,1 h 1 v 1 h -1 z m 68,1 v -1 l 1,2 h -1 z m -179,2 3,-2 7,7 -11,-2 v -1 z m 51,3 -2,-2 2,-3 1,5 z m 36,-4 v -1 h 3 l 1,2 z m 23,-1 h 1 v 1 h -1 z m -1,2 1,-1 v 1 1 h -1 z m -110,2 -1,-2 h 1 z m 99,3 -1,-2 h 5 l 1,-3 1,1 h 1 1 v 2 l -1,1 -1,1 v 1 l -1,1 v 1 l -1,1 h -1 l -3,1 1,1 v 3 l -1,1 -1,1 -2,1 h 2 v 1 1 l -1,1 h -1 l -1,-1 h -1 v 2 l -3,1 -3,-3 3,2 -1,-5 4,-1 3,-2 1,-1 -1,-1 h -1 l -1,-1 v -1 l 1,-2 v -1 l 1,-1 z m -5,-4 -2,-1 h 1 1 z m 14,1 v -2 h 1 l 1,1 v 1 h -1 z m -55,1 3,-2 1,1 v 1 l -2,3 -1,-1 z m 6,-1 3,-1 1,4 6,1 v 2 l -2,2 -1,-1 -3,-2 -4,-3 z m 10,0 v -1 l 3,1 v 1 h -1 -1 z m 19,1 3,-2 2,2 v 1 h -3 z m 94,0 v -2 l 1,2 z m -110,0 h 1 v 1 h -1 z m 35,1 v -1 h 1 1 v 1 h -1 z m -33,1 6,1 2,1 -3,1 -1,-1 h -1 l -2,-1 z m 19,0 v -1 h 2 1 l 1,1 -1,1 h -1 l -1,-1 z m 90,-1 h 1 v 1 h -1 z m -132,3 -1,-2 h 1 z m 55,-2 h 1 v 1 h -1 z m 15,3 -2,1 2,-2 z m 64,1 v -2 l 1,2 z m -133,1 1,-2 2,2 h -1 z m -12,2 h -4 l -1,-3 z m 5,-2 v -1 l 2,1 h -1 z m 24,5 -1,-3 3,-3 2,2 -3,3 4,-1 v 1 l -4,1 z m 34,-4 v -2 h 1 1 l -1,2 z m -56,0 v -1 h 5 v 1 h -1 z m 7,1 1,-2 h 1 v 2 l 1,2 -6,-1 v -1 l 1,-1 z m 25,0 v -2 l 2,1 v 2 h -1 z m -38,5 -1,-5 h 4 l -1,4 v 1 z m 37,-5 h 1 v 1 h -1 z m 24,0 h 1 v 1 h -1 z m -52,1 h 1 v 1 h -1 z m -13,5 -1,-4 5,3 1,3 -2,3 4,2 h -7 2 v -1 h -2 v -1 l 1,-2 -1,1 v -3 h 2 z m 47,-2 1,-2 h 1 l 3,4 -3,-1 -1,-1 z m 17,-2 h 1 v 1 h -1 z m -67,3 v -2 l 1,2 z m 17,-1 v -1 l 2,1 z m 7,-1 h 1 v 1 h -1 z m 9,2 -1,-2 h 1 z m -34,2 h -2 v -3 l 2,1 z m 65,-3 h 1 v 1 h -1 z m -37,3 -1,-2 h 1 z m 5,0 1,-2 h 1 l 1,1 v 1 l -1,1 h -1 z m -30,-1 h 1 v 1 h -1 z m 45,1 3,1 -1,1 h -1 l -1,-1 z m -38,1 1,-1 h 1 v 1 z m 29,0 v -1 l 3,1 v 1 z m -11,1 1,-1 h 1 l -2,2 z m 22,0 1,-1 3,3 h -2 l -2,-1 z m 106,-1 h 1 v 1 h -1 z m -137,2 1,-1 1,1 z m 24,0 v -1 h 1 l 2,2 h -2 z m -75,3 -1,-2 h 1 v 1 z m 47,0 -1,-2 2,1 z m 144,-2 h 1 v 1 h -1 z m -155,5 h -3 v -4 l 2,1 z m -1,-4 h 1 v 1 h -1 z m -41,2 h 4 l -1,3 5,2 1,-6 h 5 l 3,6 h -4 l 3,5 -7,2 h -3 v 4 l 3,-3 -1,8 -9,2 v -2 l -1,2 -4,-2 v -1 l 2,-2 h 1 l 1,2 3,-4 1,-3 -1,3 -4,2 v -5 h -5 l 1,-2 1,-1 1,-2 3,-2 v -3 l 2,1 -2,-2 v -1 l 1,-1 z m 55,1 v -2 l 3,2 2,-2 h 2 l 1,1 1,1 1,1 -4,2 -5,-2 z m 13,-1 2,-1 v 1 1 z m -23,2 4,-2 -1,3 h 5 z m 25,-1 1,-1 2,1 -1,2 -1,-1 z m 33,1 1,-1 h 1 v 3 z m 98,-1 h 1 v 1 h -1 z m -123,3 -4,-1 h 4 z m 124,-2 h 1 v 1 h -1 z m -149,6 2,-5 h 1 l 1,1 v 2 l -1,1 -1,1 h -1 z m 41,-4 h 1 v 1 h -1 z m -37,2 3,1 -1,-2 h 2 v 3 l -1,1 -3,-2 z m 34,0 1,-1 h 1 1 v 1 2 l -1,1 h -1 l -1,-1 h -1 z m -3,3 -1,-2 2,2 z m 116,-2 h 1 v 1 h -1 z m -123,2 v -1 h 1 1 l 1,1 3,1 v 1 l -2,2 h -2 l -1,-3 z m 125,1 -1,-2 h 1 z m -115,-1 h 1 v 1 h -1 z m -62,1 1,2 h -3 l 1,-2 z m 18,2 h 4 v 7 l -1,-4 h -1 z m 4,-1 h 1 v 1 h -1 z m 3,0 h 1 v 1 h -1 z m 35,0 h 1 v 1 h -1 z m -1,1 h 1 v 1 h -1 z m -3,2 v -1 h 2 1 l -1,1 z m 122,2 -1,-3 h 1 1 v 1 2 z m -128,-1 2,-1 v 1 l -2,1 z m -50,8 -9,5 6,-5 -4,-8 h 3 l 1,5 7,-2 -2,9 v -3 l -2,-1 1,-1 z m 31,-8 h 1 v 1 h -1 z m 5,1 v -1 h 3 v 1 l -1,1 h -1 z m 21,0 1,-1 2,1 -1,1 v 1 h -1 l -1,-1 z m -27,0 h 1 v 1 h -1 z m 2,1 v -1 h 1 l 1,2 v 1 1 h -2 v -1 z m 8,1 v -2 h 1 l 1,2 h -1 z m -13,3 -1,-4 2,1 2,1 2,1 -1,3 h -1 l -1,-1 z m 1,-4 h 1 v 1 h -1 z m 151,2 v -2 l 1,2 z m -217,0 3,1 v 1 l -3,2 -6,3 -3,8 -5,5 h -1 l 2,-3 -2,-6 1,-2 h 2 l 2,2 v -2 l 2,-1 h -2 v -1 -1 -1 l 1,-1 3,-2 1,-1 2,-1 h 2 z m 90,1 v -2 h 1 v 1 1 z m -18,2 1,-2 h 1 l 1,1 h 1 l -2,1 z m 21,-1 v -1 h 1 1 l -1,1 z m -29,0 h 1 v 1 h -1 z m 26,1 3,-1 v 3 l -1,2 h -1 v -1 -1 -1 z m 130,0 -1,-1 h 2 v 1 z m -180,6 h 3 l 3,-6 v 5 l -3,6 -4,-3 z m 40,-4 v -2 l 2,1 v 1 z m 8,0 -2,-2 h 3 z m -24,-1 h 1 v 1 h -1 z m 5,3 v -3 h 3 v 1 l -1,2 z m -2,-1 -2,1 1,-2 h 1 z m 19,1 3,-2 1,1 v 2 l -3,-1 z m -97,-1 h 1 v 1 h -1 z m 110,2 v -2 h 2 z m -111,1 v -2 h 1 l 1,1 v 1 z m 81,0 -1,-2 h 1 z m 2,-2 h 1 v 1 h -1 z m 3,1 v -1 h 1 v 2 h -1 z m 1,1 2,-1 v 2 l -1,1 -1,1 -6,-2 v -1 h 3 1 z m 4,1 v -2 h 1 1 v 2 z m -45,6 h -3 l 1,-4 4,-2 2,2 -2,3 v -1 l -3,-1 z m 47,-6 h 1 v 1 h -1 z m -1,1 h 1 v 1 h -1 z m 4,2 -1,-2 h 2 z m 2,-2 h 1 v 1 h -1 z m 138,0 h 1 v 1 h -1 z m -149,1 h 1 v 1 h -1 z m 12,0 h 1 v 1 h -1 z m -9,1 h 1 v 1 h -1 z m 6,1 v -1 h 3 l -1,3 z m -40,5 -1,-5 1,2 v 1 l 1,2 z m 8,-3 2,-2 1,2 z m 29,1 -2,-3 h 3 v 1 z m -46,-2 h 1 v 1 h -1 z m 41,1 1,-1 1,3 -2,-1 z m -30,4 v -3 h 3 1 v 1 z m 9,0 v -4 h 3 l 2,1 z m 30,-4 h 1 v 1 h -1 z m -105,3 1,-2 3,4 -1,5 h -4 l -2,1 -1,3 -7,1 -1,-1 v -1 l 1,-1 2,-1 2,1 v -2 l 5,-5 h 1 l 2,2 -1,-3 z m 101,-2 h 1 v 1 h -1 z m 2,2 v -2 h 2 v 1 l -1,1 z m -48,1 4,-2 v 2 h -2 z m 43,0 v -2 h 3 v 1 l -2,1 z m 149,-2 h 1 v 1 h -1 z m -145,1 h 1 v 1 h -1 z m -103,1 h 1 v 1 h -1 z m 64,1 1,-1 h 1 v 2 h -1 z m 12,3 h -3 l 3,-4 z m 12,2 -2,1 v -7 l 4,2 -2,2 5,1 z m 15,-6 h -2 1 z m -48,3 v -2 l 2,1 v 1 1 h -1 z m 24,-2 h 1 v 1 h -1 z m -15,1 h 1 v 1 h -1 z m 14,0 h 1 v 1 h -1 z m -17,2 2,-1 h 1 v 1 l -1,1 -1,1 -1,1 -1,-1 v -1 z m 16,-1 h 1 v 1 h -1 z m -1,4 v -3 h 1 v 3 z m 19,1 -3,1 1,-3 z m -21,-1 h 1 v 1 h -1 z m -21,2 v -1 l 2,1 z m 42,1 v -2 l 3,1 z m -107,0 h 1 v 1 h -1 z m 110,1 2,-1 2,4 h 1 v -4 h 2 l -1,6 -7,-2 h 2 l -2,-1 z m -109,0 h 1 v 1 h -1 z m 107,2 -1,-2 h 1 z m -112,0 5,-1 -11,12 h -2 l 2,-4 h -3 l 2,-2 1,-1 v -1 l 1,-1 2,-1 h 1 1 v -1 z m 68,1 2,-2 v 1 l 1,1 v 1 z m 3,-1 h 1 v 1 h -1 z m 41,0 h 1 v 1 h -1 z m 13,2 3,-2 1,11 -4,2 -3,-2 -1,-1 3,-4 -4,2 -5,-1 v -1 h -1 v -2 h 6 l 1,2 z m 68,9 1,3 -3,-1 v -6 z m -74,0 1,-3 1,2 v 1 h -1 z m -132,0 h 1 v 1 h -1 z m 135,2 -1,-2 h 1 z m 3,0 2,5 2,-7 4,3 -5,9 -2,-1 -3,-1 v -8 z m -63,-1 h 1 v 1 h -1 z m -77,2 1,-1 h 1 l -3,7 z m 134,3 1,-2 1,5 z m 95,-2 h 1 v 1 h -1 z m -11,2 3,-1 6,5 -2,1 1,4 h -3 l 1,2 1,5 h -5 v -6 l 2,-1 -2,-4 2,-3 -3,-1 z m 48,0 v -1 h 2 v 1 h -1 z m -47,3 -1,-2 h 1 z m 19,4 1,-1 h 1 v 2 h -2 z m -221,1 4,-1 -3,8 5,-2 3,3 2,-4 h 4 l 2,3 -8,4 11,-1 -3,5 -2,2 h 4 l 2,-5 9,-4 4,2 -2,5 6,3 v 1 l -1,1 h 2 l -1,5 -1,1 1,-1 h 1 l 1,1 v -1 h -1 l 3,-1 -2,-5 5,-3 5,6 v 1 l -5,2 v 4 l 4,-3 1,2 v 1 l -4,7 4,-2 1,-5 h 3 l 1,3 2,-2 1,3 -5,5 7,1 -3,4 5,3 -2,2 h -1 l 1,2 h 1 v 1 1 h -1 l 1,1 1,-1 1,1 v 2 l 2,2 h 4 v 3 l 1,1 v 1 l 1,2 v 2 1 l 1,3 -3,1 2,1 -1,2 h -2 l -2,-1 v -1 h 2 l -1,-4 h -4 -1 l -1,1 -1,1 -1,-1 v -1 l -2,-2 v -1 l 1,-1 3,2 3,-1 h 1 l -1,-1 -1,1 h -2 l -3,-1 1,-4 4,1 v -4 l -6,3 -4,-2 -2,-3 -3,-6 4,-6 -7,3 -2,-3 6,-4 h -6 v 1 l -1,4 -6,-2 3,-5 -2,-3 -5,4 -1,-2 4,-8 -12,5 v -4 l -2,1 -4,-6 2,-5 -7,4 2,4 h -1 -1 l -1,-1 v -2 l -1,-1 -1,-1 h -1 v -1 l 2,-4 1,-2 h -6 l 1,-5 -5,1 -1,2 -10,-3 h -1 l -1,-1 v -1 h 1 l 3,-2 2,2 3,-2 1,2 2,-3 -3,1 -2,-4 h 4 v 1 l 1,-2 z m 123,4 v -2 l -5,2 -1,-4 7,1 4,6 -1,1 -2,2 -1,1 z m 28,-2 v -2 l 3,7 -2,-4 z m 69,-2 h 1 v 1 h -1 z m -236,3 -1,-2 3,1 z m 227,0 2,-1 4,2 z m -226,2 v -2 h 1 v 2 z m -1,0 h 1 v 1 h -1 z m 4,1 h 1 v 1 h -1 z m 201,0 h 1 v 1 h -1 z m -35,1 h 1 v 1 h -1 z m 64,1 2,-1 v 1 z m -63,1 v -1 h 1 v 2 1 z m 60,0 3,-1 v 2 l -2,1 h -1 z m 5,0 v -1 h 3 l -1,1 h -1 z m -103,1 v -1 h 1 z m 97,1 h 1 v 1 h -1 z m -97,1 h 1 v 1 h -1 z m 81,0 h 1 v 1 h -1 z m -5,3 -1,-2 h 3 l -1,2 z m 16,0 3,-1 -2,1 z m 4,-1 2,-1 v 1 l -1,1 h -1 z m -208,4 -3,1 -1,-4 z m 189,-2 4,1 -1,1 z m 6,1 v -2 l 1,2 z m 7,-1 2,-1 v 1 z m -92,1 1,-1 h 1 l -1,1 z m 82,1 1,-1 h 2 l -2,5 z m -92,1 v -1 h 2 v 1 z m 3,-1 h 1 v 1 h -1 z m 87,5 -2,-5 3,4 z m -189,-2 v -2 l 2,2 z m 33,-2 h 1 v 1 h -1 z m 65,0 h 1 v 1 h -1 z m 8,1 h 1 v 1 h -1 z m 50,1 h 1 v 1 h -1 z m 2,1 v -1 l 2,1 h -1 z m -53,0 h 1 v 1 h -1 z m -61,3 v -2 h 1 z m 55,-1 h 1 v 1 h -1 z m -51,5 2,-4 v 4 z m 137,-3 v -1 h 3 v 1 h -1 -1 z m 4,-1 h 1 v 1 h -1 z m -86,2 v -1 h 1 l 1,1 z m -95,1 v -1 l 3,2 h -2 z m 51,2 -3,3 -3,-2 6,-4 z m 98,-2 v -1 h 3 v 1 1 1 l -1,1 -1,-2 v -1 z m 18,2 3,-3 h 1 l 2,1 v 2 h -2 l -1,1 h -1 z m -169,-2 h 1 v 1 h -1 z m 2,1 h 1 v 1 h -1 z m 3,1 v -1 l 2,2 h -1 z m 55,0 1,-1 2,9 -1,1 h -1 -3 2 v 1 l -1,1 -1,3 -1,1 -3,4 h -3 l -1,-1 v -1 l 1,-1 1,-2 2,2 2,-3 -2,-2 -1,-4 3,-1 1,-1 1,-1 1,-1 z m 93,1 1,-1 h 1 1 v 1 l -1,1 v 1 h -1 l -1,-1 z m 7,-1 h 1 v 1 h -1 z m 17,0 h 1 v 1 h -1 z m -174,1 h 1 v 1 h -1 z m 5,2 -1,-2 2,2 z m 151,-2 h 1 v 1 h -1 z m 9,0 h 1 v 1 h -1 z m 2,0 h 1 v 1 h -1 z m -165,1 h 1 v 1 h -1 z m 153,0 h 1 v 1 h -1 z m 8,1 v -1 h 1 l 1,1 v 1 h -2 z m 3,0 v -1 h 1 v 1 1 h -1 z m -162,2 -1,-2 h 2 v 2 z m 2,0 v -2 l 3,3 h -1 z m 151,0 v -2 h 1 v 1 1 z m -72,0 1,-1 h 1 v 1 1 h -1 z m 67,0 1,-1 h 2 v 1 l -1,1 h 1 l 1,-1 h 1 l 1,2 h 1 v 1 1 h -1 -1 -1 l -1,-1 -1,1 -1,-1 v -1 l -1,-1 z m 7,0 v -1 l 2,1 v 1 1 h -1 l -1,-1 z m 2,-1 h 1 v 1 h -1 z m -157,3 v -1 h 1 v 2 z m 5,0 v -1 l 3,1 -1,1 h -1 z m 5,2 2,-3 1,2 -2,2 z m 149,-3 h 1 v 1 h -1 z m -151,2 v -1 l 1,2 h -1 z m 149,0 v -1 h 2 l -1,1 z m -153,2 h 1 v 1 h -1 z m 9,2 1,1 h -1 z m 1,5 h 1 v 1 h -1 z m 27,2 v -1 h 2 v 1 z m -21,1 v -1 l 4,2 -2,1 -1,-2 z m 23,-1 h 1 v 1 h -1 z m -20,6 v -1 h 1 l 2,1 h -1 -1 z m 5,1 4,-1 -1,3 v 1 2 h -1 v -1 l -1,-1 z m -1,0 h 1 v 1 h -1 z m 26,3 3,-2 -1,3 -1,1 h -2 v -1 z m -10,10 v -1 h 1 l -1,2 z m -1,1 h 1 v 1 h -1 z" />
      <path
         id="Path 1"
         fill-rule="evenodd"
         class="s1"
         d="m 272,655 1,-6 -5,1 2,4 h -6 l -1,-3 1,-4 4,1 -6,-6 5,-6 h 5 1 l 1,1 4,4 1,1 3,2 1,1 2,-1 h 1 1 l 1,1 h 1 1 v 1 l 1,1 1,1 v 1 l 1,1 1,1 h 1 v 1 h -3 l 1,2 1,1 h 2 l 1,-2 h 1 1 l 1,1 1,1 1,1 1,1 1,1 h 1 1 l 1,1 1,1 2,1 v 3 h 4 l 2,1 2,2 7,5 h -3 l -10,-7 -2,4 v -4 l -6,-2 v -2 2 h -5 l 2,5 -3,1 6,8 -7,2 1,4 -4,-5 1,-2 3,-2 -4,-1 -1,-4 -4,-1 -4,-3 3,-1 -2,-3 -4,1 z m 16,-11 h 1 v 1 h -1 z m -3,32 -3,-9 7,1 3,10 h 2 l -1,6 5,1 -1,6 h 3 l 1,-11 4,7 1,1 v 1 l -4,-1 1,4 3,1 v -4 -1 l -1,-1 6,-1 6,-8 4,1 -1,5 -6,2 6,8 -2,3 2,2 h 3 l -1,3 -2,-1 -2,6 -4,-3 -2,4 5,6 -5,-2 v 3 l -8,-5 -4,2 h -4 v 5 l 4,7 h -5 l -3,-3 h -3 l 1,3 -4,-8 -3,-3 -2,2 3,2 -4,1 1,4 -5,1 v 3 l -1,1 h -1 l -1,-5 v -2 h -2 l -3,1 2,-5 6,2 v 1 l -1,3 2,-1 1,-2 1,-4 -4,1 v -5 l -11,-6 -9,-5 v -4 l 6,2 5,-4 4,4 -3,2 v 1 l 1,3 4,-2 v -1 l -2,-3 2,-2 -6,-2 -2,-3 4,-3 v 4 l 7,2 5,4 3,-2 6,2 v -4 l -4,-2 v -5 l 4,-1 -8,-1 h 3 l -2,-4 -1,3 -1,-6 5,1 z m 36,3 1,-7 1,2 3,3 z m -26,-3 -3,-1 2,-2 z m 33,-1 -3,-1 2,-1 1,1 z m 0,0 h 1 v 1 h -1 z m 1,1 h 1 v 1 h -1 z m -4,28 -2,-9 6,3 -3,-9 4,1 1,-8 4,-1 -5,-4 h 2 l 9,6 -4,2 -1,1 -3,3 4,1 v -4 -1 l 4,-2 2,1 1,1 1,1 4,3 v 3 l -6,2 -1,6 -5,1 -3,-5 -1,6 -4,-3 z m -67,-12 -2,-2 2,-6 -5,-4 h 6 l 6,5 -3,1 2,5 z m -42,1 v -2 h 1 z m 102,14 2,1 2,-6 3,2 4,3 4,-5 h 4 l 3,6 -4,4 -3,-1 v 3 l 3,4 -2,-1 -2,-1 v 3 h -3 v -1 l 3,-4 -4,2 -2,-6 -2,2 h -2 -2 -1 z m 53,-2 h 1 v 1 h -1 z m 11,7 v -1 h 2 1 l -1,3 -1,-1 z m -79,9 -6,-6 3,-3 4,3 h 1 l 1,1 4,5 -2,7 v 1 l -1,1 -2,3 4,5 h -2 -1 v 2 1 l -3,-3 -1,7 4,2 2,2 -2,3 5,5 -6,-1 -2,-1 1,-1 2,-1 -4,-7 h -6 l -1,-3 6,2 1,-2 -5,-8 4,-1 3,-1 -1,-8 3,1 z m 17,-8 v -1 h 2 l 1,5 -8,3 v -3 l 4,-3 2,1 z m 58,2 v -2 h 1 1 1 l 1,3 1,-3 1,2 2,4 -2,4 -2,-6 z m 11,2 -2,-3 3,1 z m 2,-2 1,-1 h 1 v 1 z m -21,2 1,-2 v 1 1 z m 23,1 v -3 h 1 z m -80,-1 v -1 l 2,1 z m 15,2 v -3 l 1,2 z m 6,1 2,-2 3,4 1,1 1,1 -2,1 -6,-2 h 1 1 l 1,-1 h -1 l -1,-1 z m 59,-2 v 2 l -3,-2 z m 3,0 h 1 v 1 h -1 z m -68,1 h 1 v 1 h -1 z m 39,2 1,-2 v 1 1 z m -4,2 -2,-2 3,1 z m 34,-3 h 1 v 1 h -1 z m -78,6 -6,-1 -3,-4 5,2 2,-1 4,1 1,2 z m 46,-4 2,-1 v 1 l -1,1 v 1 h -1 z m -111,9 -5,-2 -1,-7 7,3 -4,1 z m 48,0 h -5 l 1,-4 -4,-1 1,-2 z m 40,-6 v -1 l 4,3 h -1 -2 z m 20,1 1,-2 h 2 v 1 l -1,1 h -1 z m -105,0 -2,-1 h 2 z m 66,1 -1,-2 6,2 h -1 -1 z m -43,1 1,-2 5,2 v 3 l -4,-1 -1,-1 z m 60,-2 h 1 v 1 h -1 z m 14,1 h 5 l 1,2 v 1 h -1 -1 -1 l 1,-2 z m 47,1 -1,-2 h 1 v 1 z m -137,4 -9,-3 2,-2 h 1 l 3,2 2,-2 1,1 1,1 z m 58,-5 h 1 v 1 h -1 z m 8,1 v -1 l 5,6 -4,-1 z m 11,4 3,-2 7,2 -1,-3 3,-2 1,3 -7,3 -2,3 -3,-2 2,-2 z m 42,-3 2,-2 6,14 5,10 v 3 l -3,-2 -3,2 2,6 2,1 2,-4 1,8 8,6 2,6 3,-1 -3,3 v 7 h 3 v 3 h -5 l -1,5 -5,-1 1,-5 -10,3 -1,-2 h 5 v -7 l 6,-3 -8,-5 -2,7 -3,-1 2,5 -2,1 -6,-11 -5,-1 -3,7 -3,-8 -2,-6 3,4 h 3 v -3 l 1,-7 h -3 l -1,-11 6,2 4,-2 -5,-6 h 4 l -4,-4 3,-7 z m -97,2 3,-3 5,1 v -1 l 2,3 h -3 l 1,4 z m 23,-2 v -1 l 1,4 h -1 z m 26,4 1,-4 2,2 -1,-2 3,3 -1,2 z m 66,-5 h 1 v 1 h -1 z m -73,2 -4,-1 h 2 2 z m 28,2 -1,-2 h 2 v 2 z m 46,-2 h 1 v 1 h -1 z m -145,3 -3,1 v -3 z m 7,-1 5,-1 4,6 -1,3 -3,-2 -1,-2 z m 43,-1 h 1 v 1 h -1 z m -81,2 -3,1 2,-2 z m 83,1 1,-2 7,4 v 3 z m 95,2 -1,-3 h 1 v 1 z m -110,-1 h 1 v 1 h -1 z m -5,3 4,-1 1,5 -5,-3 z m 61,-1 2,-1 v 1 1 h -1 -1 z m 55,0 h 1 v 1 h -1 z m -121,4 1,-2 h 1 l 1,1 1,2 h -3 l 1,2 h -1 l -1,-2 z m 62,-1 v -1 h 1 l 1,1 z m -40,1 1,-1 h 1 v 4 z m 16,4 h 5 l -1,-5 3,3 -5,8 h -1 l -1,-2 v -1 -2 z m 20,0 1,-4 1,1 1,4 h -1 z m 65,-4 h 1 v 1 h -1 z m -60,3 2,-1 -1,1 z m -67,11 -7,-4 v -3 h 3 l -2,-4 9,5 -2,3 2,2 -1,2 h -1 z m 129,-10 h 1 v 1 h -1 z m -99,2 5,-1 3,3 h 1 v 1 l -1,1 z m 32,0 v -1 h 2 v 1 l -1,1 h -1 z m -15,8 6,-2 -1,-5 1,1 h 1 l 1,2 -1,3 h -5 l 1,2 h -2 z m 5,-7 2,1 h -1 z m 9,0 h 1 v 1 h -1 z m 69,0 h 1 v 1 h -1 z m -112,3 v -2 l 2,2 -1,1 h -1 z m -5,1 4,-1 1,1 2,5 -6,-1 z m 25,-1 1,-1 4,1 2,1 -1,2 -2,-2 -3,2 z m 20,1 1,-1 v 2 1 h -1 z m 73,-2 h 1 v 1 h -1 z m -180,3 v -2 h 1 z m 69,-1 v -1 l 3,2 z m 40,-1 h 1 v 1 h -1 z m 72,0 h 1 v 1 h -1 z m -124,2 -1,-1 h 2 v 1 z m 11,-1 h 1 v 1 h -1 z m -11,2 1,-1 h 1 v 2 l 4,3 -7,3 h -1 l -2,-2 h -1 l -1,-1 v -2 l 1,-2 h 1 l 1,2 -1,2 2,-1 z m 52,-1 h 1 v 1 h -1 z m -38,1 h 1 v 1 h -1 z m 22,1 v -1 l 2,1 z m 90,1 -1,-2 h 1 v 1 z m -149,2 1,-3 3,3 3,-3 3,5 -3,-1 1,3 2,-2 h 1 v 1 l 1,1 2,2 -1,-2 h 4 v 1 1 h -1 v 1 l 1,1 v 1 l -3,2 -3,-2 v 3 h -1 l -1,-1 v -1 -1 l 1,-4 h -4 l -5,-3 -1,-1 z m 59,-2 -3,-1 h 3 z m 12,0 1,-1 h 1 v 1 h -1 z m 80,1 -2,-1 h 1 z m -116,2 v -2 l 6,3 -2,2 -2,-2 -3,3 1,3 -1,2 h -1 v -2 -5 z m 26,-2 h 1 v 1 h -1 z m 9,1 1,-1 h 1 l -1,1 z m -25,1 3,-1 3,4 h -4 l -2,-1 h -2 z m -48,6 3,-6 1,1 1,3 h 4 l 1,5 -5,-3 1,4 h -1 l -1,-1 -1,-2 z m 68,-4 3,-1 v 2 h -1 z m 87,1 -1,-2 h 1 z m -140,-1 h 1 v 1 h -1 z m 6,1 v -1 h 2 v 2 z m 4,1 5,-2 2,3 h -3 l -1,2 h -1 l -1,-1 z m 18,1 -4,1 3,-3 z m 26,1 v -3 h 1 v 3 z m 2,-3 h 1 v 1 h -1 z m -16,3 2,-2 6,3 -4,1 1,5 -3,-2 3,3 -1,1 -1,1 -2,-1 -3,-3 -3,-1 -11,-4 4,-1 7,2 4,-2 -1,2 1,3 1,-2 3,1 z m -9,-2 h 1 v 1 h -1 z m 17,1 h 3 l -3,2 v -1 z m -32,4 4,-2 1,2 -1,2 z m 38,-2 h 1 v 1 h -1 z m -44,2 -5,-1 h 2 3 z m -23,2 v -2 h 1 1 v 1 l -1,1 z m 23,-2 h 1 v 1 h -1 z m 5,2 v -2 h 1 v 2 z m -24,0 v -1 l 2,1 z m 20,0 h 1 v 1 h -1 z m 11,1 1,-1 h 3 v 1 z m -31,5 h 7 l -4,-2 2,-3 h 1 2 l 8,1 -1,1 -2,1 2,2 h 3 l -2,2 -3,-2 -1,-1 -2,-1 1,2 h 1 1 v 2 l 1,1 v 1 h -1 -2 -5 l 1,-3 -4,2 h -1 -2 l -1,-3 z m 24,-3 -3,-2 h 1 l 2,1 z m 0,0 2,-2 6,3 -1,4 -2,-1 h -1 v -1 l -2,1 z m 14,-1 v -1 l 2,1 h -1 z m -38,1 1,-1 -1,2 z m 45,-1 h 1 v 1 h -1 z m 109,2 h 1 v 1 h -1 z m -155,2 -2,-1 h 1 1 z m 53,-1 h 1 v 1 h -1 z m -7,9 2,-4 -4,-2 6,1 v 1 3 l -1,2 -1,1 z m 113,-7 h 1 v 1 h -1 z m -128,3 1,-2 5,2 h -4 l 4,1 -3,2 z m 19,-1 3,-1 -2,2 z m -30,2 4,-2 2,2 -2,2 4,2 -9,1 1,-1 h 1 v -3 z m 142,2 -1,-3 h 1 z m -146,0 v -2 h 1 l 1,1 1,2 z m -48,6 7,-2 -3,-5 h 4 l 2,2 v 1 1 l 3,6 4,8 -6,5 9,-5 2,1 v 3 1 l -1,2 -1,1 -2,-2 -4,2 -1,4 h 3 1 l 1,-1 2,-3 1,-1 4,3 1,5 v 1 l -1,1 -1,1 v 1 l -2,1 -4,-1 v -1 l 1,-1 v -1 h 2 v -2 l -4,2 -1,1 v 2 2 h 1 l 4,1 1,1 -4,4 2,3 h -3 v -1 l -2,-1 -2,2 h -3 l 1,-3 2,-2 h 1 2 l -2,-1 v -2 l -2,2 -2,-3 -2,2 -2,-1 v -1 1 l -1,2 -2,-2 -3,-2 -3,2 v -3 l -4,-1 -1,-1 v -1 1 l 1,1 -1,2 -8,4 -5,-6 -8,4 2,5 -2,3 -6,-1 -5,18 4,2 8,-8 -1,-3 4,-3 v 3 l 4,1 -2,2 -2,-2 -6,9 h 4 l 4,-7 1,4 -5,7 9,-4 2,-3 2,2 h -1 v 1 l 1,-1 h 2 l 5,3 -2,6 4,-1 1,1 4,2 v -4 l 3,-1 -1,3 -3,4 1,6 -6,1 2,3 4,-1 -3,4 v 1 2 l -5,-6 -5,3 h -1 l -1,-1 -6,-3 2,-5 -4,-2 -9,4 -2,5 h -4 l 2,-2 3,-5 -11,1 8,-4 -2,-3 h -4 l -2,4 -3,-3 -5,2 3,-8 -4,1 v 1 l -1,1 h -4 l 2,4 -3,2 -2,-2 h -1 v -1 l -1,-1 -2,-1 h -1 l -1,-1 -3,-1 1,2 h 1 v 2 h -1 l -1,-1 -1,-9 3,-7 v -1 l 1,-1 v -1 l 1,-1 1,-1 1,-1 h 3 l -2,4 h 2 l 11,-12 1,-1 7,-1 1,-3 h 1 l 1,-1 h 4 l 1,-5 1,-1 h 1 l 5,-5 3,-8 6,-3 3,-2 4,2 h 1 l 9,-2 1,1 -1,-1 1,-8 z m 46,-4 1,-1 h 1 l 3,2 3,3 h -2 l -1,1 -1,2 v 1 l -1,1 h -1 v -3 l -1,-1 -1,-1 v -1 l -1,-2 z m -2,0 h 1 v 1 h -1 z m 35,1 h 1 v 1 h -1 z m -37,2 h 2 -1 z m 36,0 v -1 h 1 v 2 1 h -1 z m 2,-1 h 1 v 1 h -1 z m -36,1 h 1 v 1 h -1 z m 153,2 v -2 h 1 v 1 1 z m -142,0 v -1 l 1,3 v 1 l -2,-2 z m 100,1 -2,2 1,-4 z m -81,0 v -1 h 2 v 1 z m -24,1 2,-1 v 1 h -1 z m 22,0 v -1 h 2 z m -13,1 v -1 l 2,1 h -1 z m 11,0 h -2 l 2,-1 z m -82,2 4,-2 -3,4 z m 74,0 -1,-2 h 6 v 6 z m 13,-1 2,-1 v 1 l -1,3 h -1 l -2,-1 v -1 l 1,-1 z m 94,0 3,-1 2,4 -2,1 2,5 -3,-2 z m 29,-1 h 1 v 1 h -1 z m -149,2 2,-1 h 1 v 2 h -2 l -2,-1 z m 12,0 h -2 1 z m -7,2 v -1 l 2,1 h -1 z m 145,-1 h 1 v 1 h -1 z m -131,3 4,-2 h 1 2 v 1 l -3,1 h -1 z m -22,1 v -2 1 z m 1,-1 v -1 l 2,1 -1,2 h -1 v -1 z m 9,0 2,-1 4,1 v 2 l -1,3 v 2 h -2 v -2 -1 h -1 l 1,-3 z m -28,5 v -5 h 1 l 1,1 v 1 2 l -1,1 z m 36,-4 3,-1 h 1 l 2,2 h 1 l -3,2 -4,-2 z m 138,-1 h 1 v 1 h -1 z m -153,2 1,-1 h 1 v 3 h -1 l -1,-1 z m 4,2 1,-2 v 2 z m 131,7 -8,-2 v -7 l 3,5 h 1 z m 19,-9 h 1 v 1 h -1 z m -131,3 v -2 h 1 v 1 1 z m -101,-1 h 1 v 1 h -1 z m 83,1 v -1 h 2 v 1 l -1,1 h -1 z m 10,2 v -2 l 1,3 1,2 v 1 h -2 -3 v -1 l 1,-1 1,-1 z m 4,-3 h 1 v 1 h -1 z m 136,0 h 1 v 1 h -1 z m -142,1 h 2 -1 z m -5,1 h -2 1 z m 148,0 h 1 v 1 h -1 z m -143,2 -1,-1 h 2 v 1 z m 7,0 v -1 h 1 l 1,1 -1,1 h -1 z m 2,-1 h 1 v 1 h -1 z m 135,2 h 1 v 1 h -1 z m -166,4 3,-1 -1,1 v 1 z m 139,3 5,-5 2,8 5,12 -2,-1 -1,-4 -4,-1 v -3 l 3,2 v -2 l -6,-3 -5,-4 2,1 z m -116,-2 1,-2 v 2 z m 2,0 2,-1 v 1 z m 142,-2 h 1 v 1 h -1 z m -174,2 1,-1 h 3 v 4 l -3,4 h 3 v 3 h -1 -1 l -7,-2 3,-4 -4,1 v -2 h 1 l 4,-2 v -1 z m 30,1 1,-1 h 1 v 2 h -1 -1 z m 145,-1 h 1 v 1 h -1 z m -166,3 2,-1 h 2 l 1,1 v 7 l 2,-1 -8,8 -4,-2 -5,2 3,-7 v 1 l 1,1 h 1 l 1,-1 v -1 -3 l 1,-1 h 1 l -1,5 6,-2 -4,-4 v -1 z m 19,0 2,-1 v 1 h -1 z m -100,1 1,-1 1,3 z m 65,1 h 1 v 1 h -1 z m 14,0 h 1 v 1 h -1 z m -23,2 h 1 v 1 h -1 z m 32,2 5,-1 v 1 l -1,3 3,-1 v 2 1 l 1,2 1,1 7,2 v 1 h -6 -2 v 1 1 l -1,4 -1,1 -6,1 3,-2 -1,-5 -5,-1 -4,3 v 5 l -4,1 4,-10 4,-1 -1,-3 3,2 v -4 l 4,-2 z m 144,11 4,1 -6,-10 3,-2 2,3 8,-2 5,7 h 5 l -1,6 2,-1 v 2 l -2,1 -1,1 -2,1 h -1 l -2,1 h -1 l -1,1 -6,3 h -1 -2 l 7,-5 -8,-3 z m 20,-11 h 1 v 1 h -1 z m -229,3 h -2 l 2,-1 z m 230,-1 h 1 v 1 h -1 z m -157,5 v -2 h 2 l -1,2 z m -42,0 h 1 v 1 h -1 z m -3,5 1,-4 3,1 z m 4,-4 h 1 v 1 h -1 z m 120,6 1,-3 2,2 h 1 v 5 h -2 z m -80,3 2,-4 h 1 1 v 1 l 5,1 -1,3 -2,3 -3,-1 1,3 -5,-5 z m 9,5 v -4 h 1 l 1,2 h 1 v 8 l 3,1 2,1 -1,1 -1,2 -7,-1 1,4 5,-2 v 2 l -2,1 -1,1 -1,1 -1,1 v 1 h -1 v -6 l -4,-7 h -3 l 7,-4 2,3 z m -62,-1 4,-2 1,1 -4,4 -1,-2 z m 1,5 h -3 l 1,-4 h 1 l 1,2 z m 190,-2 2,-1 v 1 1 h -1 z m -47,4 1,-3 1,2 v 1 l 1,1 2,4 -2,1 -1,-1 -2,-3 z m 44,-1 1,-1 v 1 z m 2,-1 h 1 v 1 h -1 z m -38,3 2,-1 2,2 1,3 v 1 l -2,1 h -1 l -1,-2 z m 31,2 v -2 h 1 v 1 z m -191,2 2,-2 -1,3 z m 172,0 -1,-1 h 1 z m -7,1 v -1 l 4,3 z m -28,3 1,-3 2,3 1,1 1,1 7,4 1,1 1,1 v 1 l 1,1 v 2 h -2 l -4,-1 v -1 l 1,-2 h -3 l 1,2 -9,-1 v -3 -1 l 3,-2 z m 23,3 -1,-5 1,1 h 1 l 1,1 h 1 l 1,1 v 1 h 1 l 2,2 v 2 h -1 l -2,-1 h -2 l -1,-1 z m 18,-4 5,-1 v 1 h -1 l -1,1 h -1 l -1,1 h -1 -2 v -1 h 1 z m -229,2 3,-1 -2,3 z m 199,3 -3,-1 2,-3 1,1 1,1 v 1 z m -210,-2 v -1 h 1 1 l 1,1 v 1 h -1 -1 z m 234,1 v -1 h 1 2 2 l -2,1 z m -66,0 h 1 v 1 h -1 z m 43,1 v -1 h 1 l 1,1 z m 21,1 v -2 h 2 v 1 1 l -1,1 z m -228,0 10,3 1,1 v 1 l 1,4 3,-1 1,1 v 2 l -5,-1 -2,-5 h -4 l -1,-1 -1,-1 -1,-1 z m 206,-1 h 1 v 1 h -1 z m 1,1 2,-1 2,1 1,1 1,1 -2,1 -1,-1 h -1 l -2,-1 z m 19,1 2,-1 v 1 z m -1,1 v -1 h 1 v 3 h -1 v -1 z m 3,-1 h 1 v 1 h -1 z m -101,4 v -1 l 2,1 z m 95,-1 h 1 v 1 h -1 z m -2,3 v -2 h 2 l -1,2 z m 3,-2 h 1 v 1 h -1 z m -150,3 5,-2 1,3 -3,1 -1,-1 z m 123,2 v -4 l 1,4 z m 19,-3 v -1 h 2 2 v 2 h -1 z m -41,4 -1,-4 3,5 z m 34,1 2,-5 h 1 v 1 l 2,2 -4,3 -1,1 -2,1 -1,-1 v -1 l 1,-1 z m 5,-4 1,-1 h 1 l 2,1 -4,2 -1,-2 z m -152,5 h 7 v -3 l 5,-2 v 1 l -1,1 h 1 v 4 l 3,-3 4,10 -2,1 -1,-4 -2,2 v -3 l -6,4 3,2 3,-3 -1,4 4,2 -3,1 1,4 -2,3 -1,2 h -1 l -5,-3 3,-4 -7,-1 5,-5 -1,4 h 3 l 1,-3 -3,-1 -1,-3 -1,-1 v -4 l -2,4 h -3 l -1,-1 -1,-2 1,-1 z m 56,-5 h 1 v 1 h -1 z m -70,2 1,-1 h 1 v 1 z m 26,0 v -1 h 2 v 1 z m 43,1 h -3 l 1,-2 1,1 z m 64,2 1,-3 4,2 v -3 l 3,1 v 1 l 2,1 1,1 2,2 v 1 h 1 v 1 l -3,3 h -1 -1 v -1 h -1 z m -170,-3 h 1 v 1 h -1 z m 65,0 h 1 v 1 h -1 z m -57,2 -2,-1 h 2 z m 98,2 h 1 v 1 h -1 z m 3,1 1,-1 v 2 h -1 z m -69,1 -1,-1 h 1 z m 67,-1 h 1 v 1 h -1 z m -96,2 v -1 l 1,1 v 1 h -1 z m 97,-1 h 1 v 1 h -1 z m 84,0 h 1 v 1 h -1 z m -179,1 h 1 v 1 h -1 z m 94,0 h 1 v 1 h -1 z m 83,1 v -1 l 1,2 -1,1 z m 3,-1 h 1 v 1 h -1 z m -120,2 h 4 l 4,7 2,-1 v 5 l -4,2 -1,-5 -3,1 z m 114,1 v -2 h 1 1 v 2 1 h -1 -1 z m -172,0 v -1 h 2 v 1 l -1,1 h -1 z m 31,6 4,-7 h 1 l -1,5 z m 121,-7 h 1 v 1 h -1 z m -149,3 v -1 h 1 l 1,2 h -2 z m 149,0 1,-1 h 1 v 1 h -1 z m 13,0 h 1 v 1 h -1 z m 2,0 h 1 v 1 h -1 z m -162,3 v -2 h 1 v 2 z m 164,-2 h 1 v 1 h -1 z m -11,1 h 1 v 1 h -1 z m 4,1 v -1 h 1 2 v 1 l -1,1 h -1 z m 5,0 v -1 h 1 1 z m -9,2 -1,-2 h 1 z m 3,-2 h 1 v 1 h -1 z m -153,1 h 1 v 1 h -1 z m 152,1 h 1 v 1 h -1 z m -148,2 -2,-1 h 1 1 z m 147,-1 h 1 v 1 h -1 z m 2,0 h 1 v 1 h -1 z m -154,1 h 1 v 1 h -1 z m 10,4 -3,1 -1,-5 h 1 l 1,1 v 1 l 1,1 h 1 z m 40,-3 v -1 h 1 1 z m -41,7 1,-3 h 1 v 1 1 1 z m 29,1 2,-2 v 1 1 z m -27,0 h 1 v 1 h -1 z m 3,3 v -3 l 2,1 h 1 v 1 z m 24,-1 -1,-2 1,1 z m 2,0 1,-1 h 3 l -3,4 -1,-1 -1,-1 v -1 z m -21,2 2,-1 v 2 1 h -1 z m 20,1 -1,-1 h 1 z m -18,4 v -2 h 1 l 1,1 1,1 1,-1 1,3 h -2 z m 6,4 h 1 v 1 h -1 z m 22,1 v -1 h 2 z m -21,0 h 1 v 1 h -1 z m 21,2 -1,-2 h 1 z m -17,2 3,-1 v 1 h -1 -1 z m 3,2 v -2 l 2,2 h -1 z m 3,2 1,-1 h 1 v 1 h -1 z m 3,1 h 1 v 1 h -1 z m 2,1 h 1 v 1 h -1 z" />
      <path
         id="Path 2"
         fill-rule="evenodd"
         class="s2"
         d="m 294,678 4,5 -1,-4 7,-2 -6,-8 3,-1 -2,-5 h 5 l 6,2 v 4 l 2,-4 10,7 -1,7 -4,-1 -6,8 -6,1 -4,-7 -1,11 h -3 l 1,-6 -5,-1 z m 29,-4 -1,-2 h 3 l 2,1 -2,1 3,1 2,2 5,4 -4,1 -1,8 -4,-1 3,9 -6,-3 2,9 -3,-2 1,-3 h -3 l -2,-2 2,-3 -6,-8 6,-2 1,-5 5,-2 z m -42,10 1,-3 2,4 h -3 z m 56,2 v 4 l -4,-1 3,-3 z m -4,16 1,-6 3,5 5,-1 1,-6 6,-2 v -3 l 2,1 3,2 1,1 3,2 2,2 5,3 1,1 2,1 4,4 h 1 l 1,5 -1,1 v 1 l -1,1 v 1 h -1 l -1,2 v 1 l -1,1 h -1 l -1,2 -2,1 h -1 l -3,-1 2,2 v 1 l -1,2 h -1 l -2,1 h -5 l 4,1 -1,2 h -3 l -1,-3 -3,2 1,3 -7,-2 -3,2 h -1 l -3,-3 h -1 l -1,4 -5,-6 h -2 l -6,-2 -1,-2 -4,-1 -2,-2 8,-3 -1,-5 h 2 l 2,-2 2,6 v 3 l 2,2 h 2 l 1,1 v 1 l 6,2 2,2 h 5 l -4,-3 h -1 l -2,-2 -6,-8 v -3 l 3,1 4,-4 -3,-6 z m -8,2 4,-5 4,3 -4,5 z m -13,11 v -3 l 5,2 -5,-6 2,-4 4,3 1,5 v 2 l -4,3 -2,-1 z m 72,-1 1,-3 h 4 l 1,1 h 1 l 1,1 v 1 l -1,1 h -1 l -3,-1 2,3 1,1 3,2 v -2 l 1,-3 h 1 l 1,2 v 1 l 1,1 v 1 l 1,1 2,4 v 1 l 1,2 1,1 v 1 l 1,1 v 2 l 1,3 h 1 v 1 l 1,1 v 1 l 1,1 v 1 l 1,1 v 1 l 1,1 v 1 l 1,1 v 2 l 1,1 v 1 l 1,1 v 1 h 1 v 2 l 1,2 2,1 v 3 l 1,2 -1,6 4,3 2,2 v 1 l 1,1 h 2 v 1 h 1 v 1 l 2,2 v 1 l 1,3 2,2 1,2 v 3 l 1,3 1,1 v 2 l 4,4 v 1 l 1,1 v 1 l 1,1 v 1 l 1,1 v 2 l 1,1 v 2 l 1,1 v 1 l 3,3 v 1 l 1,1 v 1 l 1,1 v 2 l 1,1 v 1 l 1,1 1,2 v 7 l -1,1 -2,1 1,-6 h -5 l -5,-7 -8,2 -2,-3 -3,2 6,10 -4,-1 -1,-1 v -1 l -1,-1 -5,-12 -2,-8 -4,-4 h -1 l -3,-5 -4,-8 -3,1 1,-5 h 5 v -3 h -3 v -7 l 3,-3 -3,1 -2,-6 -8,-6 -1,-8 -2,4 -2,-1 -2,-6 3,-2 3,2 v -3 l -5,-10 -6,-14 -1,-2 v -2 l 2,-4 -2,-4 z m -3,-1 1,-1 1,1 -1,3 z m -53,3 4,-2 -3,4 z m 65,-2 h 1 v 1 h -1 z m -103,10 -1,-3 h 3 l 3,3 -1,2 4,1 -1,4 h 5 v 1 l -1,1 v 1 l -4,1 h -3 l -1,-4 h 3 l -2,-3 h -1 l -1,-1 -1,-2 z m 18,4 2,-7 3,4 6,1 1,1 h 2 l 2,2 4,1 2,2 h 1 l 8,2 h 3 l 3,2 2,1 v 2 h -3 v 1 l -1,1 -1,4 v 2 l -1,1 1,1 v 1 l -1,1 h -2 l -1,1 h -2 l -1,-1 -1,-2 -2,-1 1,5 -6,2 h -1 l -2,-1 1,-2 v -1 h -1 l 5,-8 -3,-3 1,5 h -6 l -4,-4 h -1 l -2,-2 h -2 l -1,-1 h -2 l -4,-5 2,-3 v 1 l 1,1 1,2 8,5 v -3 l -7,-4 -1,-4 z m 49,4 v -2 h 1 v 2 z m -2,0 h 2 v 1 l -4,4 h -1 v -2 z m -49,15 -4,-2 1,-7 3,3 2,3 v 1 l 2,2 8,4 1,3 2,1 3,1 h 1 l 2,2 -1,2 v 1 l 1,1 h 1 l 1,1 -1,1 h -3 v 2 l -6,-3 -2,2 h -1 l -4,2 -7,-2 v -1 l -1,-2 2,-2 -6,-3 -2,-5 h 1 l 2,2 h 1 l 1,1 2,1 1,1 2,1 h 1 l 1,1 -2,2 v 2 l 1,1 h 3 v -2 h 4 l -3,-4 -2,-1 -5,-5 2,-3 z m 44,-9 h 1 v 2 l -1,1 v 1 l -1,1 -2,1 v 1 l -1,1 h -1 l -1,-4 v -2 h 4 z m -64,6 -1,-2 h 3 v 1 l -1,1 z m 10,2 h 6 l 4,7 -2,1 -1,-1 -3,-2 -4,-4 z m 48,0 h 1 v 1 h -1 z m -2,2 h 1 v 1 h -1 z m -45,3 h 1 v 1 h -1 z m -9,2 h 1 v 1 h -1 z m 51,0 h 1 v 1 h -1 z m -53,4 -2,1 1,-2 z m 50,-1 h 1 v 1 h -1 z m -49,5 7,-3 3,2 1,1 v 5 h -1 l -4,2 h -2 l -1,-1 v -1 l 1,-2 h 3 l -2,-3 -5,2 z m 48,-3 h 1 v 2 h -1 z m -60,2 -2,2 -1,-3 z m 58,2 v -2 h 1 v 2 z m -57,-1 h 1 v 1 h -1 z m 55,1 -1,-1 2,1 z m -53,0 1,2 -2,-2 z m 54,3 v -3 h 1 v 3 z m -1,0 h 1 v 1 h -1 z m -32,3 1,-2 h 1 l 11,4 v 1 l 2,2 2,1 h 2 l 2,1 1,1 v -2 l 1,-1 3,-1 v -2 h 1 l 1,1 v 2 l -1,1 v 1 l -3,3 h -1 l -1,1 v 2 h -2 l -2,2 v -3 h 1 l 2,-2 -3,1 -6,-1 4,2 -2,4 1,2 v 1 h -1 l -3,-1 -1,-1 h -2 v 1 l 1,1 1,3 v 1 h -2 l -4,2 h 2 l 4,-2 h 4 v 1 l -1,1 -2,1 h -1 l -1,1 h -1 v 2 l -4,2 h -1 v -6 h -6 l -2,-1 h -3 l -1,-3 h -1 l -3,-3 9,-1 -4,-2 2,-2 -5,-5 h -5 l -2,-2 2,-1 h 2 l -1,-1 -8,-1 v -4 l 3,2 3,-2 5,1 1,1 v 1 l 1,1 3,2 2,4 2,1 5,5 3,-2 v -1 l -5,-2 1,-4 -6,-3 -1,-1 v -2 l 4,2 1,1 h 5 l 3,1 h 1 v 1 l 1,1 h 2 l -2,-2 -2,-1 -3,-1 h -3 v -1 z m 30,-1 1,-1 h 1 v 1 z m -12,1 -1,2 -1,-3 h 1 z m 12,0 h -2 l 2,-1 z m -49,17 h 1 v 1 h -1 z m 35,1 1,-1 h 1 v 2 h -2 z m -1,3 v -2 h 1 v 2 z m -36,-1 h 1 v 1 h -1 z m 7,4 1,-2 h 1 v 1 z m 2,0 v -1 h 2 l 3,3 h 1 l 1,1 h 3 l 5,4 -3,1 -2,-1 -4,-1 h -1 l -1,-1 -2,-1 v -1 l -1,-2 z m 48,-1 h 1 v 1 h -1 z m -51,3 1,-1 1,1 -2,1 z m 27,3 1,-3 1,1 v 1 l -1,1 z m -3,0 v -1 l 2,1 z m -27,2 h 1 v 1 h -1 z m 8,0 h 2 l 3,1 -1,3 h -4 z m 7,5 1,-3 h 2 l 4,2 v 1 l 1,1 v 2 h -4 l -1,-3 z m -3,3 1,-1 h 2 l 1,1 v 1 l -1,1 h -2 l -1,-1 z m 12,-1 h 1 v 1 h -1 z m -6,4 h 2 l 2,2 h -1 l -2,1 h -1 z m -1,5 h 1 v 1 h -1 z m -36,3 4,-1 -3,4 7,2 -3,7 5,-2 4,2 8,-8 3,2 -4,2 v 4 l -3,-2 1,3 -4,1 -4,10 4,-1 v -5 l 4,-3 5,1 1,5 -3,2 6,-1 5,5 -1,-3 3,1 2,-3 h 1 v 4 l -1,2 -7,4 h 3 l 4,7 v 12 l -2,2 v 1 l -1,1 h -1 l -1,1 v 1 l -1,1 v 1 h -1 v -5 h -5 l -1,1 -1,2 h 3 v 2 l -1,1 1,1 h 1 v 3 l -1,1 v 1 l -1,1 v 2 h -1 l -1,1 h -2 l -1,1 1,1 v 1 l -2,2 v 1 l -7,10 -1,1 v 1 l -2,2 -4,11 -12,10 -1,1 -4,-2 h 3 v -2 l -2,-1 3,-1 -1,-3 v -5 l 2,-1 1,-1 1,-3 -3,2 -1,1 v 2 h -1 v -1 l -1,-1 v -3 h -4 l -2,-2 v -2 l 6,-8 1,-1 1,-3 1,-1 2,-1 1,-1 3,-1 1,5 4,-2 v -5 l -2,1 -4,-7 h -4 l -1,1 -1,3 -3,3 -4,-2 1,-4 2,-2 1,4 2,-1 -4,-10 v -1 l 3,-1 -1,-3 -10,4 v 3 h -7 l -1,-1 v -3 l 3,-4 -4,1 -2,-3 6,-1 -1,-6 3,-4 1,-3 -3,1 v 4 l -4,-2 1,-3 -2,2 -4,1 2,-6 -5,-3 h -2 l -2,-2 -2,3 -9,4 5,-7 -1,-4 2,-2 -4,-1 v -3 l -4,3 1,3 -8,8 -4,-2 5,-18 6,1 2,-3 -2,-5 8,-4 5,6 -2,1 h 2 v -1 l 8,-4 1,-2 4,1 v 3 l 3,-2 3,2 2,2 1,-2 2,1 2,-2 2,3 2,-2 v 3 h -1 l -2,2 -1,3 h 3 l -1,4 4,-3 1,-1 h 3 l -2,-3 7,-7 v -1 h 1 z m -20,23 -4,2 -1,1 h 1 v -1 l -1,1 -1,4 h 3 v -2 l 4,-4 v -2 z m 33,-22 1,-1 4,4 -6,2 z m -22,1 v -1 l 4,1 -1,1 v 1 l -4,-1 z m 38,19 1,-4 h 1 z m -87,9 6,-9 2,2 -4,7 z m 191,-5 1,1 v 1 h -1 z m 33,4 1,-1 1,1 -1,1 h -1 z m -1,1 h 1 v 1 h -1 z m -1,1 h 1 v 1 h -1 z m -6,3 1,-1 v 2 h -1 z m -1,1 h 1 v 1 h -1 z m -3,2 h 1 v 1 h -1 z m -3,2 h 1 v 1 h -1 z m -8,4 v -1 h 3 l -1,1 z m -26,3 v -1 h 2 z m -39,0 h 1 v 1 h -1 z m 58,4 v -3 h 2 v 1 z m -221,1 h 4 l 2,5 h -1 z m 215,0 2,-1 v 1 z m -1,0 h 1 v 2 l -1,1 z m 2,2 1,-2 h 1 v 1 z m -4,1 -2,-1 3,1 z m -144,1 v -1 l 2,1 z m 140,1 -2,-2 h 1 z m -202,1 v -1 l 5,1 2,1 h 1 l 1,1 v 1 h 1 v 3 h -2 l -3,-3 h -1 l -2,-2 h -1 z m 62,3 v -4 h 2 l 1,1 z m 98,-4 h 1 v 1 h -1 z m -54,4 1,-1 h 2 v 1 l -1,1 h -2 z m 76,1 h 1 v 1 h -1 z m 11,0 h 1 v 1 h -1 z m -10,1 h 1 v 1 h -1 z m 6,1 v -1 h 2 l 1,1 v 1 l -2,1 z m 3,-1 h 1 v 1 h -1 z m -181,1 h 1 v 1 h -1 z m 1,1 h 1 v 1 h -1 z m 153,0 h 1 v 1 h -1 z m 2,0 1,3 h -1 z m 21,2 v -2 h 1 v 2 z m -18,-1 h 1 v 2 h -1 z m -155,2 1,-1 1,1 v 1 h -2 z m 157,0 v -1 l 2,1 z m 7,-1 h 1 v 1 h -1 z m 4,1 1,-1 h 2 v 1 l -1,1 v 1 h -1 l -1,-1 z m -8,1 v -1 h 2 v 2 h -1 z m 5,-1 h 1 v 1 h -1 z m -14,2 1,-1 h 2 l 1,1 h 1 v 2 h -1 l -1,-1 h -3 z m 12,-1 h 1 v 1 h -1 z m 4,0 h 1 v 2 h -1 z m -123,5 h -3 l 1,-4 3,1 z m 114,-3 v -1 h 2 v 2 z m -8,0 h 1 v 1 h -1 z m 14,0 h 1 v 1 h -1 z m -160,1 h 1 l 2,1 1,1 v 1 l -1,1 h -2 l -1,-1 z m 149,1 1,-1 h 1 l -1,1 z m 4,1 v -2 h 1 v 2 z m 3,-1 1,-1 1,1 v 1 h -2 z m -2,1 h 1 v 1 h -1 z m -150,1 h 1 l 2,1 h 1 l 1,5 3,-1 v 1 l -1,3 -2,-2 -5,-4 z m 150,1 1,-1 h 1 v 1 l -2,1 z m -3,0 h 1 v 1 h -1 z m -109,7 h 1 v 1 h -1 z m -29,3 -2,-2 h 2 z m 1,0 v -1 h 2 v 3 z m 25,-1 h 1 v 1 h -1 z m -23,3 3,-1 h 1 l 2,4 h -2 l -1,-1 z m 25,0 1,1 -1,1 z m -14,9 -1,-1 h 2 v 1 z m 1,1 v -1 h 1 v 2 z m 1,1 h 1 v 1 h -1 z m 2,1 h 1 v 1 h -1 z m 10,3 v -1 h 3 z m -7,0 h 1 v 1 h -1 z m 2,1 v -1 h 1 v 2 z m 1,1 h 1 v 1 h -1 z m 5,3 h 1 v 1 h -1 z m 2,1 v -1 l 1,1 v 1 z m 101,-50 h -2 1 z" />
      <path
         id="Path 3"
         fill-rule="evenodd"
         class="s3"
         d="m 252,640 15,-5 v 1 l -15,5 z m 20,-4 -1,-1 2,1 z m 6,5 v -2 l 4,2 1,2 v -2 l 1,1 1,1 v 1 l -2,1 -1,-1 -3,-2 z m -32,10 5,-5 -1,-3 h 1 l 2,3 z m -3,1 1,-1 h 2 l -1,9 -10,5 -3,8 4,-1 1,4 -11,3 -5,10 -2,-3 1,-1 h 1 v -1 l 1,-2 6,-8 1,3 v -3 l 1,-2 v -1 -1 l 1,-1 4,-6 3,-4 h 2 v -1 l 2,-4 z m 50,2 -1,-2 h 3 1 v 3 h -2 z m 8,1 h 1 v 1 h -1 z m -73,19 1,-2 v 2 z m 47,13 -1,-3 5,1 2,10 -6,-1 -1,-2 h 3 z m -57,1 1,-1 v 2 z m 1,2 2,-1 7,5 -8,-3 -2,4 -1,-4 h -1 l 1,-1 z m -4,2 1,-1 v 2 h -1 z m -1,2 v -1 h 1 l -1,4 z m -2,4 v -1 h 2 z m -1,2 v -2 h 1 z m -2,1 1,-1 h 1 v 2 l -2,1 z m -2,5 2,-3 3,2 2,6 z m -2,1 h 1 v 1 h -1 z m -2,3 v -1 h 2 l 1,2 z m -2,2 2,-2 -2,3 z m 183,-1 2,-1 v 1 h -1 z m 4,0 v -1 l 4,2 h -1 -1 l -1,-1 z m -182,4 3,-4 1,15 h 4 l 1,5 5,-3 8,18 2,4 v 1 l 1,2 v 1 l -7,-5 h -2 l -5,-6 -17,-3 -2,-1 h -1 l -1,-1 -3,-2 -2,-1 1,-1 1,-3 h -3 v -2 l 1,-1 v -2 l 1,-1 1,-2 1,-1 1,-2 1,-1 4,-5 5,3 z m 113,-3 h 1 v 1 h -1 z m 54,0 h 1 v 1 h -1 z m -173,1 h 1 v 1 h -1 z m 176,1 2,-1 v 2 h -2 z m -4,0 h 1 v 1 h -1 z m -88,3 2,-1 v 5 z m 48,2 v -3 l 2,1 v 3 1 1 h -1 l -1,-1 z m 39,-2 v -1 h 1 2 4 v 3 l -2,8 -4,1 -4,7 -4,-2 3,11 -2,1 -2,-8 -6,3 12,-12 2,-5 v -5 z m -58,0 v 2 l -1,-2 z m -37,2 v -1 l 2,1 -1,2 z m 94,-1 h 1 v 1 h -1 z m -1,1 h 1 v 1 h -1 z m -96,3 -2,-2 h 2 z m 95,-2 h 1 v 1 h -1 z m -34,2 h 1 v 1 h -1 z m -114,6 -5,-4 3,-1 7,3 -1,3 h 6 l 2,7 -6,-3 -1,-1 z m 146,-5 h 1 v 1 h -1 z m -1,1 h 1 v 1 h -1 z m -101,3 h 10 1 l 1,-1 4,2 1,1 1,1 -3,5 -1,-4 -2,2 -5,-5 -6,1 -1,-1 z m 98,0 -1,-1 h 1 1 z m -36,2 v -2 h 1 l 3,1 -2,1 z m 35,-1 h 1 v 1 h -1 z m -53,3 v -2 h 1 v 3 h -1 z m 52,-2 h 1 v 1 h -1 z m -1,1 h 1 v 1 h -1 z m -170,4 1,-3 v 3 z m 1,0 h 1 v 1 h -1 z m 214,2 v -2 l 1,2 z m -124,6 -1,-5 3,1 2,3 v 1 z m 5,-4 1,-2 2,2 -1,2 -1,-1 z m 67,-1 h 1 v 1 h -1 z m 54,1 v -1 l 1,2 h -1 z m -100,2 v -2 h 1 v 2 z m 2,0 3,-1 h 1 1 l 1,1 h 1 l 1,1 1,1 h 1 l -3,2 z m -25,9 -2,-3 3,1 1,-3 h 1 l 2,5 6,-2 -1,5 -3,1 -1,-1 h -2 l -3,2 z m 35,0 2,-5 1,1 1,1 v 2 1 h -3 z m 29,-5 h 1 v 1 h -1 z m 2,6 6,-6 -1,6 z m -4,-4 h 1 v 1 h -1 z m -110,3 3,-2 5,2 -1,5 10,2 -1,2 4,5 7,2 3,1 v 2 h -1 l -2,-1 v 3 h 2 1 l 1,-1 h 1 l 1,1 v 3 1 1 h -1 -1 -1 v 4 h 3 2 1 l 8,1 h 2 l -2,5 1,1 1,2 h -1 -1 -2 v 1 h -4 l 2,3 h 1 l 1,4 v -7 h 1 1 1 1 l 1,1 1,1 v 3 1 l -2,-1 1,4 h -1 v 2 l 1,1 h 1 l -1,2 2,-1 1,1 1,2 v 1 l -11,-5 -4,-8 -18,-17 -5,-1 -3,-6 -5,-2 v -4 h -4 l -4,-5 h 5 l -6,-4 11,2 z m -11,0 v 2 l -2,-2 z m 118,1 h 1 v 1 h -1 z m 3,5 4,-5 3,8 -2,2 2,-1 -3,6 -3,-6 2,-4 z m -4,-3 h 1 v 1 h -1 z m -1,2 h 1 v 1 h -1 z m -60,2 h -2 l 2,-1 z m 57,8 8,-9 v 7 l -4,-2 -1,5 z m 1,-9 h 1 v 1 h -1 z m -62,5 4,-1 v -3 h 1 l 1,2 1,1 h 1 l -1,2 h -5 z m 9,3 v -2 h 1 z m 23,-1 v -1 h 2 v 2 h -1 z m -26,0 h 1 v 1 h -1 z m 52,0 h 1 v 1 h -1 z m -53,3 1,-1 6,1 1,1 1,1 1,1 1,2 h 1 v 1 l -1,1 -2,-1 -1,-1 -1,-1 v -1 l -1,-1 h -3 l -2,-1 z m 53,12 -2,-3 5,-1 -2,-4 2,-5 4,13 6,3 2,8 -6,-9 -4,1 -1,6 -1,-9 z m -2,-11 h 1 v 1 h -1 z m -2,1 h 1 v 1 h -1 z m -57,4 -1,-3 h 2 v 1 l 1,1 -1,1 z m 56,-3 h 1 v 1 h -1 z m -100,5 2,-2 v 3 l 1,2 v -1 -1 l 2,-3 6,2 15,13 -1,1 -1,2 h 3 l -1,-2 v -1 l 21,23 h 3 v 3 h 4 l 16,14 v 4 h -1 l -2,-4 -2,1 h -2 -1 v -1 l 3,-1 -3,-1 -2,-2 v -1 l -5,-1 2,-2 -4,-2 -1,-1 h -2 l -2,1 -1,1 h -1 l -1,1 -1,1 v 1 h -1 v -4 l 5,-3 v -1 l 1,-1 -3,1 h -3 l -1,-2 -2,2 -1,1 h -1 -1 -3 v 3 h -1 v -1 l -1,-2 v -1 l -1,-2 3,-6 h 1 l 1,-1 v -2 -1 l -1,-1 h -1 l -3,6 h -3 v -1 l 2,-9 -7,2 -1,-5 h -3 l -3,-6 v -1 -1 l -2,-2 -3,-6 h -5 l -1,6 -5,-2 1,-3 h -4 l 1,-1 1,-2 z m 98,-2 h 1 v 1 h -1 z m 94,1 h 1 v 1 h -1 z m 1,1 h 1 v 1 h -1 z m 2,1 h 1 v 1 h -1 z m -156,2 v -1 h 2 v 1 z m 157,-1 h 1 v 1 h -1 z m 1,1 h 1 v 1 h -1 z m -130,1 h 1 v 1 h -1 z m 35,1 3,-1 -2,12 3,3 -1,2 -3,-2 h -1 l -9,3 1,2 2,6 h 7 l -1,5 h -1 l -1,-1 -4,-3 -2,4 h 3 l -2,3 3,4 v 1 l 1,5 1,-3 2,4 -4,4 2,2 1,4 4,1 -3,5 8,5 -3,2 2,15 v 1 h -1 l -3,-7 -1,-2 -1,-1 -1,-2 v -1 l -1,-1 v -1 l -3,-5 -4,5 -3,-1 -9,16 -4,-6 1,-2 1,-1 5,-9 -4,-3 -1,-11 -3,2 -4,4 -1,-2 v -1 l 1,-6 5,-6 6,-1 13,20 -1,-8 -9,-14 1,-6 -3,-3 3,-4 2,-2 h -2 l 9,-21 4,-2 2,2 z m -9,0 h 1 v 1 h -1 z m -101,7 3,-6 2,2 -2,-1 v 3 z m 61,-5 v -1 l 5,2 v 1 h -2 l -1,-1 h -1 z m 147,3 v -3 l 2,4 h -1 z m -110,-2 h 1 v 1 h -1 z m -32,4 v -3 h 1 v 3 z m 33,-3 h 1 v 1 h -1 z m -2,4 h 1 v 1 h -1 z m -2,1 h 1 v 1 h -1 z m -81,3 -3,3 v -4 h 3 z m 76,0 2,-2 v 2 z m -93,0 h 5 v 5 h -1 l -2,2 -3,-1 -1,-1 4,-2 -3,-1 v -1 z m 69,0 v -1 h 2 1 v 1 l -1,1 h -1 z m 27,0 1,-1 h 1 l -1,4 -2,-1 v -1 z m 120,3 v -2 l 4,7 h -2 l -1,-1 v -1 l -1,-2 z m -149,-1 h 1 v 1 h -1 z m 1,1 h 1 v 1 h -1 z m 7,1 1,-1 h 1 v 2 h -1 z m -79,2 v -1 h 2 v 1 z m 99,-1 h 1 v 1 h -1 z m -101,2 v -1 h 1 1 z m 75,0 -2,-1 h 2 z m -76,0 h 1 v 1 h -1 z m 75,3 1,-3 h 2 1 l -1,2 v 1 z m -78,0 2,-2 h 1 z m 16,0 1,-2 v 2 z m 86,1 v -3 h 1 z m -27,0 1,-2 1,1 -1,1 z m 22,0 1,-2 h 1 l 1,1 v 1 1 h -1 l -1,-1 z m -98,-1 h 1 v 1 h -1 z m -2,2 h 1 v 1 h -1 z m -2,2 1,-1 h 1 v 2 h -2 z m 83,1 v -2 h 2 l 1,1 v 1 z m 6,0 v -2 h 1 1 v 1 z m 11,-1 1,-1 3,1 h 1 l -1,1 -1,1 h -1 l -1,-1 z m 5,-1 h 1 v 1 h -1 z m -101,2 v -1 h 2 z m 91,1 v -2 h 1 v 2 z m -96,0 v -1 h 1 l -1,2 z m 5,-1 v 2 l -2,-2 z m 86,8 -7,-7 6,2 1,1 h 1 1 l 1,1 2,3 v 1 h -3 l -1,-3 -1,1 z m -92,-5 v -1 h 1 l 2,6 -2,3 -1,1 -3,-4 v -1 l 1,-1 1,-2 z m 100,1 1,-2 h 1 l 1,1 v 1 z m -50,3 -1,-3 3,1 -1,1 v 1 z m 191,-3 v -1 l 1,3 h -1 z m 1,3 v -1 l 1,2 h -1 z m -148,4 -2,-3 2,1 z m -44,1 1,-1 h 2 v 1 l -1,1 z m 8,1 h 1 v 1 h -1 z m -8,3 v -2 l 1,1 v 1 z m -57,2 2,-1 -1,1 z m -6,0 2,-1 v 2 z m 83,1 v -1 h 1 1 v 1 l -1,1 h -1 z m 106,35 -1,-5 -4,-1 v -6 l -7,-6 v -6 l -5,-2 v -3 l 4,2 v -2 l -5,-3 5,-3 7,12 v 6 l 3,1 -1,-3 h 2 l 1,4 -3,3 3,2 2,-4 4,5 v 2 l 2,3 1,1 v 6 h 5 l 1,1 1,1 h 2 l 2,1 1,1 v 1 l -2,1 h -1 l -3,1 -2,1 h -2 l -1,1 -1,1 h -1 l -1,-1 -1,-2 -1,-1 v -1 -1 h 1 l 1,1 2,-1 -1,-1 -1,-1 -2,-1 -1,-1 -1,-1 -1,-1 z m -195,-32 1,-1 h 1 l 1,1 v 1 l -5,1 v -1 l 1,-1 z m 68,1 2,1 h -1 -1 z m -72,1 h 1 v 1 h -1 z m 115,1 v -1 l 2,1 z m -1,3 h 2 v 2 h -1 l -1,-1 z m 8,4 4,-2 -3,4 z m 83,9 -5,-4 2,-7 8,8 4,-2 2,3 1,1 3,7 v 2 l -4,-2 -2,-2 -6,-5 z m -217,-4 1,-2 v 1 1 z m 136,0 v -2 l 3,2 h -2 z m 3,0 4,-2 -2,7 z m 128,3 h 1 v 1 h -1 z m -2,1 h 1 v 1 h -1 z m -211,1 h 1 v 1 h -1 z m 164,2 v -2 l 3,1 -2,3 -1,-1 z m 21,3 4,2 -1,-3 6,1 -6,6 -1,1 h -1 l -1,-2 v -1 -1 -1 z m -4,2 2,-1 v 1 h -1 z m 2,1 v -1 h 2 v 1 z m -222,1 1,-1 -1,2 z m 208,1 -1,-2 h 3 l 1,2 h 1 l 6,1 2,-1 2,4 h -1 l -2,1 -3,1 -2,-2 -1,-1 -1,-1 h -1 l -1,-1 h -1 z m -223,0 2,-1 v 1 h -1 z m 247,0 2,-1 -1,1 z m -245,2 v -2 h 1 1 l 2,1 v 1 l -1,1 h -1 -1 z m 135,0 2,-1 1,7 v 2 l -1,2 -1,1 -8,8 -2,2 -1,1 -1,-1 v -2 -1 h 1 l 1,-1 v -1 l 1,-1 1,-1 1,-1 1,-1 1,-1 v -1 h 2 l -2,-1 v -1 l 1,-1 -1,-1 v -1 l 1,-1 v -1 l 1,-1 1,-1 z m 67,0 2,1 h -1 z m -203,1 v -1 h 1 v 1 1 z m 5,-1 h 1 v 1 h -1 z m -1,2 v -1 h 1 1 1 l -3,2 z m 166,0 1,-1 3,1 v 2 l -1,1 1,1 v 1 1 3 h -1 l -2,-4 v -1 -1 -2 h -1 z m -168,1 h 1 v 1 h -1 z m 138,2 2,-2 v 2 z m 95,-1 h 1 v 1 h -1 z m -219,2 5,-1 -1,5 h 6 l -1,2 -2,4 -2,-2 -1,-1 -4,-3 v -1 l -1,-1 z m 126,-1 h 1 v 1 h -1 z m 71,2 -1,-1 2,1 z m -74,1 h 1 v 1 h -1 z m 90,2 1,-1 h 1 l -1,1 z m -24,2 3,-2 h 1 v 1 l 3,2 1,4 h -2 l -3,-4 2,5 v 1 l -1,1 h -3 l -1,1 v 1 l -1,1 h -1 -1 l -2,-1 v -1 l -1,-1 h -1 l 2,-3 v -2 h 1 1 l 1,3 2,-2 z m -31,1 1,-1 2,3 h -1 -1 z m -50,1 v -1 h 1 v 1 3 l -1,1 h -1 l -1,1 h -1 v -1 -1 -1 l -1,-1 v -1 h 2 1 z m -95,8 -2,-4 7,-4 -2,5 4,6 2,-1 v 4 l 12,-5 -4,8 -2,3 h -1 l -1,-2 -3,-1 -3,-3 -2,-2 -2,-2 z m 25,-7 1,-1 2,5 -3,1 h -1 z m 141,2 v -3 l 3,1 -2,3 z m -17,-1 h 1 v 1 h -1 z m -1,3 v -2 h 1 2 1 l -1,2 v 1 l 1,1 1,1 h -1 -3 z m -113,2 -4,3 v -4 l 5,-2 v 2 z m -44,-2 h 1 v 1 h -1 z m 2,2 h 1 v 1 h -1 z m 100,0 h 1 v 1 h -1 z m 87,0 h 1 v 1 h -1 z m -185,2 -1,-1 h 1 2 v 1 z m 98,0 1,-1 h 1 2 l -3,3 -1,1 h -1 v -1 -1 z m -96,0 h 1 v 1 h -1 z m 152,0 h 1 v 1 h -1 z m 4,0 h 1 v 1 h -1 z m -154,1 h 1 v 1 h -1 z m 44,1 -2,2 -1,-3 h 2 z m 109,-1 h 1 v 1 h -1 z m -152,1 h 1 v 1 h -1 z m 164,1 1,-1 h 1 v 1 1 h -1 -1 z m 3,0 v -1 l 2,1 h -1 z m -76,0 h 1 v 1 h -1 z m 67,1 v -1 h 1 2 v 1 l -1,1 v 1 h -1 v -1 z m 11,-1 h 1 v 1 h -1 z m 4,0 h 1 v 1 h -1 z m -171,1 h 1 v 1 h -1 z m 151,0 h 1 v 1 h -1 z m 4,0 h 1 v 1 h -1 z m 4,0 h 1 v 1 h -1 z m 11,0 h 1 v 1 h -1 z m -82,1 h 1 v 1 h -1 z m 62,0 h 1 v 1 h -1 z m 10,1 v -1 h 1 1 v 1 h -1 z m 4,-1 h 1 v 1 h -1 z m -148,5 5,-4 2,3 -3,5 6,2 1,-4 v -1 h 6 l -6,4 2,3 7,-3 -4,6 3,6 -4,1 h -1 l -1,-1 -2,-1 v -1 -2 l -4,-2 h -1 l -2,-1 h -1 l -1,-1 h -1 v -1 -1 -1 -1 l -1,-1 h -1 l -1,-1 v -1 z m 70,-4 h 1 v 1 h -1 z m 65,0 h 1 v 1 h -1 z m 14,0 h 1 v 1 h -1 z m -162,1 h 1 v 1 h -1 z m 82,1 h 1 v 1 h -1 z m 66,1 h 1 v 1 h -1 z m -144,2 1,-1 v 2 h -1 z m 149,0 h 1 v 1 h -1 z m -108,5 2,-3 2,2 -2,3 z m -32,-1 h 1 v 1 h -1 z m 28,7 v -1 h 2 v 1 h -1 z m -19,5 -1,-1 h 2 v 1 z m 1,1 v -1 h 1 v 2 z m 2,-1 h 1 v 1 h -1 z m 6,3 1,-3 2,3 -1,1 h -1 z m -5,-2 h 1 v 1 h -1 z m 8,2 4,2 6,-3 v 4 l -4,-1 -1,4 -1,1 -3,1 -2,-2 v -1 h -1 v -1 l -1,-1 v -2 h 1 1 z m -6,2 h 1 v 1 h -1 z m 14,6 -3,-2 3,1 z m -6,0 h 1 v 1 h -1 z m 3,2 h 1 v 1 h -1 z m 4,2 1,-2 h 4 l 1,4 h -2 -1 l -1,-1 h -1 -1 z m 8,4 1,-2 v 1 1 z" />
      <path
         id="Path 4"
         fill-rule="evenodd"
         class="s4"
         d="m 252,640 10,-15 h 1 l 20,16 h -1 l -4,-2 -1,-1 -2,-1 -1,-1 h -1 l -2,-1 h -4 z m -2,3 2,-3 v 2 l -1,1 z m -6,8 6,-8 1,3 -5,5 z m -6,8 4,-5 -2,4 v 1 z m -21,31 1,-2 1,1 v 1 z m -5,7 2,-3 v 3 z m -2,3 1,-2 v 2 z m -5,7 4,-6 v 2 l -2,3 -1,1 z m -2,2 2,-2 v 2 z m 170,5 v -1 h 1 l 2,1 v 1 h -1 l -1,1 h -2 v -1 z m -2,4 v 5 l -2,5 -13,13 -1,2 v 1 l -6,6 -4,5 -8,9 -2,5 2,4 -5,1 2,3 -3,1 h -1 l -1,1 -4,2 -9,21 v 2 l -3,4 3,3 -1,6 9,14 1,8 -13,-20 -6,1 -5,6 h -2 l -16,-14 h -4 v -3 h -3 l -21,-23 -15,-13 -6,-2 -2,3 h -1 v -3 l 1,-1 3,-6 -35,-24 17,3 5,6 2,2 v -2 l 7,5 6,4 h -5 l 4,5 h 4 v 4 l 5,2 3,6 5,1 18,17 4,8 11,5 7,7 2,3 h 4 l 1,-1 h 1 l 1,-1 v -1 l 1,-1 1,-3 3,-3 v -1 l 2,-2 1,-2 1,-3 3,-3 v -1 l 1,-1 1,-4 v -1 l 1,-1 h 1 l 2,-2 v -2 l 1,-1 v -3 h 1 l 4,-4 v -1 l 1,-1 v -1 l 2,-2 v -1 l 2,-2 h 1 l 1,-1 v -2 l 2,-2 1,-2 v -2 l 3,-3 h 1 l 1,-1 v -1 l 1,-1 v -1 l 1,-1 v -1 l 7,-7 v -1 l 1,-1 v -1 l 7,-7 v -1 h 1 l 3,-3 v -1 l 1,-1 h 1 l 3,-3 v -1 z m -182,16 h 1 v 1 h -1 z m 38,41 1,-1 -1,2 z m -1,1 h 1 v 1 h -1 z m 201,0 1,2 h -1 z m -213,19 3,-3 3,1 -4,2 z m -9,7 2,-2 v 2 z m 56,13 h 1 v 1 h -1 z m 9,9 h 1 v 1 h -1 z m 40,37 9,-16 3,1 4,-5 3,5 -17,16 -2,2 h -1 v -2 z m 27,-1 h 1 v 1 h -1 z m 66,3 h 1 v 1 h -1 z m -96,1 h 2 v 1 l -2,2 h -1 v -2 h 1 z m -2,5 1,-2 v 1 z m 91,0 h 1 v 1 h -1 z m -55,3 -1,-2 h 1 l 1,1 z m -44,-1 h 1 v 1 h -1 z m -2,2 h 1 v 1 h -1 z m 49,5 -2,-4 h 1 l 1,1 z m -156,1 h 1 v 1 h -1 z m 102,0 h 1 v 1 h -1 z m 58,3 v -1 h 1 l 1,1 z m -155,1 -2,-1 h 2 z m 8,8 -8,-8 h 2 l 4,4 h 1 l 1,2 z m 87,-6 h 1 v 1 h -1 z m 69,0 h 1 v 1 h -1 z m -70,1 h 1 v 1 h -1 z m 77,1 h 1 v 1 h -1 z m -79,1 h 1 v 1 h -1 z m -1,1 h 1 l -1,2 z m -1,2 h 1 v 1 h -1 z m -1,1 h 1 v 1 h -1 z m -1,1 h 1 v 1 h -1 z m 74,0 h 1 v 1 h -1 z m -132,16 h 1 v 1 h -1 z" />
      <path
         id="Path 5"
         fill-rule="evenodd"
         class="s0"
         d="m 268,640 6,5 -3,2 -4,-4 z m 10,1 h 1 v 1 h -1 z m 4,3 h 1 v 1 h -1 z m 3,0 h 1 v 1 h -1 z m -7,9 h 1 v 1 h -1 z m 15,1 h 1 v 1 h -1 z m 7,0 h 1 v 1 h -1 z m -60,4 h 1 v 1 h -1 z m 52,0 h 1 v 1 h -1 z m -61,15 h 1 v 1 h -1 z m 46,1 h 1 v 1 h -1 z m 51,0 h 1 v 1 h -1 z m -106,8 h 1 v 1 h -1 z m 93,0 h 1 v 1 h -1 z m 28,2 h 1 v 1 h -1 z m -46,14 2,5 h -5 l -4,-14 4,-4 2,4 -3,2 3,1 -2,1 h 2 l 1,3 -3,1 z m -39,-10 h 1 v 1 h -1 z m 43,7 h 1 v 1 h -1 z m -4,3 h 6 v 4 h -3 z m -21,0 5,5 v 2 l -5,-2 z m -13,1 h 1 v 1 h -1 z m 25,0 h 1 v 1 h -1 z m 31,0 h 1 v 1 h -1 z m -47,2 h 1 v 1 h -1 z m 35,0 h 1 v 1 h -1 z m 61,1 h 1 v 1 h -1 z m 2,2 h 1 v 1 h -1 z m -63,2 h 1 v 1 h -1 z m 29,1 h 1 v 1 h -1 z m -55,2 h 1 v 1 h -1 z m 25,1 h 1 v 1 h -1 z m 56,3 v -1 h 1 1 z m -83,0 h 1 v 1 h -1 z m 82,0 h 1 v 1 h -1 z m -154,3 h 1 v 1 h -1 z m 133,1 v -1 l 6,1 h 1 l 1,1 v 1 3 h -2 l -2,-2 h -1 -1 l -1,-1 -1,-1 z m -137,0 2,5 h -5 z m 181,0 h 1 v 1 h -1 z m -56,1 h 1 v 1 h -1 z m 26,4 1,-3 v 1 h 1 1 v 2 l -1,1 z m -51,-2 h 1 v 1 h -1 z m 31,1 h 1 v 1 h -1 z m 22,2 1,-1 h 1 v 2 h -1 -1 z m 10,-1 h 1 v 1 h -1 z m 8,0 h 1 v 1 h -1 z m -27,2 h 1 v 1 h -1 z m -72,2 h 1 v 1 h -1 z m -72,1 4,9 -9,-4 6,1 z m 54,0 h 1 v 1 h -1 z m 17,0 h 1 v 1 h -1 z m -74,1 h 1 v 1 h -1 z m 64,0 h 1 v 1 h -1 z m 16,0 h 1 v 1 h -1 z m 1,1 h 1 v 1 h -1 z m 13,0 h 1 v 1 h -1 z m -80,6 -4,-2 3,-2 z m 11,-3 h 1 v 1 h -1 z m 121,0 h 1 v 1 h -1 z m 10,1 h 1 v 1 h -1 z m -161,1 h 1 v 1 h -1 z m 160,0 h 1 v 1 h -1 z m -141,1 h 1 v 1 h -1 z m 54,0 h 1 v 1 h -1 z m 86,0 h 1 v 1 h -1 z m -139,1 2,4 -6,-2 z m 87,0 h 1 v 1 h -1 z m 51,0 h 1 v 1 h -1 z m -47,1 h 1 v 1 h -1 z m -21,1 h 1 v 1 h -1 z m 1,1 h 1 v 1 h -1 z m 64,1 h 1 v 1 h -1 z m -30,4 h 1 v 1 h -1 z m 89,0 h 1 v 1 h -1 z m -63,1 h 1 v 1 h -1 z m -40,2 -1,2 -2,-3 z m 35,0 h 1 v 1 h -1 z m -9,1 h 1 v 1 h -1 z m 1,1 h 1 v 1 h -1 z m -34,2 h 1 v 1 h -1 z m -10,1 h 1 v 1 h -1 z m 88,1 2,2 -2,1 z m -97,2 h 1 v 1 h -1 z m 105,1 3,1 -1,3 z m -135,1 h 1 v 1 h -1 z m 32,1 h 1 v 1 h -1 z m -17,1 h 1 v 1 h -1 z m 124,2 h 1 v 1 h -1 z m -81,1 h 1 v 1 h -1 z m -28,1 h 1 v 1 h -1 z m 106,7 -1,2 -7,-4 -1,-3 5,-2 z m -61,-6 h 1 v 1 h -1 z m -74,1 h 1 v 1 h -1 z m 37,0 h 1 v 1 h -1 z m -30,2 3,1 -1,3 -2,-1 v -1 z m 137,-1 h 1 v 1 h -1 z m -108,1 h 1 v 1 h -1 z m 3,0 h 1 v 1 h -1 z m -33,1 h 1 v 1 h -1 z m 9,0 h 1 v 1 h -1 z m 133,0 h 1 v 1 h -1 z m -134,1 h 1 v 1 h -1 z m 9,0 h 1 v 1 h -1 z m 14,0 h 1 v 1 h -1 z m 1,1 h 1 v 1 h -1 z m -29,2 h 1 v 1 h -1 z m 19,0 h 1 v 1 h -1 z m 110,0 h 1 v 1 h -1 z m -130,1 h 1 v 1 h -1 z m 2,1 v -1 l 2,1 -1,1 z m 16,-1 h 1 v 1 h -1 z m 97,0 h 1 v 1 h -1 z m -108,1 h 1 v 1 h -1 z m 54,0 h 1 v 1 h -1 z m -58,1 h 1 v 1 h -1 z m 18,0 h 1 v 1 h -1 z m 41,0 h 1 v 1 h -1 z m 17,0 h 1 v 1 h -1 z m 47,2 h 1 v 1 h -1 z m -122,1 h 1 v 1 h -1 z m 58,0 h 1 v 1 h -1 z m -4,1 h 1 v 1 h -1 z m -33,2 h 1 v 1 h -1 z m 3,0 h 1 v 1 h -1 z m 113,3 2,-3 1,3 z m 29,-1 h 1 v 1 h -1 z m -26,1 h 1 v 1 h -1 z m -159,1 h 1 v 1 h -1 z m 35,4 h 1 v 1 h -1 z m 2,0 h 1 v 1 h -1 z m 5,0 h 1 v 1 h -1 z m 40,0 h 1 v 1 h -1 z m -44,1 h 1 v 1 h -1 z m 7,0 h 1 v 1 h -1 z m 32,1 h 1 v 1 h -1 z m 9,0 h 1 v 1 h -1 z m -74,1 h 1 v 1 h -1 z m 24,1 h 1 v 1 h -1 z m -59,1 h 1 v 1 h -1 z m 88,0 h 1 v 1 h -1 z m -31,1 h 1 v 1 h -1 z m 34,1 h 1 v 1 h -1 z m 123,1 h 1 v 1 h -1 z m -201,1 h 1 v 1 h -1 z m 29,0 h 1 v 1 h -1 z m -28,1 h 1 v 1 h -1 z m -11,1 h 1 v 1 h -1 z m 3,0 3,1 -4,1 z m -5,1 h 1 v 1 h -1 z m 96,0 h 1 v 1 h -1 z m -102,1 3,1 -4,1 z m 48,1 h 1 v 1 h -1 z m 30,0 h 1 v 1 h -1 z m -53,3 2,-2 h 1 l 2,3 z m 77,-2 h 1 v 1 h -1 z m -14,1 h 1 v 1 h -1 z m 2,0 h 1 v 1 h -1 z m -90,5 -4,2 4,-6 z m 24,-4 h 1 v 1 h -1 z m 28,0 2,2 -4,3 z m -13,1 h 1 v 1 h -1 z m 73,0 h 1 v 1 h -1 z m -57,1 h 1 v 1 h -1 z m -7,1 h 1 v 1 h -1 z m 13,2 h 1 v 1 h -1 z m -60,4 -1,-2 4,-1 -2,3 z m 51,-3 h 1 v 1 h -1 z m -52,3 h 1 v 1 h -1 z m 65,0 h 1 v 1 h -1 z m 44,0 h 1 v 1 h -1 z m 120,0 h 1 v 1 h -1 z m -244,1 h 1 v 1 h -1 z m 2,0 h 1 v 1 h -1 z m 73,0 h 1 v 1 h -1 z m -23,1 h 1 v 1 h -1 z m 6,0 h 1 v 1 h -1 z m 187,0 h 1 v 1 h -1 z m 1,2 h 1 v 1 h -1 z m -197,2 h 1 v 1 h -1 z m 198,0 h 1 v 1 h -1 z m -253,1 h 1 v 1 h -1 z m 58,2 h 1 v 1 h -1 z m 19,0 h 1 v 1 h -1 z m -32,5 h 1 v 1 h -1 z m 64,1 h 1 v 1 h -1 z m -4,2 h 1 v 1 h -1 z m -12,1 h 1 v 1 h -1 z m 3,0 h 1 v 1 h -1 z m 148,5 -2,-4 2,-1 1,4 z m -188,-3 h 2 v 1 l -1,1 h -1 z m 41,-1 h 1 v 1 h -1 z m -122,2 h 1 v 1 h -1 z m 79,0 h 1 v 1 h -1 z m -80,1 h 1 v 1 h -1 z m 160,0 h 1 v 1 h -1 z m 111,0 h 1 v 1 h -1 z m -272,1 h 1 v 1 h -1 z m 271,0 h 1 v 1 h -1 z m 8,0 h 1 v 1 h -1 z m -119,3 h 1 v 1 h -1 z m 4,0 1,3 -3,1 z m 49,0 h 1 v 1 h -1 z m -69,7 h 1 v 1 h -1 z m -52,2 v -1 h 1 v 1 1 z m 24,0 v -1 h 2 l -1,1 z m -118,0 h 1 v 1 h -1 z m 21,0 h 1 v 1 h -1 z m 29,0 h 1 v 1 h -1 z m 168,0 h 1 v 1 h -1 z m -216,1 h 1 v 1 h -1 z m 137,0 h 1 v 1 h -1 z m -119,1 h 1 v 1 h -1 z m 116,0 h 1 v 1 h -1 z m 10,0 h 1 v 1 h -1 z m 66,1 h 1 v 1 h -1 z m -90,2 v -1 l 1,1 v 1 h -1 z m 117,-1 h 1 v 1 h -1 z m -224,1 h 1 v 1 h -1 z m 95,0 h 1 v 1 h -1 z m 118,0 h 1 v 1 h -1 z m -226,1 h 1 v 1 h -1 z m 53,0 h 1 v 1 h -1 z m -2,1 h 1 v 1 h -1 z m 170,0 h 1 v 1 h -1 z m -217,1 h 1 v 1 h -1 z m 46,0 h 1 v 1 h -1 z m 166,0 h 1 v 1 h -1 z m 7,0 h 1 v 1 h -1 z m 16,0 h 1 v 1 h -1 z m -239,1 h 1 v 1 h -1 z m 134,0 h 1 v 1 h -1 z m 68,0 h 1 v 1 h -1 z m 7,0 h 1 v 1 h -1 z m 6,0 h 1 v 1 h -1 z m 10,0 h 1 v 1 h -1 z m -15,1 h 1 v 1 h -1 z m 4,0 h 1 v 1 h -1 z m 12,0 h 1 v 1 h -1 z m -94,1 h 1 v 1 h -1 z m 79,0 h 1 v 1 h -1 z m 11,1 h 1 v 1 h -1 z m 1,1 h 1 v 1 h -1 z m -20,1 h 1 v 1 h -1 z m 12,0 h 1 v 1 h -1 z m -14,1 h 1 v 1 h -1 z m 15,0 h 1 v 1 h -1 z m -210,1 h 1 v 1 h -1 z m 111,0 h 1 v 1 h -1 z m 97,0 h 1 v 1 h -1 z m -207,1 h 1 v 1 h -1 z m 7,0 h 1 v 1 h -1 z m 199,1 h 1 v 1 h -1 z m -121,1 h 1 v 1 h -1 z m -69,1 h 1 v 1 h -1 z m 195,0 h 1 v 1 h -1 z m -3,1 h 1 v 1 h -1 z m 2,0 h 1 v 1 h -1 z m -198,1 h 1 v 1 h -1 z m 109,0 h 1 v 1 h -1 z m -115,1 h 1 v 1 h -1 z m 50,0 h 1 v 1 h -1 z m 28,0 h 1 v 1 h -1 z m 29,2 h 1 v 1 h -1 z m -33,1 h 1 v 1 h -1 z m 107,0 h 1 v 1 h -1 z m 5,0 h 1 v 1 h -1 z m -181,1 h 1 v 1 h -1 z m 103,0 h 1 v 1 h -1 z m -100,2 h 1 v 1 h -1 z m 65,0 h 1 v 1 h -1 z m 112,0 h 1 v 1 h -1 z m -119,1 h 1 v 1 h -1 z m 39,1 -2,-1 h 2 z m 78,-1 h 1 v 1 h -1 z m 5,1 h 1 v 1 h -1 z m 2,0 h 1 v 1 h -1 z m -133,2 h 1 v 1 h -1 z m 49,1 h 1 v 1 h -1 z m 71,2 h 1 v 1 h -1 z m -73,1 h 1 v 1 h -1 z m -28,2 h 1 v 1 h -1 z m 12,2 h 1 v 1 h -1 z m -67,1 h 1 v 1 h -1 z m 79,0 h 1 v 1 h -1 z m -56,1 h 1 v 1 h -1 z m 43,0 h 1 v 1 h -1 z m 1,1 h 1 v 1 h -1 z m -57,1 h 1 v 1 h -1 z m 56,1 h 1 v 1 h -1 z m -53,1 h 1 v 1 h -1 z m -4,2 h 1 v 1 h -1 z m 4,0 h 1 v 1 h -1 z m 5,3 h 1 v 1 h -1 z m 41,1 v -1 l 3,1 z m 2,1 h 1 v 1 h -1 z m -42,3 h 1 v 1 h -1 z m 32,2 1,-2 v 1 1 z m 7,1 v -3 h 1 1 v 4 h -1 z m 11,-3 h 1 v 1 h -1 z m -44,2 h 1 v 1 h -1 z m 32,1 h 1 v 1 h -1 z m 4,1 2,1 h -2 z m -29,1 h 1 v 1 h -1 z m -1,1 h 1 v 1 h -1 z m 1,4 h 1 v 1 h -1 z m 23,0 h 1 v 1 h -1 z m -4,10 h 1 v 1 h -1 z" />
      <path
         id="Path 6"
         fill-rule="evenodd"
         class="s1"
         d="m 258,643 h 1 v 1 h -1 z m -1,10 h 1 v 1 h -1 z m 4,2 2,1 -1,2 z m 10,0 h 1 v 1 h -1 z m -6,2 6,4 -5,1 z m -17,2 h 1 v 1 h -1 z m 34,3 v 4 l -7,-3 z m -15,2 h 1 v 1 h -1 z m 41,5 4,8 h -3 z m -72,1 h 1 v 1 h -1 z m 13,3 h 1 v 1 h -1 z m 74,0 h 1 v 1 h -1 z m -74,3 h 1 v 1 h -1 z m 77,1 h 1 v 1 h -1 z m -16,2 h 1 v 1 h -1 z m 18,0 h 1 v 1 h -1 z m -51,1 h 1 v 1 h -1 z m -33,5 h 1 v 1 h -1 z m 7,0 h 1 v 1 h -1 z m 85,1 h 1 v 1 h -1 z m -98,1 h 1 v 1 h -1 z m 36,0 h 1 v 1 h -1 z m 51,0 h 1 v 1 h -1 z m -1,1 h 1 v 1 h -1 z m -83,7 v -4 l 4,-1 v 5 z m 109,-5 h 1 v 1 h -1 z m 4,2 h 1 v 1 h -1 z m 4,3 h 1 v 1 h -1 z m 1,1 h 1 v 1 h -1 z m -121,2 h 1 v 1 h -1 z m 122,2 h 1 v 1 h -1 z m 5,0 h 1 v 1 h -1 z m -152,1 h 1 v 1 h -1 z m 44,4 -6,2 -7,-6 h 6 l 1,3 4,-2 z m 72,-4 h 1 v 1 h -1 z m -113,4 h 1 v 1 h -1 z m 49,7 -8,-3 v -4 l 12,6 v 1 2 z m -14,-3 h 1 v 1 h -1 z m 117,0 h 1 v 1 h -1 z m -120,2 h 1 v 1 h -1 z m 8,3 v -3 l 5,1 2,8 5,3 -5,2 -5,-4 -1,-1 -1,-5 z m 15,-2 -2,3 v -1 z m 92,-1 h 1 v 1 h -1 z m 10,0 h 1 v 1 h -1 z m 16,0 h 1 v 1 h -1 z m -65,1 h 1 v 1 h -1 z m 12,0 h 1 v 1 h -1 z m 25,0 h 1 v 1 h -1 z m -43,1 h 1 v 1 h -1 z m 54,0 h 1 v 1 h -1 z m -117,1 h 1 v 1 h -1 z m 85,2 3,-2 3,3 z m 54,-2 h 1 v 1 h -1 z m -55,2 h 1 v 1 h -1 z m -102,1 h 1 v 1 h -1 z m 3,0 h 1 v 1 h -1 z m 107,0 h 1 v 1 h -1 z m 42,0 h 1 v 1 h -1 z m -41,2 5,2 v -3 l 2,1 -1,3 -6,2 v -2 z m 21,-1 h 1 v 1 h -1 z m -14,1 h 1 v 1 h -1 z m -40,1 h 1 v 1 h -1 z m 14,0 h 1 v 1 h -1 z m 17,3 -2,-3 2,2 z m 11,-1 v -2 l 1,2 z m -41,-1 h 1 v 1 h -1 z m 16,0 h 1 v 1 h -1 z m 24,3 -2,-2 2,1 z m -132,0 h 1 v 1 h -1 z m 35,0 h 1 v 1 h -1 z m 31,0 h 1 v 1 h -1 z m 56,0 h 1 v 1 h -1 z m 11,0 h 1 v 1 h -1 z m -129,1 h 1 v 1 h -1 z m 59,0 1,2 h -3 z m 92,0 h 1 v 1 h -1 z m 12,0 h 1 v 1 h -1 z m -134,1 h 1 v 1 h -1 z m 62,0 h 1 v 1 h -1 z m 34,0 h 1 v 1 h -1 z m -61,1 h 1 v 1 h -1 z m 49,0 h 1 v 1 h -1 z m 39,0 h 1 v 1 h -1 z m -57,1 h 1 v 1 h -1 z m 49,0 h 1 v 1 h -1 z m -104,2 h 1 v 1 h -1 z m 34,1 h 1 v 1 h -1 z m 27,0 h 1 v 1 h -1 z m 42,0 2,2 -2,1 z m -70,1 h 1 v 1 h -1 z m 53,0 h 1 v 1 h -1 z m 24,0 h 1 v 1 h -1 z m -187,1 h 1 v 1 h -1 z m 162,0 h 1 v 1 h -1 z m -34,1 4,2 h -5 z m 8,0 4,5 -6,-2 z m 25,0 h 1 v 1 h -1 z m -100,1 5,3 -4,1 z m 123,0 h 1 v 1 h -1 z m -82,1 h 1 v 1 h -1 z m 81,8 -2,-8 4,5 z m -100,-7 h 3 l 1,4 z m 10,1 h 1 v 1 h -1 z m 27,0 h 1 v 1 h -1 z m 33,0 h 1 v 1 h -1 z m 3,0 h 1 v 1 h -1 z m 2,0 h 1 v 1 h -1 z m -111,1 4,4 h -3 z m 24,2 3,-1 4,4 3,-1 1,4 -7,-1 v 5 l 3,1 -2,2 -5,-3 1,-2 v -3 l 2,-4 z m 52,-2 h 1 v 1 h -1 z m 3,0 h 1 v 1 h -1 z m -64,4 1,-3 2,2 -3,2 z m 62,-3 h 1 v 1 h -1 z m 17,0 2,6 h -3 z m 11,0 h 1 v 1 h -1 z m -26,1 h 1 v 1 h -1 z m 27,0 h 1 v 1 h -1 z m -65,1 h 1 v 1 h -1 z m 70,0 h 1 v 1 h -1 z m -69,1 h 1 v 1 h -1 z m 7,0 h 1 v 1 h -1 z m 18,0 h 1 v 1 h -1 z m 2,1 h 1 v 1 h -1 z m 32,1 2,-1 -1,2 z m 35,-1 1,5 -5,-3 z m -66,1 h 1 v 1 h -1 z m -69,2 h 1 v 1 h -1 z m 20,9 -6,-5 v -4 l 4,2 h 1 1 l 2,3 z m 37,-9 h 1 v 1 h -1 z m -66,3 h 1 v 1 h -1 z m 134,0 h 1 v 1 h -1 z m -39,1 h 1 v 1 h -1 z m 10,0 h 1 v 1 h -1 z m -86,1 h 1 v 1 h -1 z m 87,0 h 1 v 1 h -1 z m 75,0 h 1 v 1 h -1 z m -111,1 h 1 v 1 h -1 z m 3,0 h 1 v 1 h -1 z m -49,5 1,-2 h 4 l -3,4 z m 31,-2 h 1 v 1 h -1 z m 40,0 h 1 v 1 h -1 z m -48,1 h 1 v 1 h -1 z m 32,1 h 1 v 1 h -1 z m 25,1 h 1 v 1 h -1 z m -37,1 h 1 v 1 h -1 z m 28,0 h 1 v 1 h -1 z m 1,1 h 1 v 1 h -1 z m 2,1 h 1 v 1 h -1 z m -18,1 h 1 v 1 h -1 z m 88,0 h 1 v 1 h -1 z m -68,2 h 1 v 1 h -1 z m -57,1 h 1 v 1 h -1 z m 65,0 h 1 v 1 h -1 z m -22,1 h 1 v 1 h -1 z m -17,1 h 1 v 1 h -1 z m -21,1 h 1 v 1 h -1 z m -20,3 v -2 l 2,1 v 1 1 h -1 z m 35,-2 h 1 v 1 h -1 z m 4,0 h 1 v 1 h -1 z m 29,0 h 1 v 1 h -1 z m -14,1 h 1 v 1 h -1 z m -52,2 h 1 v 1 h -1 z m 47,0 h 1 v 1 h -1 z m 19,0 h 1 v 1 h -1 z m 31,0 h 1 v 1 h -1 z m -87,2 h 1 v 1 h -1 z m 18,1 h 1 v 1 h -1 z m 1,1 h 1 v 1 h -1 z m 88,0 h 1 v 1 h -1 z m -87,1 h 1 v 1 h -1 z m 7,1 h 1 v 1 h -1 z m 63,1 3,1 -1,2 z m -42,1 h 1 v 1 h -1 z m -94,2 3,2 -2,3 z m 85,0 h 1 v 1 h -1 z m -81,7 4,-6 2,3 z m 79,-6 h 1 v 1 h -1 z m -1,1 h 1 v 1 h -1 z m 3,0 h 1 v 1 h -1 z m 8,0 h 1 v 1 h -1 z m 67,2 v 9 l -1,-6 h -3 z m -167,3 h 1 v 1 h -1 z m 70,0 h 1 v 1 h -1 z m 48,0 h 1 v 1 h -1 z m -60,1 h 1 v 1 h -1 z m 12,1 h 1 v 1 h -1 z m 25,0 h 1 v 1 h -1 z m -21,1 h 1 v 1 h -1 z m 2,1 h 1 v 1 h -1 z m -5,1 h 1 v 1 h -1 z m 105,1 h 1 v 1 h -1 z m -102,1 h 1 v 1 h -1 z m -35,1 h 1 v 1 h -1 z m 139,0 h 1 v 1 h -1 z m 3,0 h 1 v 1 h -1 z m -143,1 h 1 v 1 h -1 z m 2,1 h 1 v 1 h -1 z m 32,0 h 1 v 1 h -1 z m 19,0 h 1 v 1 h -1 z m 59,0 h 1 v 1 h -1 z m 39,1 v 3 l -3,-1 z m -199,1 h 1 v 1 h -1 z m 134,1 h 1 v 1 h -1 z m 95,1 h 1 v 1 h -1 z m -21,1 h 1 v 1 h -1 z m -122,1 h 1 v 1 h -1 z m -1,1 h 1 v 1 h -1 z m 1,1 h 1 v 1 h -1 z m 82,0 h 1 v 1 h -1 z m 27,1 h 1 v 1 h -1 z m -77,1 h 1 v 1 h -1 z m 80,0 3,3 -2,2 z m 21,0 h 1 v 1 h -1 z m -133,1 h 1 v 1 h -1 z m 117,2 h 1 v 1 h -1 z m -35,1 h 1 v 1 h -1 z m -3,4 h 1 v 1 h -1 z m -145,2 h 1 v 1 h -1 z m 29,0 h 1 v 1 h -1 z m 3,0 h 1 v 1 h -1 z m -1,1 h 1 v 1 h -1 z m -21,1 h 1 v 1 h -1 z m 20,0 h 1 v 1 h -1 z m 115,0 h 1 v 1 h -1 z m -146,2 h 1 v 1 h -1 z m 21,0 h 1 v 1 h -1 z m 119,0 h 1 v 1 h -1 z m -147,1 h 1 v 1 h -1 z m -1,1 h 1 v 1 h -1 z m 22,3 1,-3 v 3 z m 146,-3 h 1 v 1 h -1 z m -159,1 h 1 v 1 h -1 z m 191,5 -3,-5 6,2 -2,4 z m -181,1 2,-5 v 6 z m 3,-3 1,-1 1,3 z m 183,-1 h 1 v 1 h -1 z m -245,1 h 1 v 1 h -1 z m 248,0 h 1 v 1 h -1 z m -195,1 h 1 v 1 h -1 z m 4,0 h 1 v 1 h -1 z m 9,0 h 1 v 1 h -1 z m -14,1 h 1 v 1 h -1 z m 36,0 h 1 v 1 h -1 z m 161,0 h 1 v 1 h -1 z m -208,1 h 1 v 1 h -1 z m 17,0 h 1 v 1 h -1 z m 4,0 h 1 v 1 h -1 z m 3,0 h 1 v 1 h -1 z m 6,3 1,-3 h 4 l -1,2 h -2 l -1,1 z m 22,-2 2,-1 -1,2 z m 115,-1 h 1 v 1 h -1 z m -156,1 h 1 v 1 h -1 z m 9,0 h 1 v 1 h -1 z m 7,0 h 1 v 1 h -1 z m 24,0 h 1 v 1 h -1 z m -38,1 h 1 v 1 h -1 z m 29,0 h 1 v 1 h -1 z m -13,1 h 1 v 1 h -1 z m 22,0 h 1 v 1 h -1 z m 148,0 h 1 v 1 h -1 z m -215,1 h 1 v 1 h -1 z m 46,1 1,-1 h 1 1 3 v 3 l -4,5 h -2 l 2,-6 -3,-1 z m -47,1 h 1 v 1 h -1 z m 133,0 h 1 v 1 h -1 z m 90,0 h 1 v 1 h -1 z m -198,1 h 1 v 1 h -1 z m 2,0 h 1 v 1 h -1 z m 6,0 h 1 v 1 h -1 z m 7,0 h 1 v 1 h -1 z m 18,9 6,-9 2,10 4,-3 -1,5 -1,7 -3,-4 -5,1 2,-3 3,-5 -5,2 v -1 l 1,-1 -2,1 z m -32,-5 v -3 h 1 z m 15,-3 h 1 v 1 h -1 z m 4,0 h 1 v 1 h -1 z m -10,1 h 1 v 1 h -1 z m 182,0 h 1 v 1 h -1 z m -200,1 h 1 v 1 h -1 z m 17,0 h 1 v 1 h -1 z m 158,0 h 1 v 1 h -1 z m -167,1 h 1 v 1 h -1 z m 17,2 -1,-2 2,1 z m 152,-2 h 1 v 1 h -1 z m 15,0 h 1 v 1 h -1 z m -184,4 h -2 l 2,-3 1,1 z m 1,-3 h 1 v 1 h -1 z m 2,0 h 1 v 1 h -1 z m 15,0 h 1 v 1 h -1 z m 119,0 h 1 v 1 h -1 z m -141,1 h 1 v 1 h -1 z m 6,0 h 1 v 1 h -1 z m 199,0 h 1 v 1 h -1 z m -1,1 h 1 v 1 h -1 z m -193,1 h 1 v 1 h -1 z m 54,1 h 1 v 1 h -1 z m -51,1 2,1 -3,1 z m 21,1 2,-1 1,1 -1,2 -1,-1 z m 3,-1 h 1 v 1 h -1 z m 23,0 h 1 v 1 h -1 z m -28,4 2,-3 1,1 1,1 v 1 1 l -2,1 -1,-1 z m 15,-2 h 1 v 1 h -1 z m 15,0 h 1 v 1 h -1 z m 117,0 h 1 v 1 h -1 z m 16,0 h 1 v 1 h -1 z m -135,1 h 1 v 1 h -1 z m -26,3 1,6 -3,-4 -6,4 6,-8 1,1 z m 2,-2 h 1 v 1 h -1 z m 16,0 h 1 v 1 h -1 z m 11,0 h 1 v 1 h -1 z m 3,0 h 1 v 1 h -1 z m 126,0 h 1 v 1 h -1 z m -171,1 h 1 v 1 h -1 z m 38,0 h 1 v 1 h -1 z m 6,0 h 1 v 1 h -1 z m 75,0 h 1 v 1 h -1 z m 38,0 h 1 v 1 h -1 z m 13,0 h 1 v 1 h -1 z m -178,1 h 1 v 1 h -1 z m 40,0 2,1 -4,2 1,5 -3,2 -2,-3 5,-7 z m 10,1 1,-1 h 1 z m 117,-1 h 1 v 1 h -1 z m -118,1 h 1 v 1 h -1 z m 97,2 v -2 l 1,1 v 1 z m -201,-1 h 1 v 1 h -1 z m 58,0 h 1 v 1 h -1 z m 4,0 h 1 v 1 h -1 z m 40,2 2,-2 -2,3 z m 119,-2 h 1 v 1 h -1 z m 1,1 h 1 v 1 h -1 z m -164,1 h 1 v 1 h -1 z m 42,0 h 1 v 1 h -1 z m 78,2 v -2 l 2,1 z m -13,0 5,4 1,7 z m -100,1 h 1 v 1 h -1 z m 10,0 h 1 v 1 h -1 z m 7,0 h 1 v 1 h -1 z m 76,0 h 1 v 1 h -1 z m 16,0 h 1 v 1 h -1 z m -118,2 2,-1 -1,2 z m 1,2 -3,1 2,-3 1,1 z m 60,-2 h 1 v 1 h -1 z m -88,1 h 1 v 1 h -1 z m 28,1 h 3 l -2,3 2,1 -4,1 z m 34,0 10,5 -6,3 z m -16,1 h 1 v 1 h -1 z m 3,0 h 1 v 1 h -1 z m -1,1 h 1 v 1 h -1 z m 39,0 h 1 v 1 h -1 z m -85,1 h 1 v 1 h -1 z m 45,0 h 1 v 1 h -1 z m 86,0 h 1 v 1 h -1 z m -134,1 h 1 v 1 h -1 z m 46,0 h 1 v 1 h -1 z m 4,0 h 1 v 1 h -1 z m 119,0 h 1 v 1 h -1 z m -199,1 h 1 v 1 h -1 z m 54,0 5,4 h -5 z m 52,0 h 1 v 1 h -1 z m 6,0 h 1 v 1 h -1 z m -73,2 -1,3 -2,-1 z m 13,-1 h 1 v 1 h -1 z m 23,1 1,-1 v 2 h -1 z m 39,-1 h 1 v 1 h -1 z m -25,1 5,2 -8,2 z m -86,1 h 1 v 1 h -1 z m 70,3 v -3 1 1 z m 4,-3 h 1 v 1 h -1 z m 36,0 h 1 v 1 h -1 z m -108,1 h 1 v 1 h -1 z m 6,0 h 1 v 1 h -1 z m 16,0 h 1 v 1 h -1 z m 18,0 h 1 v 1 h -1 z m 7,0 h 1 v 1 h -1 z m 24,1 v -1 h 1 l -1,3 z m 35,-1 h 1 v 1 h -1 z m -99,1 h 1 v 1 h -1 z m -4,1 h 1 v 1 h -1 z m 3,0 h 1 v 1 h -1 z m 155,0 h 1 v 1 h -1 z m 30,0 h 1 v 1 h -1 z m -123,1 h 1 v 1 h -1 z m 8,0 h 1 v 1 h -1 z m -71,1 h 1 v 1 h -1 z m 96,1 -4,1 -1,-2 h 3 z m 0,-1 h 1 v 1 h -1 z m -90,2 h 1 v 1 h -1 z m 73,0 3,2 -7,4 z m 77,0 h 1 v 1 h -1 z m -92,1 h 1 v 1 h -1 z m 112,1 h 1 v 1 h -1 z m -138,1 h 1 v 1 h -1 z m 124,0 h 1 v 1 h -1 z m 16,0 h 1 v 1 h -1 z m -116,2 h 1 v 1 h -1 z m 31,0 h 1 v 1 h -1 z m -32,1 h 1 v 1 h -1 z m -1,1 h 1 v 1 h -1 z m 19,2 2,-2 -1,2 z m 13,-2 h 1 v 1 h -1 z m -55,1 h 1 v 1 h -1 z m 122,0 h 1 v 1 h -1 z m 7,0 h 1 v 1 h -1 z m -150,1 h 1 v 1 h -1 z m 50,1 h 1 v 1 h -1 z m 12,0 h 1 v 1 h -1 z m 84,0 h 1 v 1 h -1 z m -128,1 h 1 v 1 h -1 z m 46,0 h 1 v 1 h -1 z m -17,1 h 1 v 1 h -1 z m 15,3 v -2 1 z m -17,1 h 1 v 1 h -1 z m 10,4 7,-2 -4,4 v -1 z m -45,-1 h 1 v 1 h -1 z m 41,0 h 1 v 1 h -1 z m -1,1 h 1 v 1 h -1 z m -40,1 h 1 v 1 h -1 z m 45,4 v -3 h 2 v 1 l -1,2 z m 12,-3 h 1 v 1 h -1 z m -1,2 h 1 v 1 h -1 z m -18,1 h 1 v 1 h -1 z m 5,3 1,-3 v 3 z m 3,1 v -4 l 4,2 -1,3 -2,-1 z m -14,-3 h 1 v 1 h -1 z m 6,1 v 2 l -1,-2 z m 7,2 h -2 1 z m -29,1 h 1 v 1 h -1 z m -2,1 h 1 v 1 h -1 z m 23,0 h 1 v 1 h -1 z m -2,1 h 1 v 1 h -1 z m 4,0 h 1 v 1 h -1 z m 1,3 h 1 v 1 h -1 z m -11,1 h 1 v 1 h -1 z m 7,2 h 1 v 1 h -1 z" />
      <path
         id="Path 7"
         fill-rule="evenodd"
         class="s2"
         d="m 288,645 h 1 v 1 h -1 z m -12,7 h 1 v 1 h -1 z m 9,0 h 1 v 1 h -1 z m 4,3 h 1 v 1 h -1 z m 1,5 h 1 v 1 h -1 z m 13,0 h 1 v 1 h -1 z m -18,15 h 1 v 1 h -1 z m 51,10 h 1 v 1 h -1 z m 9,1 -2,5 -3,-3 z m -40,1 h 1 v 1 h -1 z m 1,1 h 1 v 1 h -1 z m -18,1 h 1 v 1 h -1 z m -1,1 h 1 v 1 h -1 z m 2,0 h 1 v 1 h -1 z m 22,0 h 1 v 1 h -1 z m -9,4 h 1 v 1 h -1 z m 14,1 h 1 v 1 h -1 z m -7,1 2,2 -2,1 z m 5,2 2,2 -2,1 z m 0,6 -3,-1 2,-2 z m -42,2 h 1 v 1 h -1 z m 57,1 h 1 v 1 h -1 z m 2,2 h 1 v 1 h -1 z m -62,5 v -2 h 2 z m 41,-2 h 1 v 1 h -1 z m -30,3 h 1 v 1 h -1 z m 15,2 h 1 v 1 h -1 z m -7,1 h 1 v 1 h -1 z m 72,10 h 1 v 1 h -1 z m -70,3 h 1 v 1 h -1 z m 14,3 h 1 v 1 h -1 z m 77,1 h 1 v 1 h -1 z m -112,2 h 1 v 1 h -1 z m 20,1 h 1 v 1 h -1 z m 92,5 4,4 -2,1 z m -38,4 h 1 v 1 h -1 z m -25,3 h 1 v 1 h -1 z m -40,1 h 1 v 1 h -1 z m 59,3 h 1 v 1 h -1 z m -48,1 h 1 v 1 h -1 z m -18,3 h 1 v 1 h -1 z m 29,1 h 1 v 1 h -1 z m -10,4 h 1 v 1 h -1 z m 80,9 h 1 v 1 h -1 z m 15,1 h 1 v 1 h -1 z m -89,2 h 1 v 1 h -1 z m 90,0 h 1 v 1 h -1 z m -106,3 h 1 v 1 h -1 z m 2,8 h 1 v 1 h -1 z m 8,18 h 1 v 1 h -1 z m 51,0 h 1 v 1 h -1 z m -114,1 h 1 v 1 h -1 z m -11,5 h 1 v 1 h -1 z m 8,0 h 1 v 1 h -1 z m -1,7 -2,1 v -6 l 3,2 z m 9,-5 h 1 v 1 h -1 z m 15,1 h 1 v 1 h -1 z m 20,1 3,2 -3,1 z m -54,1 2,1 -3,1 z m 4,1 v -1 h 1 v 2 z m 10,-1 h 1 v 1 h -1 z m 8,5 -3,-4 4,1 z m 8,-5 h 1 v 1 h -1 z m 170,0 h 1 v 1 h -1 z m -187,1 h 1 v 1 h -1 z m -3,1 h 1 v 1 h -1 z m 4,0 h 1 v 1 h -1 z m 12,0 h 1 v 1 h -1 z m -7,1 h 1 v 1 h -1 z m 5,0 h 1 v 1 h -1 z m 183,0 h 1 v 1 h -1 z m -182,1 h 1 v 1 h -1 z m 6,0 h 1 v 1 h -1 z m 4,0 h 1 v 1 h -1 z m -7,1 h 1 v 1 h -1 z m -1,1 h 1 v 1 h -1 z m 6,6 h 1 v 1 h -1 z m 188,1 h 1 v 1 h -1 z m -146,2 h 1 v 1 h -1 z m 146,3 2,2 h -3 z m -147,2 h 1 v 1 h -1 z m 86,0 h 1 v 1 h -1 z m -186,1 h 1 v 1 h -1 z m -1,1 h 1 v 1 h -1 z m 63,0 h 1 v 1 h -1 z m 41,2 h 1 v 1 h -1 z m 150,0 h 1 v 1 h -1 z m 4,0 h 1 v 1 h -1 z m -237,1 h 1 v 1 h -1 z m 213,3 h 1 v 1 h -1 z m -193,2 h 1 v 1 h -1 z m -52,2 h 1 v 1 h -1 z m 44,0 h 1 v 1 h -1 z m -2,1 h 1 v 1 h -1 z m 44,1 2,-1 -1,1 z m 146,0 v -1 h 2 v 1 z m -223,0 h 1 v 1 h -1 z m 31,0 h 1 v 1 h -1 z m 4,0 h 1 v 1 h -1 z m 0,8 -6,4 -3,-2 8,-8 z m -28,-5 h 1 v 1 h -1 z m 34,0 h 1 v 1 h -1 z m -44,1 h 1 v 1 h -1 z m 7,0 h 1 v 1 h -1 z m 116,0 h 1 v 1 h -1 z m -100,1 h 1 v 1 h -1 z m 213,0 h 1 v 1 h -1 z m -196,1 h 1 v 1 h -1 z m 9,0 h 1 v 1 h -1 z m -10,1 h 1 v 1 h -1 z m -55,2 h 1 v 1 h -1 z m 246,0 h 1 v 1 h -1 z m -2,1 h 1 v 1 h -1 z m -205,1 h 1 v 1 h -1 z m 174,2 h 1 v 1 h -1 z m -146,1 h 1 v 1 h -1 z m 168,1 h 1 v 1 h -1 z m -141,9 -1,-2 h 2 v 1 z m -39,-1 h 1 v 1 h -1 z m 24,1 h 1 v 1 h -1 z m 3,0 h 1 v 1 h -1 z m 9,2 v -2 l 1,2 z m -13,-1 h 1 v 1 h -1 z m 11,1 h 1 v 1 h -1 z m 123,3 h 1 v 1 h -1 z m -155,1 h 1 v 1 h -1 z m 125,0 h 1 v 1 h -1 z m -115,3 h 1 v 1 h -1 z m 115,2 h 1 v 1 h -1 z m 0,2 h 1 v 1 h -1 z m 7,0 h 1 v 1 h -1 z m -109,2 h 1 v 1 h -1 z m 24,4 h 1 v 2 h -1 z m 82,0 h 1 v 1 h -1 z m 3,0 h 1 v 1 h -1 z m -111,4 1,-2 v 2 z m -1,0 h 1 v 1 h -1 z m 2,0 h 1 v 1 h -1 z m -12,19 h 1 v 1 h -1 z m 14,3 h 1 v 1 h -1 z m 4,8 h 1 v 1 h -1 z" />
      <path
         id="Path 8"
         fill-rule="evenodd"
         class="s3"
         d="m 269,634 h 1 v 1 h -1 z m 5,2 h 1 v 1 h -1 z m 3,2 h 1 v 1 h -1 z m -26,4 h 1 v 1 h -1 z m 38,2 h 1 v 1 h -1 z m 2,3 h 1 v 1 h -1 z m 1,2 h 1 v 1 h -1 z m 2,1 h 1 v 1 h -1 z m 3,2 h 1 v 1 h -1 z m 2,1 h 1 v 1 h -1 z m -46,1 h 1 v 1 h -1 z m 50,2 h 1 v 1 h -1 z m 1,1 h 1 v 1 h -1 z m 2,1 h 1 v 1 h -1 z m -48,2 h 1 v 1 h -1 z m 53,2 h 1 v 1 h -1 z m -67,6 h 1 v 1 h -1 z m -7,5 h 1 v 1 h -1 z m 93,2 h 1 v 1 h -1 z m -94,10 -2,-5 2,-1 8,8 z m 30,-6 4,2 -2,2 z m 9,1 h 1 v 1 h -1 z m -26,1 3,2 h -4 z m 24,0 h 1 v 1 h -1 z m -47,3 h 1 v 1 h -1 z m 44,0 h 1 v 1 h -1 z m -34,1 -1,3 -4,-3 z m 22,7 v 2 l -9,-2 3,-2 z m 45,-1 h 1 v 1 h -1 z m -7,2 h -2 l 2,-1 z m -61,4 h 1 v 1 h -1 z m 4,8 v -4 h 5 l -3,3 3,3 z m 28,-5 h 1 v 1 h -1 z m -35,1 h 1 v 1 h -1 z m 23,0 h 1 v 1 h -1 z m 16,0 h 1 v 1 h -1 z m -45,1 h 3 v 3 z m 9,0 h 1 v 1 h -1 z m 134,1 h 1 v 1 h -1 z m -157,1 h 1 v 1 h -1 z m 19,1 h 1 v 1 h -1 z m 8,0 -1,3 -2,-3 z m -33,1 h 1 v 1 h -1 z m 38,1 h 1 v 1 h -1 z m 53,0 h 1 v 1 h -1 z m -89,3 h 1 v 1 h -1 z m 11,0 h 1 v 1 h -1 z m 50,0 h 1 v 1 h -1 z m -5,2 h 1 v 1 h -1 z m 115,0 h 1 v 1 h -1 z m 13,0 h 1 v 1 h -1 z m -174,1 3,2 -2,2 z m 15,0 3,3 -5,1 z m 30,0 h 1 v 1 h -1 z m 42,1 h 1 v 1 h -1 z m -57,1 h 1 v 1 h -1 z m 58,0 h 1 v 1 h -1 z m 68,0 h 1 v 1 h -1 z m -63,1 h 1 v 1 h -1 z m 85,1 h 1 v 1 h -1 z m -163,1 h 1 v 1 h -1 z m 146,1 h 1 v 1 h -1 z m 18,0 h 1 v 1 h -1 z m -139,2 -2,2 1,-3 z m -24,0 4,2 2,6 -7,-3 z m 81,1 h 1 v 1 h -1 z m 31,1 v -1 h 2 v 2 h -1 z m -89,1 h 1 v 1 h -1 z m 84,1 h 1 v 1 h -1 z m 23,0 h 1 v 1 h -1 z m 36,0 h 1 v 1 h -1 z m -137,1 h 1 v 1 h -1 z m 138,1 h 1 v 1 h -1 z m 1,2 h 1 v 1 h -1 z m 1,2 h 1 v 1 h -1 z m -119,1 h 1 v 1 h -1 z m -44,2 h 1 v 1 h -1 z m 7,2 h 1 v 1 h -1 z m 158,0 h 1 v 1 h -1 z m -159,1 h 1 v 1 h -1 z m 2,0 h 1 v 1 h -1 z m 46,2 h 1 v 1 h -1 z m -60,1 h 1 v 1 h -1 z m 26,0 h 1 v 1 h -1 z m 96,0 h 1 v 1 h -1 z m 51,0 h 1 v 1 h -1 z m -146,1 h 1 v 1 h -1 z m 14,0 h 1 v 1 h -1 z m -22,3 -3,2 1,-4 2,1 z m 155,-2 h 1 v 1 h -1 z m -131,1 h 1 v 1 h -1 z m 1,1 h 1 v 1 h -1 z m 89,0 h 1 v 1 h -1 z m -124,1 4,3 -6,-1 z m 16,0 h 1 v 1 h -1 z m -2,4 1,-3 1,3 h -1 z m -27,-2 h 1 v 1 h -1 z m 31,0 h 1 v 1 h -1 z m 151,3 h 1 v 1 h -1 z m -168,1 h 1 v 1 h -1 z m 2,2 h 1 v 1 h -1 z m 168,1 h 1 v 1 h -1 z m -159,1 h 1 v 1 h -1 z m 72,1 h 1 v 1 h -1 z m -96,1 h 1 v 1 h -1 z m 22,1 h 1 v 1 h -1 z m 99,0 h 1 v 1 h -1 z m -97,2 h 1 v 1 h -1 z m 6,2 h 1 v 1 h -1 z m 82,2 h 1 v 1 h -1 z m 1,1 3,2 -3,2 z m -3,1 h 1 v 1 h -1 z m -110,4 h 1 v 1 h -1 z m 97,0 h 1 v 1 h -1 z m -59,1 h 1 v 1 h -1 z m 45,0 h 1 v 1 h -1 z m -88,4 h 1 v 1 h -1 z m 53,0 h 1 v 1 h -1 z m 46,0 h 1 v 1 h -1 z m -100,1 h 1 v 1 h -1 z m 99,0 h 1 v 1 h -1 z m -100,1 h 1 v 1 h -1 z m 99,0 h 1 v 1 h -1 z m -36,1 h 1 v 1 h -1 z m 42,0 h 1 v 1 h -1 z m -92,3 h 1 v 1 h -1 z m 45,2 h 1 v 1 h -1 z m 149,1 h 1 v 1 h -1 z m -196,1 h 1 v 1 h -1 z m 84,0 h 1 v 1 h -1 z m 113,2 h 1 v 1 h -1 z m 1,2 h 1 v 1 h -1 z m -103,3 h 1 v 1 h -1 z m -16,1 h 1 v 1 h -1 z m 12,1 h 1 v 1 h -1 z m 3,0 h 1 v 1 h -1 z m 6,0 h 1 v 1 h -1 z m 26,0 h 1 v 1 h -1 z m -35,4 -2,-2 2,-1 z m 10,-3 5,6 h -4 z m -14,1 h 1 v 1 h -1 z m 47,0 h 1 v 1 h -1 z m -150,1 h 1 v 1 h -1 z m 104,0 h 1 v 1 h -1 z m 47,0 h 1 v 1 h -1 z m -44,1 h 1 v 1 h -1 z m -3,1 h 1 v 1 h -1 z m 22,1 h 1 v 1 h -1 z m 93,0 h 1 v 1 h -1 z m -86,2 7,6 -2,-2 -5,2 z m 87,0 h 1 v 1 h -1 z m -230,1 h 1 v 1 h -1 z m 231,1 h 1 v 1 h -1 z m -86,20 -4,-4 1,-5 -4,-9 8,12 z m 87,-18 h 1 v 1 h -1 z m -114,1 h 1 v 1 h -1 z m 1,1 h 1 v 1 h -1 z m 2,0 h 1 v 1 h -1 z m 3,0 h 1 v 1 h -1 z m -7,1 h 1 v 1 h -1 z m 61,0 h 1 v 1 h -1 z m -19,2 4,5 h -3 l 2,7 -3,1 -4,-9 z m -40,1 h 1 v 1 h -1 z m 66,0 h 1 v 1 h -1 z m -93,2 h 1 v 1 h -1 z m 35,0 3,3 -2,1 z m -140,1 h 1 v 1 h -1 z m 130,0 h 1 v 1 h -1 z m -131,1 h 1 v 1 h -1 z m 65,1 h 1 v 1 h -1 z m 67,0 h 1 v 1 h -1 z m 73,0 h 1 v 1 h -1 z m -202,2 h 1 v 1 h -1 z m 203,4 h 1 v 1 h -1 z m 48,0 h 1 v 1 h -1 z m -264,1 h 1 v 1 h -1 z m 5,0 h 1 v 1 h -1 z m 164,0 2,4 h -3 z m -170,1 h 1 v 1 h -1 z m 144,0 h 1 v 1 h -1 z m 43,0 h 1 v 1 h -1 z m 7,0 h 1 v 1 h -1 z m 19,0 h 1 v 1 h -1 z m -212,1 h 1 v 1 h -1 z m 227,3 -2,-1 1,-2 z m -84,-2 h 1 v 1 h -1 z m 14,1 h 1 v 1 h -1 z m 12,1 3,5 -4,-1 z m 45,9 -3,-2 1,-4 z m -226,-5 h 1 v 1 h -1 z m 177,0 2,2 -2,1 z m 60,0 h 1 v 1 h -1 z m 4,0 h 1 v 1 h -1 z m -143,2 v -1 l 1,1 -1,1 z m 140,-1 h 1 v 1 h -1 z m 13,0 h 1 v 1 h -1 z m -174,2 1,-1 v 2 h -1 z m 45,-1 h 1 v 1 h -1 z m 61,1 6,1 1,3 -6,-1 z m -108,1 h 1 v 1 h -1 z m 180,1 5,4 -3,-2 -2,3 z m -261,1 h 1 v 1 h -1 z m 134,0 h 1 v 1 h -1 z m 46,0 h 1 v 1 h -1 z m 64,1 h 1 v 1 h -1 z m -68,1 h 1 v 1 h -1 z m 69,0 h 1 v 1 h -1 z m 28,0 h 1 v 1 h -1 z m -43,1 h 1 v 1 h -1 z m -35,3 h 1 v 1 h -1 z m 2,1 v 4 l -1,-4 z m 19,0 h 1 v 1 h -1 z m 19,0 h 1 v 1 h -1 z m 2,1 h 1 v 1 h -1 z m -37,1 h 1 v 1 h -1 z m 55,0 h 1 v 1 h -1 z m -161,1 h 1 v 1 h -1 z m 76,1 h 1 v 1 h -1 z m 67,1 h 1 v 1 h -1 z m 18,0 h 1 v 1 h -1 z m -135,2 v -1 h 1 2 v 2 1 h -1 l -1,-1 z m 52,-1 5,6 -5,-1 z m 15,1 h 1 v 1 h -1 z m 7,2 h 1 v 1 h -1 z m 8,0 h 1 v 1 h -1 z m 29,0 h 1 v 1 h -1 z m -65,1 h 1 v 1 h -1 z m -153,1 h 1 v 1 h -1 z m 186,2 h 1 v 1 h -1 z m -84,2 1,-1 h 1 v 1 l -1,1 h -2 z m 90,-1 h 1 v 1 h -1 z m -188,2 h 1 v 1 h -1 z m 127,0 h 1 v 1 h -1 z m -141,1 h 1 v 1 h -1 z m 182,0 h 1 v 1 h -1 z m -143,1 h 1 v 1 h -1 z m 97,0 h 1 v 1 h -1 z m 47,0 h 1 v 1 h -1 z m 12,0 h 1 v 1 h -1 z m -58,1 h 1 v 1 h -1 z m 59,8 -3,-2 1,-5 z m -158,-6 h 1 v 1 h -1 z m 147,0 6,4 -4,1 z m -152,1 h 1 v 1 h -1 z m 56,2 h 1 v 1 h -1 z m 112,0 h 1 v 1 h -1 z m -115,2 1,-1 h 1 l 1,2 v 1 l -1,1 h -1 l -1,-2 -1,1 h -1 v -2 z m 110,1 h 1 v 1 h -1 z m -22,1 h 1 v 1 h -1 z m 16,0 h 1 v 1 h -1 z m 11,0 h 1 v 1 h -1 z m -118,1 h 1 v 1 h -1 z m 2,1 v -1 h 1 1 v 1 h -1 z m 97,1 v 4 l -3,-2 1,-4 z m -125,-1 h 1 v 1 h -1 z m 26,1 1,-1 h 1 l 1,1 v 2 h -1 -1 -1 v -1 z m 127,0 h 1 v 1 h -1 z m -161,2 h 1 v 1 h -1 z m -1,1 h 1 v 1 h -1 z m 135,4 v -2 1 z m 1,-1 h 1 v 1 h -1 z m -131,1 4,2 -4,2 z m 11,2 2,2 -3,1 z m 132,0 h 1 v 1 h -1 z m -150,1 h 1 v 1 h -1 z m -1,1 h 1 v 1 h -1 z m 137,0 h 1 v 1 h -1 z m 9,1 h 1 v 1 h -1 z m -129,1 h 1 v 1 h -1 z m 119,0 h 1 v 1 h -1 z m -143,1 h 1 v 1 h -1 z m 74,0 h 1 v 1 h -1 z m -62,1 h 1 v 1 h -1 z m 32,1 h 3 -1 z m 18,-1 h 1 v 1 h -1 z m -2,2 h 1 v 1 h -1 z m -24,8 h 1 v 1 h -1 z m 17,2 v -1 h 3 v 1 h -1 z m -14,10 h 1 v 1 h -1 z m -4,3 h 1 v 1 h -1 z m 4,2 h 1 v 1 h -1 z m -3,2 h 1 v 1 h -1 z m -1,1 h 1 v 1 h -1 z m 11,7 h 1 v 1 h -1 z" />
      <path
         id="Path 9"
         class="s4"
         d="m 284,642 h 1 v 1 h -1 z m 6,3 h 1 v 1 h -1 z m -47,6 h 1 v 1 h -1 z m 53,0 h 1 v 1 h -1 z m 6,4 h 1 v 1 h -1 z m -72,14 h 1 v 1 h -1 z m -1,2 h 1 v 1 h -1 z m 5,3 h 1 v 1 h -1 z m -14,10 h 1 v 1 h -1 z m -6,8 h 1 v 1 h -1 z m -3,5 h 1 v 1 h -1 z m 161,8 h 1 v 1 h -1 z m -172,7 h 1 v 1 h -1 z m -5,7 h 1 v 1 h -1 z m -2,3 h 1 v 1 h -1 z m 28,0 h 1 v 1 h -1 z m -30,3 h 1 v 1 h -1 z m -1,3 h 1 v 1 h -1 z m 179,0 h 1 v 1 h -1 z m -167,9 h 1 v 1 h -1 z m -6,1 h 1 v 1 h -1 z m 68,33 h 1 v 1 h -1 z m 157,0 h 1 v 1 h -1 z m 1,1 h 1 v 1 h -1 z m -189,1 h 1 v 1 h -1 z m 190,0 h 1 v 1 h -1 z m 2,1 h 1 v 1 h -1 z m 1,1 h 1 v 1 h -1 z m -168,1 h 1 v 1 h -1 z m -3,1 h 1 v 1 h -1 z m 173,1 h 1 v 1 h -1 z m -179,5 h 1 v 1 h -1 z m 1,2 h 1 v 1 h -1 z m 4,1 h 1 v 1 h -1 z m -34,6 h 1 v 1 h -1 z m -7,3 h 1 v 1 h -1 z m 3,0 h 1 v 1 h -1 z m -5,1 h 1 v 1 h -1 z m -1,1 h 1 v 1 h -1 z m -6,5 h 1 v 1 h -1 z m -1,1 h 1 v 1 h -1 z m -1,1 h 1 v 1 h -1 z m -1,2 h 1 v 1 h -1 z m -1,2 h 1 v 1 h -1 z m 52,2 h 1 v 1 h -1 z m -54,1 h 1 v 1 h -1 z m 63,1 h 1 v 1 h -1 z m 5,0 h 1 v 1 h -1 z m 178,1 h 1 v 1 h -1 z m -170,4 h 1 v 1 h -1 z m -1,1 h 1 v 1 h -1 z m -91,8 h 1 v 1 h -1 z m -2,1 h 1 v 1 h -1 z m -1,1 h 1 v 1 h -1 z m -2,1 h 1 v 1 h -1 z m -3,2 h 1 v 1 h -1 z m 155,16 h 1 v 1 h -1 z m 1,1 h 1 v 1 h -1 z m 1,3 h 1 v 1 h -1 z m -160,8 h 1 v 1 h -1 z m 1,1 h 1 v 1 h -1 z m 166,5 h 1 v 1 h -1 z m 2,1 h 1 v 1 h -1 z m -36,3 h 1 v 1 h -1 z m -14,4 h 1 v 1 h -1 z m -36,1 h 1 v 1 h -1 z m -1,2 h 1 v 1 h -1 z m 34,1 h 1 v 1 h -1 z m 85,2 h 1 v 1 h -1 z m -84,3 h 1 v 1 h -1 z m 1,2 h 1 v 1 h -1 z m 67,2 h 1 v 1 h -1 z m -88,9 h 1 v 1 h -1 z m -32,22 h 1 v 1 h -1 z" />
      <path
         id="Path 10"
         class="s0"
         d="m 256,714 h 1 v 1 h -1 z m 1,6 h 1 v 1 h -1 z m 89,3 h 1 v 1 h -1 z m -7,22 h 1 v 1 h -1 z m -82,4 h 1 v 1 h -1 z m 1,23 h 1 v 1 h -1 z m -6,67 h 1 v 1 h -1 z m -8,6 h 1 v 1 h -1 z m 14,6 h 1 v 1 h -1 z m 1,1 h 1 v 1 h -1 z m -2,3 h 1 v 1 h -1 z" />
      <path
         id="Path 11"
         class="s1"
         d="m 340,718 h 1 v 1 h -1 z m 1,1 h 1 v 1 h -1 z m 2,0 h 1 v 1 h -1 z m -85,49 v -1 2 z m 4,6 h 1 v 1 h -1 z m -10,62 h 1 v 1 h -1 z m 6,38 h 1 v 1 h -1 z" />
      <path
         id="Path 12"
         class="s2"
         d="m 263,749 h 1 v 1 h -1 z m 4,103 h 1 v 1 h -1 z m -11,2 h 1 v 1 h -1 z m 3,0 h 1 v 1 h -1 z m -8,6 h 1 v 1 h -1 z" />
      <path
         id="Path 13"
         class="s3"
         d="m 355,720 h 1 v 1 h -1 z m 1,2 h 1 v 1 h -1 z m 25,44 h 1 v 1 h -1 z m -138,38 h 1 v 1 h -1 z m 196,33 h 1 v 1 h -1 z m -201,28 h 1 v 1 h -1 z m 21,7 h 1 v 1 h -1 z m 1,38 h 1 v 1 h -1 z" />
    </g>
  </g>
</svg>
