<?xml version="1.0" encoding="UTF-8" standalone="no"?>
<!-- Created with Inkscape (http://www.inkscape.org/) -->

<svg
   width="1024"
   height="1024"
   viewBox="0 0 1024 1024"
   version="1.1"
   id="svg1"
   inkscape:version="1.3.2 (091e20e, 2023-11-25, custom)"
   sodipodi:docname="fortune_wheel_arrow.svg"
   inkscape:export-filename="fortune_wheel_fields.svg"
   inkscape:export-xdpi="96"
   inkscape:export-ydpi="96"
   xmlns:inkscape="http://www.inkscape.org/namespaces/inkscape"
   xmlns:sodipodi="http://sodipodi.sourceforge.net/DTD/sodipodi-0.dtd"
   xmlns="http://www.w3.org/2000/svg"
   xmlns:svg="http://www.w3.org/2000/svg">
  <sodipodi:namedview
     id="namedview1"
     pagecolor="#505050"
     bordercolor="#ffffff"
     borderopacity="1"
     inkscape:showpageshadow="0"
     inkscape:pageopacity="0"
     inkscape:pagecheckerboard="1"
     inkscape:deskcolor="#505050"
     inkscape:document-units="px"
     inkscape:zoom="1"
     inkscape:cx="403.5"
     inkscape:cy="526.5"
     inkscape:window-width="2560"
     inkscape:window-height="1369"
     inkscape:window-x="1912"
     inkscape:window-y="-8"
     inkscape:window-maximized="1"
     inkscape:current-layer="layer1" />
  <defs
     id="defs1" />
  <g
     inkscape:label="Layer 1"
     inkscape:groupmode="layer"
     id="layer1">
    <g
       id="g3"
       style="display:inline"
       inkscape:label="arrow">
      <path
         id="path1-3"
         style="fill:#fdd569;fill-opacity:1;stroke:#fdd569;stroke-width:8;stroke-linecap:round;stroke-linejoin:round;stroke-dasharray:none;stroke-opacity:1"
         d="m 512,308.50195 -25.02148,43.33789 -25.02149,43.33985 h 0.74414 A 127.00694,127.00695 0 0 0 384.99219,512 127.00694,127.00695 0 0 0 512,639.00781 127.00694,127.00695 0 0 0 639.00781,512 127.00694,127.00695 0 0 0 561.77539,395.17969 h 0.26758 l -25.02149,-43.33985 z" />
      <path
         id="Path 1"
         class="s0"
         d="m 534.68769,430.73942 c -0.54767,1.84839 -0.61613,2.94373 0,4.10753 0.41076,0.82151 1.1638,1.50609 1.71147,1.50609 0.54767,0 1.5061,-0.47921 2.05377,-1.02688 0.61613,-0.54767 1.09534,-1.84839 1.09534,-2.87527 0.0685,-1.09534 -0.47921,-2.46451 -1.1638,-3.08064 -0.68459,-0.68459 -1.57455,-1.23226 -2.05377,-1.23226 -0.47921,0 -1.23225,1.1638 -1.64301,2.60143 z m -55.72545,-0.13691 c -0.27383,0.27383 -0.54767,1.43763 -0.47921,2.60143 0.0685,1.1638 0.61613,2.87527 1.30072,3.76523 0.8215,1.09534 1.64301,1.5061 2.46452,1.23226 0.61612,-0.27383 1.57455,-1.23226 2.05376,-2.19068 0.68459,-1.50609 0.61613,-1.9853 -0.61613,-3.62832 -0.82151,-1.02688 -2.05376,-1.91684 -2.73835,-2.05376 -0.75305,-0.13692 -1.64301,0 -1.98531,0.27384 z m 4.99749,14.51326 c -0.88996,1.02688 -2.05376,3.08064 -2.53297,4.58674 -0.61613,1.71147 -0.82151,4.65519 -0.61613,7.87276 0.20538,3.69677 0.75305,6.16129 2.05376,8.89964 1.02689,2.05376 2.94373,4.86057 4.31291,6.16129 1.84838,1.77993 3.01218,2.39606 4.65519,2.3276 1.5061,-0.0685 2.73836,-0.75305 4.10753,-2.25914 1.02688,-1.1638 2.12222,-3.28602 2.53298,-4.6552 0.34229,-1.43763 0.68459,-4.10753 0.68459,-6.02437 0,-1.84839 -0.54767,-5.40825 -1.30072,-7.87276 -0.95843,-3.14911 -2.19068,-5.40825 -4.31291,-7.66739 -2.46451,-2.73835 -3.35448,-3.28602 -5.4767,-3.28602 -1.84839,0 -2.87527,0.47921 -4.10753,1.91685 z m 48.94804,-1.02688 c -0.82151,0.47921 -2.19069,1.71147 -3.01219,2.87526 -0.88997,1.16381 -2.12222,3.69678 -2.80681,5.68208 -0.68459,1.91685 -1.23226,5.33979 -1.23226,7.53047 0,2.12222 0.47921,5.54516 1.02688,7.53047 0.82151,2.87527 1.57455,3.90215 3.83369,5.4767 l 2.80681,1.84839 c 4.31291,-2.39606 5.61362,-3.97061 7.25664,-7.18818 1.71146,-3.42294 2.3276,-5.68207 2.66989,-9.58423 0.27383,-3.49139 0.0685,-6.02437 -0.54767,-7.87276 -0.47921,-1.50609 -1.77993,-3.76523 -2.80681,-4.92903 -1.30072,-1.57455 -2.53298,-2.25914 -3.76524,-2.25914 -1.09534,0.0685 -2.60143,0.41075 -3.42293,0.88997 z M 447.4712,473.8 c -0.34229,0.20538 -0.54767,1.09534 -0.47921,1.84839 0.0685,0.8215 0.47921,1.9853 0.95842,2.73835 0.61613,0.88996 1.36918,1.09534 2.46452,0.8215 0.8215,-0.20537 1.50609,-0.95842 1.50609,-1.57455 0,-0.68459 -0.68459,-1.91684 -1.50609,-2.73835 -0.88996,-0.88996 -1.77993,-1.57455 -1.98531,-1.57455 -0.20537,0 -0.61612,0.20537 -0.95842,0.47921 z m 125.96417,1.02688 c -0.68459,0.82151 -1.1638,1.91685 -1.09534,2.39606 0.0685,0.47921 0.68458,1.1638 1.43763,1.57455 0.75305,0.41075 1.71147,0.68459 2.05376,0.68459 0.41076,0 0.88997,-0.68459 1.09534,-1.5061 0.20538,-0.88996 0.0685,-2.25913 -0.34229,-3.08064 -0.41075,-0.88996 -1.02688,-1.57455 -1.43763,-1.57455 -0.3423,0 -1.09534,0.68459 -1.71147,1.50609 z M 452.1264,485.9172 c -1.77993,1.57456 -1.91685,2.05377 -1.91685,6.70897 0,3.90215 0.3423,5.81899 1.71147,8.76272 0.95843,2.05376 3.14911,5.27133 4.79212,7.05125 1.71147,1.77993 4.10753,3.55986 5.33978,3.90215 1.64301,0.54767 2.73835,0.41076 4.24445,-0.34229 1.1638,-0.54767 2.39606,-1.64301 2.73835,-2.39606 0.41075,-0.75304 0.68459,-2.80681 0.75305,-4.58674 0,-1.91684 -0.61613,-4.99749 -1.5061,-7.39355 -0.88996,-2.25914 -2.73835,-5.54515 -4.17598,-7.32508 -1.43764,-1.84839 -3.62832,-3.90216 -4.79212,-4.6552 -1.23226,-0.75305 -2.94373,-1.36918 -3.76523,-1.36918 -0.82151,0 -2.3276,0.75305 -3.42294,1.64301 z m 116.44839,-0.34229 c -0.8215,0.27383 -2.39606,1.57455 -3.55986,2.87527 -1.16379,1.30072 -2.94372,4.17599 -3.9706,6.43512 -1.36918,3.01219 -1.84839,5.27133 -1.91685,8.69427 -0.0685,3.62832 0.20538,4.92903 1.36918,6.50358 0.95842,1.30072 2.12222,1.98531 3.55985,2.12223 1.57455,0.0685 2.80681,-0.41076 4.44982,-1.84839 1.1638,-1.02688 3.01219,-3.42294 4.03907,-5.27133 0.95842,-1.84838 2.19068,-5.20286 2.66989,-7.46201 0.47922,-2.25914 0.61613,-5.27132 0.41076,-6.6405 -0.27384,-1.43763 -1.23226,-3.35448 -2.19068,-4.3129 -0.95843,-0.95842 -2.12223,-1.71147 -2.53298,-1.64301 -0.47921,0 -1.57455,0.27383 -2.3276,0.54767 z m -74.89391,1.02688 c -1.30072,0.47921 -3.62831,1.50609 -5.13441,2.3276 -1.50609,0.75305 -3.69677,2.39606 -4.92903,3.69678 -1.23226,1.23225 -2.66989,3.42293 -3.21756,4.86057 -0.61613,1.36917 -1.09534,3.97061 -1.09534,5.81899 0,1.77993 0.41075,4.58674 1.02688,6.29821 0.54767,1.71147 0.95842,3.14911 0.8215,3.21757 -0.0684,0.0684 -1.50609,0.8215 -3.1491,1.71146 -1.71147,0.88997 -3.69677,2.46452 -4.44982,3.4914 -1.09534,1.43764 -1.43764,2.94373 -1.36918,5.819 0,3.01219 0.47921,4.72366 2.19069,7.66738 1.16379,2.05377 3.76523,5.61362 5.81899,7.87276 1.98531,2.25914 5.33979,5.27133 7.39355,6.70897 2.05376,1.36917 5.75054,3.35448 8.35197,4.24444 2.53298,0.95842 5.819,1.71147 7.32509,1.71147 1.5061,0 3.69678,-0.47921 4.79212,-1.02688 1.1638,-0.54767 2.66989,-1.84839 3.42294,-2.87527 1.02688,-1.36918 1.43763,-2.94373 1.36917,-5.33979 0,-1.84838 -0.27383,-4.51828 -0.68459,-5.81899 -0.34229,-1.30072 -0.54767,-2.46452 -0.47921,-2.60144 0.0685,-0.13692 1.5061,0.13692 3.21756,0.61613 1.71147,0.41075 3.4914,0.88997 3.97061,1.02688 0.61613,0.20538 0.47922,1.02688 -0.54767,3.21757 -0.75304,1.57455 -1.36917,3.69677 -1.36917,4.79211 0,1.02688 0.47921,2.87527 1.02688,4.10753 0.61613,1.30072 2.12222,2.87527 3.90215,3.83369 2.46452,1.36918 3.55986,1.57455 7.05126,1.30072 2.32759,-0.20538 5.68207,-1.09534 7.87276,-2.12222 2.05376,-1.02689 5.61362,-3.28603 7.87276,-5.13441 2.25914,-1.84839 5.33978,-5.13441 6.91433,-7.39355 1.57456,-2.19068 3.35448,-5.40825 4.03907,-7.11972 0.82151,-2.19068 1.02688,-4.10752 0.75305,-6.50358 q -0.3423,-3.42294 -1.91685,-4.99749 c -0.88996,-0.88997 -2.80681,-1.91685 -4.3129,-2.3276 -1.5061,-0.47921 -2.80681,-0.88997 -2.87527,-1.02688 -0.13692,-0.13692 0.41075,-1.91685 1.1638,-3.97061 0.88996,-2.46452 1.36918,-5.4767 1.36918,-8.69427 0,-3.76523 -0.41076,-5.88745 -1.57456,-8.42043 -0.88996,-1.84839 -2.66989,-4.24444 -3.97061,-5.27132 -1.30071,-1.02689 -4.17598,-2.53298 -6.43512,-3.35448 -3.21757,-1.09535 -4.92903,-1.36918 -7.87276,-0.95843 -2.05377,0.20538 -4.86058,0.88997 -6.16129,1.5061 -1.30072,0.61612 -3.28603,1.71146 -4.44982,2.46451 l -2.05377,1.36918 c -9.92652,-4.72366 -11.91183,-5.20287 -16.08781,-5.40825 -3.21757,-0.13691 -6.02438,0.0685 -7.53047,0.68459 z m 15.06093,73.18244 c -1.30071,0.47921 -3.21756,1.36918 -4.24444,2.05376 -1.09534,0.61613 -2.05376,1.77993 -2.25914,2.53298 -0.20538,0.82151 -1.77993,2.12222 -3.76523,3.08064 -1.84839,0.95843 -4.6552,2.87528 -6.22975,4.24445 -1.5061,1.43764 -3.08065,3.69677 -3.4914,4.99749 -0.47921,1.64301 -0.47921,3.28602 0.0685,5.27133 0.47921,1.91684 1.77993,3.97061 3.69677,5.88745 1.57455,1.57455 4.44982,3.62832 6.29821,4.58674 1.91685,0.88997 4.99749,2.05377 6.84588,2.53298 1.91685,0.47921 5.88745,0.88996 8.89964,0.88996 3.01219,0 7.05126,-0.41075 8.89964,-0.88996 1.91685,-0.47921 4.99749,-1.64301 6.84588,-2.53298 1.91685,-0.95842 4.72366,-2.94373 6.29821,-4.44982 1.9853,-1.91685 2.94373,-3.55986 3.28602,-5.4767 0.27384,-1.5061 0.27384,-3.76524 0.0685,-4.99749 -0.20538,-1.1638 -1.57455,-3.42294 -2.94373,-4.99749 -1.43763,-1.5061 -3.90215,-3.35448 -5.4767,-4.10753 -1.64301,-0.68459 -3.21756,-1.98531 -3.55986,-2.87527 -0.34229,-0.8215 -1.30072,-2.19068 -2.19068,-3.01219 -0.88996,-0.88996 -3.1491,-2.05376 -5.06595,-2.60143 -1.84839,-0.54767 -4.79211,-1.02688 -6.50358,-1.02688 -1.71147,0.0685 -4.17599,0.41075 -5.47671,0.88996 z"
         style="display:inline;fill:#020202;stroke-width:0.684587"
         inkscape:label="paw" />
    </g>
  </g>
</svg>
